%TF.GenerationSoftware,KiCad,Pcbnew,8.0.4*%
%TF.CreationDate,2024-11-12T22:32:28+03:00*%
%TF.ProjectId,EVD80_ControlBoard,45564438-305f-4436-9f6e-74726f6c426f,rev?*%
%TF.SameCoordinates,Original*%
%TF.FileFunction,Legend,Bot*%
%TF.FilePolarity,Positive*%
%FSLAX46Y46*%
G04 Gerber Fmt 4.6, Leading zero omitted, Abs format (unit mm)*
G04 Created by KiCad (PCBNEW 8.0.4) date 2024-11-12 22:32:28*
%MOMM*%
%LPD*%
G01*
G04 APERTURE LIST*
%ADD10C,0.150000*%
%ADD11C,0.120000*%
%ADD12C,0.127000*%
%ADD13C,0.400000*%
%ADD14C,0.350000*%
%ADD15C,0.203200*%
G04 APERTURE END LIST*
D10*
X206242857Y-148259580D02*
X206290476Y-148307200D01*
X206290476Y-148307200D02*
X206433333Y-148354819D01*
X206433333Y-148354819D02*
X206528571Y-148354819D01*
X206528571Y-148354819D02*
X206671428Y-148307200D01*
X206671428Y-148307200D02*
X206766666Y-148211961D01*
X206766666Y-148211961D02*
X206814285Y-148116723D01*
X206814285Y-148116723D02*
X206861904Y-147926247D01*
X206861904Y-147926247D02*
X206861904Y-147783390D01*
X206861904Y-147783390D02*
X206814285Y-147592914D01*
X206814285Y-147592914D02*
X206766666Y-147497676D01*
X206766666Y-147497676D02*
X206671428Y-147402438D01*
X206671428Y-147402438D02*
X206528571Y-147354819D01*
X206528571Y-147354819D02*
X206433333Y-147354819D01*
X206433333Y-147354819D02*
X206290476Y-147402438D01*
X206290476Y-147402438D02*
X206242857Y-147450057D01*
X205338095Y-147354819D02*
X205814285Y-147354819D01*
X205814285Y-147354819D02*
X205861904Y-147831009D01*
X205861904Y-147831009D02*
X205814285Y-147783390D01*
X205814285Y-147783390D02*
X205719047Y-147735771D01*
X205719047Y-147735771D02*
X205480952Y-147735771D01*
X205480952Y-147735771D02*
X205385714Y-147783390D01*
X205385714Y-147783390D02*
X205338095Y-147831009D01*
X205338095Y-147831009D02*
X205290476Y-147926247D01*
X205290476Y-147926247D02*
X205290476Y-148164342D01*
X205290476Y-148164342D02*
X205338095Y-148259580D01*
X205338095Y-148259580D02*
X205385714Y-148307200D01*
X205385714Y-148307200D02*
X205480952Y-148354819D01*
X205480952Y-148354819D02*
X205719047Y-148354819D01*
X205719047Y-148354819D02*
X205814285Y-148307200D01*
X205814285Y-148307200D02*
X205861904Y-148259580D01*
X204385714Y-147354819D02*
X204861904Y-147354819D01*
X204861904Y-147354819D02*
X204909523Y-147831009D01*
X204909523Y-147831009D02*
X204861904Y-147783390D01*
X204861904Y-147783390D02*
X204766666Y-147735771D01*
X204766666Y-147735771D02*
X204528571Y-147735771D01*
X204528571Y-147735771D02*
X204433333Y-147783390D01*
X204433333Y-147783390D02*
X204385714Y-147831009D01*
X204385714Y-147831009D02*
X204338095Y-147926247D01*
X204338095Y-147926247D02*
X204338095Y-148164342D01*
X204338095Y-148164342D02*
X204385714Y-148259580D01*
X204385714Y-148259580D02*
X204433333Y-148307200D01*
X204433333Y-148307200D02*
X204528571Y-148354819D01*
X204528571Y-148354819D02*
X204766666Y-148354819D01*
X204766666Y-148354819D02*
X204861904Y-148307200D01*
X204861904Y-148307200D02*
X204909523Y-148259580D01*
X215142857Y-141789580D02*
X215190476Y-141837200D01*
X215190476Y-141837200D02*
X215333333Y-141884819D01*
X215333333Y-141884819D02*
X215428571Y-141884819D01*
X215428571Y-141884819D02*
X215571428Y-141837200D01*
X215571428Y-141837200D02*
X215666666Y-141741961D01*
X215666666Y-141741961D02*
X215714285Y-141646723D01*
X215714285Y-141646723D02*
X215761904Y-141456247D01*
X215761904Y-141456247D02*
X215761904Y-141313390D01*
X215761904Y-141313390D02*
X215714285Y-141122914D01*
X215714285Y-141122914D02*
X215666666Y-141027676D01*
X215666666Y-141027676D02*
X215571428Y-140932438D01*
X215571428Y-140932438D02*
X215428571Y-140884819D01*
X215428571Y-140884819D02*
X215333333Y-140884819D01*
X215333333Y-140884819D02*
X215190476Y-140932438D01*
X215190476Y-140932438D02*
X215142857Y-140980057D01*
X214761904Y-140980057D02*
X214714285Y-140932438D01*
X214714285Y-140932438D02*
X214619047Y-140884819D01*
X214619047Y-140884819D02*
X214380952Y-140884819D01*
X214380952Y-140884819D02*
X214285714Y-140932438D01*
X214285714Y-140932438D02*
X214238095Y-140980057D01*
X214238095Y-140980057D02*
X214190476Y-141075295D01*
X214190476Y-141075295D02*
X214190476Y-141170533D01*
X214190476Y-141170533D02*
X214238095Y-141313390D01*
X214238095Y-141313390D02*
X214809523Y-141884819D01*
X214809523Y-141884819D02*
X214190476Y-141884819D01*
X213333333Y-140884819D02*
X213523809Y-140884819D01*
X213523809Y-140884819D02*
X213619047Y-140932438D01*
X213619047Y-140932438D02*
X213666666Y-140980057D01*
X213666666Y-140980057D02*
X213761904Y-141122914D01*
X213761904Y-141122914D02*
X213809523Y-141313390D01*
X213809523Y-141313390D02*
X213809523Y-141694342D01*
X213809523Y-141694342D02*
X213761904Y-141789580D01*
X213761904Y-141789580D02*
X213714285Y-141837200D01*
X213714285Y-141837200D02*
X213619047Y-141884819D01*
X213619047Y-141884819D02*
X213428571Y-141884819D01*
X213428571Y-141884819D02*
X213333333Y-141837200D01*
X213333333Y-141837200D02*
X213285714Y-141789580D01*
X213285714Y-141789580D02*
X213238095Y-141694342D01*
X213238095Y-141694342D02*
X213238095Y-141456247D01*
X213238095Y-141456247D02*
X213285714Y-141361009D01*
X213285714Y-141361009D02*
X213333333Y-141313390D01*
X213333333Y-141313390D02*
X213428571Y-141265771D01*
X213428571Y-141265771D02*
X213619047Y-141265771D01*
X213619047Y-141265771D02*
X213714285Y-141313390D01*
X213714285Y-141313390D02*
X213761904Y-141361009D01*
X213761904Y-141361009D02*
X213809523Y-141456247D01*
X228659580Y-141857142D02*
X228707200Y-141809523D01*
X228707200Y-141809523D02*
X228754819Y-141666666D01*
X228754819Y-141666666D02*
X228754819Y-141571428D01*
X228754819Y-141571428D02*
X228707200Y-141428571D01*
X228707200Y-141428571D02*
X228611961Y-141333333D01*
X228611961Y-141333333D02*
X228516723Y-141285714D01*
X228516723Y-141285714D02*
X228326247Y-141238095D01*
X228326247Y-141238095D02*
X228183390Y-141238095D01*
X228183390Y-141238095D02*
X227992914Y-141285714D01*
X227992914Y-141285714D02*
X227897676Y-141333333D01*
X227897676Y-141333333D02*
X227802438Y-141428571D01*
X227802438Y-141428571D02*
X227754819Y-141571428D01*
X227754819Y-141571428D02*
X227754819Y-141666666D01*
X227754819Y-141666666D02*
X227802438Y-141809523D01*
X227802438Y-141809523D02*
X227850057Y-141857142D01*
X228088152Y-142714285D02*
X228754819Y-142714285D01*
X227707200Y-142476190D02*
X228421485Y-142238095D01*
X228421485Y-142238095D02*
X228421485Y-142857142D01*
X228183390Y-143380952D02*
X228135771Y-143285714D01*
X228135771Y-143285714D02*
X228088152Y-143238095D01*
X228088152Y-143238095D02*
X227992914Y-143190476D01*
X227992914Y-143190476D02*
X227945295Y-143190476D01*
X227945295Y-143190476D02*
X227850057Y-143238095D01*
X227850057Y-143238095D02*
X227802438Y-143285714D01*
X227802438Y-143285714D02*
X227754819Y-143380952D01*
X227754819Y-143380952D02*
X227754819Y-143571428D01*
X227754819Y-143571428D02*
X227802438Y-143666666D01*
X227802438Y-143666666D02*
X227850057Y-143714285D01*
X227850057Y-143714285D02*
X227945295Y-143761904D01*
X227945295Y-143761904D02*
X227992914Y-143761904D01*
X227992914Y-143761904D02*
X228088152Y-143714285D01*
X228088152Y-143714285D02*
X228135771Y-143666666D01*
X228135771Y-143666666D02*
X228183390Y-143571428D01*
X228183390Y-143571428D02*
X228183390Y-143380952D01*
X228183390Y-143380952D02*
X228231009Y-143285714D01*
X228231009Y-143285714D02*
X228278628Y-143238095D01*
X228278628Y-143238095D02*
X228373866Y-143190476D01*
X228373866Y-143190476D02*
X228564342Y-143190476D01*
X228564342Y-143190476D02*
X228659580Y-143238095D01*
X228659580Y-143238095D02*
X228707200Y-143285714D01*
X228707200Y-143285714D02*
X228754819Y-143380952D01*
X228754819Y-143380952D02*
X228754819Y-143571428D01*
X228754819Y-143571428D02*
X228707200Y-143666666D01*
X228707200Y-143666666D02*
X228659580Y-143714285D01*
X228659580Y-143714285D02*
X228564342Y-143761904D01*
X228564342Y-143761904D02*
X228373866Y-143761904D01*
X228373866Y-143761904D02*
X228278628Y-143714285D01*
X228278628Y-143714285D02*
X228231009Y-143666666D01*
X228231009Y-143666666D02*
X228183390Y-143571428D01*
X255554819Y-143333142D02*
X255078628Y-142999809D01*
X255554819Y-142761714D02*
X254554819Y-142761714D01*
X254554819Y-142761714D02*
X254554819Y-143142666D01*
X254554819Y-143142666D02*
X254602438Y-143237904D01*
X254602438Y-143237904D02*
X254650057Y-143285523D01*
X254650057Y-143285523D02*
X254745295Y-143333142D01*
X254745295Y-143333142D02*
X254888152Y-143333142D01*
X254888152Y-143333142D02*
X254983390Y-143285523D01*
X254983390Y-143285523D02*
X255031009Y-143237904D01*
X255031009Y-143237904D02*
X255078628Y-143142666D01*
X255078628Y-143142666D02*
X255078628Y-142761714D01*
X255554819Y-144285523D02*
X255554819Y-143714095D01*
X255554819Y-143999809D02*
X254554819Y-143999809D01*
X254554819Y-143999809D02*
X254697676Y-143904571D01*
X254697676Y-143904571D02*
X254792914Y-143809333D01*
X254792914Y-143809333D02*
X254840533Y-143714095D01*
X254888152Y-145142666D02*
X255554819Y-145142666D01*
X254507200Y-144904571D02*
X255221485Y-144666476D01*
X255221485Y-144666476D02*
X255221485Y-145285523D01*
X212759580Y-147957142D02*
X212807200Y-147909523D01*
X212807200Y-147909523D02*
X212854819Y-147766666D01*
X212854819Y-147766666D02*
X212854819Y-147671428D01*
X212854819Y-147671428D02*
X212807200Y-147528571D01*
X212807200Y-147528571D02*
X212711961Y-147433333D01*
X212711961Y-147433333D02*
X212616723Y-147385714D01*
X212616723Y-147385714D02*
X212426247Y-147338095D01*
X212426247Y-147338095D02*
X212283390Y-147338095D01*
X212283390Y-147338095D02*
X212092914Y-147385714D01*
X212092914Y-147385714D02*
X211997676Y-147433333D01*
X211997676Y-147433333D02*
X211902438Y-147528571D01*
X211902438Y-147528571D02*
X211854819Y-147671428D01*
X211854819Y-147671428D02*
X211854819Y-147766666D01*
X211854819Y-147766666D02*
X211902438Y-147909523D01*
X211902438Y-147909523D02*
X211950057Y-147957142D01*
X211950057Y-148338095D02*
X211902438Y-148385714D01*
X211902438Y-148385714D02*
X211854819Y-148480952D01*
X211854819Y-148480952D02*
X211854819Y-148719047D01*
X211854819Y-148719047D02*
X211902438Y-148814285D01*
X211902438Y-148814285D02*
X211950057Y-148861904D01*
X211950057Y-148861904D02*
X212045295Y-148909523D01*
X212045295Y-148909523D02*
X212140533Y-148909523D01*
X212140533Y-148909523D02*
X212283390Y-148861904D01*
X212283390Y-148861904D02*
X212854819Y-148290476D01*
X212854819Y-148290476D02*
X212854819Y-148909523D01*
X211854819Y-149814285D02*
X211854819Y-149338095D01*
X211854819Y-149338095D02*
X212331009Y-149290476D01*
X212331009Y-149290476D02*
X212283390Y-149338095D01*
X212283390Y-149338095D02*
X212235771Y-149433333D01*
X212235771Y-149433333D02*
X212235771Y-149671428D01*
X212235771Y-149671428D02*
X212283390Y-149766666D01*
X212283390Y-149766666D02*
X212331009Y-149814285D01*
X212331009Y-149814285D02*
X212426247Y-149861904D01*
X212426247Y-149861904D02*
X212664342Y-149861904D01*
X212664342Y-149861904D02*
X212759580Y-149814285D01*
X212759580Y-149814285D02*
X212807200Y-149766666D01*
X212807200Y-149766666D02*
X212854819Y-149671428D01*
X212854819Y-149671428D02*
X212854819Y-149433333D01*
X212854819Y-149433333D02*
X212807200Y-149338095D01*
X212807200Y-149338095D02*
X212759580Y-149290476D01*
X212142857Y-151559580D02*
X212190476Y-151607200D01*
X212190476Y-151607200D02*
X212333333Y-151654819D01*
X212333333Y-151654819D02*
X212428571Y-151654819D01*
X212428571Y-151654819D02*
X212571428Y-151607200D01*
X212571428Y-151607200D02*
X212666666Y-151511961D01*
X212666666Y-151511961D02*
X212714285Y-151416723D01*
X212714285Y-151416723D02*
X212761904Y-151226247D01*
X212761904Y-151226247D02*
X212761904Y-151083390D01*
X212761904Y-151083390D02*
X212714285Y-150892914D01*
X212714285Y-150892914D02*
X212666666Y-150797676D01*
X212666666Y-150797676D02*
X212571428Y-150702438D01*
X212571428Y-150702438D02*
X212428571Y-150654819D01*
X212428571Y-150654819D02*
X212333333Y-150654819D01*
X212333333Y-150654819D02*
X212190476Y-150702438D01*
X212190476Y-150702438D02*
X212142857Y-150750057D01*
X211238095Y-150654819D02*
X211714285Y-150654819D01*
X211714285Y-150654819D02*
X211761904Y-151131009D01*
X211761904Y-151131009D02*
X211714285Y-151083390D01*
X211714285Y-151083390D02*
X211619047Y-151035771D01*
X211619047Y-151035771D02*
X211380952Y-151035771D01*
X211380952Y-151035771D02*
X211285714Y-151083390D01*
X211285714Y-151083390D02*
X211238095Y-151131009D01*
X211238095Y-151131009D02*
X211190476Y-151226247D01*
X211190476Y-151226247D02*
X211190476Y-151464342D01*
X211190476Y-151464342D02*
X211238095Y-151559580D01*
X211238095Y-151559580D02*
X211285714Y-151607200D01*
X211285714Y-151607200D02*
X211380952Y-151654819D01*
X211380952Y-151654819D02*
X211619047Y-151654819D01*
X211619047Y-151654819D02*
X211714285Y-151607200D01*
X211714285Y-151607200D02*
X211761904Y-151559580D01*
X210333333Y-150654819D02*
X210523809Y-150654819D01*
X210523809Y-150654819D02*
X210619047Y-150702438D01*
X210619047Y-150702438D02*
X210666666Y-150750057D01*
X210666666Y-150750057D02*
X210761904Y-150892914D01*
X210761904Y-150892914D02*
X210809523Y-151083390D01*
X210809523Y-151083390D02*
X210809523Y-151464342D01*
X210809523Y-151464342D02*
X210761904Y-151559580D01*
X210761904Y-151559580D02*
X210714285Y-151607200D01*
X210714285Y-151607200D02*
X210619047Y-151654819D01*
X210619047Y-151654819D02*
X210428571Y-151654819D01*
X210428571Y-151654819D02*
X210333333Y-151607200D01*
X210333333Y-151607200D02*
X210285714Y-151559580D01*
X210285714Y-151559580D02*
X210238095Y-151464342D01*
X210238095Y-151464342D02*
X210238095Y-151226247D01*
X210238095Y-151226247D02*
X210285714Y-151131009D01*
X210285714Y-151131009D02*
X210333333Y-151083390D01*
X210333333Y-151083390D02*
X210428571Y-151035771D01*
X210428571Y-151035771D02*
X210619047Y-151035771D01*
X210619047Y-151035771D02*
X210714285Y-151083390D01*
X210714285Y-151083390D02*
X210761904Y-151131009D01*
X210761904Y-151131009D02*
X210809523Y-151226247D01*
X214059580Y-160757142D02*
X214107200Y-160709523D01*
X214107200Y-160709523D02*
X214154819Y-160566666D01*
X214154819Y-160566666D02*
X214154819Y-160471428D01*
X214154819Y-160471428D02*
X214107200Y-160328571D01*
X214107200Y-160328571D02*
X214011961Y-160233333D01*
X214011961Y-160233333D02*
X213916723Y-160185714D01*
X213916723Y-160185714D02*
X213726247Y-160138095D01*
X213726247Y-160138095D02*
X213583390Y-160138095D01*
X213583390Y-160138095D02*
X213392914Y-160185714D01*
X213392914Y-160185714D02*
X213297676Y-160233333D01*
X213297676Y-160233333D02*
X213202438Y-160328571D01*
X213202438Y-160328571D02*
X213154819Y-160471428D01*
X213154819Y-160471428D02*
X213154819Y-160566666D01*
X213154819Y-160566666D02*
X213202438Y-160709523D01*
X213202438Y-160709523D02*
X213250057Y-160757142D01*
X213488152Y-161614285D02*
X214154819Y-161614285D01*
X213107200Y-161376190D02*
X213821485Y-161138095D01*
X213821485Y-161138095D02*
X213821485Y-161757142D01*
X213154819Y-162328571D02*
X213154819Y-162423809D01*
X213154819Y-162423809D02*
X213202438Y-162519047D01*
X213202438Y-162519047D02*
X213250057Y-162566666D01*
X213250057Y-162566666D02*
X213345295Y-162614285D01*
X213345295Y-162614285D02*
X213535771Y-162661904D01*
X213535771Y-162661904D02*
X213773866Y-162661904D01*
X213773866Y-162661904D02*
X213964342Y-162614285D01*
X213964342Y-162614285D02*
X214059580Y-162566666D01*
X214059580Y-162566666D02*
X214107200Y-162519047D01*
X214107200Y-162519047D02*
X214154819Y-162423809D01*
X214154819Y-162423809D02*
X214154819Y-162328571D01*
X214154819Y-162328571D02*
X214107200Y-162233333D01*
X214107200Y-162233333D02*
X214059580Y-162185714D01*
X214059580Y-162185714D02*
X213964342Y-162138095D01*
X213964342Y-162138095D02*
X213773866Y-162090476D01*
X213773866Y-162090476D02*
X213535771Y-162090476D01*
X213535771Y-162090476D02*
X213345295Y-162138095D01*
X213345295Y-162138095D02*
X213250057Y-162185714D01*
X213250057Y-162185714D02*
X213202438Y-162233333D01*
X213202438Y-162233333D02*
X213154819Y-162328571D01*
X227059580Y-141857142D02*
X227107200Y-141809523D01*
X227107200Y-141809523D02*
X227154819Y-141666666D01*
X227154819Y-141666666D02*
X227154819Y-141571428D01*
X227154819Y-141571428D02*
X227107200Y-141428571D01*
X227107200Y-141428571D02*
X227011961Y-141333333D01*
X227011961Y-141333333D02*
X226916723Y-141285714D01*
X226916723Y-141285714D02*
X226726247Y-141238095D01*
X226726247Y-141238095D02*
X226583390Y-141238095D01*
X226583390Y-141238095D02*
X226392914Y-141285714D01*
X226392914Y-141285714D02*
X226297676Y-141333333D01*
X226297676Y-141333333D02*
X226202438Y-141428571D01*
X226202438Y-141428571D02*
X226154819Y-141571428D01*
X226154819Y-141571428D02*
X226154819Y-141666666D01*
X226154819Y-141666666D02*
X226202438Y-141809523D01*
X226202438Y-141809523D02*
X226250057Y-141857142D01*
X226488152Y-142714285D02*
X227154819Y-142714285D01*
X226107200Y-142476190D02*
X226821485Y-142238095D01*
X226821485Y-142238095D02*
X226821485Y-142857142D01*
X227154819Y-143285714D02*
X227154819Y-143476190D01*
X227154819Y-143476190D02*
X227107200Y-143571428D01*
X227107200Y-143571428D02*
X227059580Y-143619047D01*
X227059580Y-143619047D02*
X226916723Y-143714285D01*
X226916723Y-143714285D02*
X226726247Y-143761904D01*
X226726247Y-143761904D02*
X226345295Y-143761904D01*
X226345295Y-143761904D02*
X226250057Y-143714285D01*
X226250057Y-143714285D02*
X226202438Y-143666666D01*
X226202438Y-143666666D02*
X226154819Y-143571428D01*
X226154819Y-143571428D02*
X226154819Y-143380952D01*
X226154819Y-143380952D02*
X226202438Y-143285714D01*
X226202438Y-143285714D02*
X226250057Y-143238095D01*
X226250057Y-143238095D02*
X226345295Y-143190476D01*
X226345295Y-143190476D02*
X226583390Y-143190476D01*
X226583390Y-143190476D02*
X226678628Y-143238095D01*
X226678628Y-143238095D02*
X226726247Y-143285714D01*
X226726247Y-143285714D02*
X226773866Y-143380952D01*
X226773866Y-143380952D02*
X226773866Y-143571428D01*
X226773866Y-143571428D02*
X226726247Y-143666666D01*
X226726247Y-143666666D02*
X226678628Y-143714285D01*
X226678628Y-143714285D02*
X226583390Y-143761904D01*
X225142857Y-158359580D02*
X225190476Y-158407200D01*
X225190476Y-158407200D02*
X225333333Y-158454819D01*
X225333333Y-158454819D02*
X225428571Y-158454819D01*
X225428571Y-158454819D02*
X225571428Y-158407200D01*
X225571428Y-158407200D02*
X225666666Y-158311961D01*
X225666666Y-158311961D02*
X225714285Y-158216723D01*
X225714285Y-158216723D02*
X225761904Y-158026247D01*
X225761904Y-158026247D02*
X225761904Y-157883390D01*
X225761904Y-157883390D02*
X225714285Y-157692914D01*
X225714285Y-157692914D02*
X225666666Y-157597676D01*
X225666666Y-157597676D02*
X225571428Y-157502438D01*
X225571428Y-157502438D02*
X225428571Y-157454819D01*
X225428571Y-157454819D02*
X225333333Y-157454819D01*
X225333333Y-157454819D02*
X225190476Y-157502438D01*
X225190476Y-157502438D02*
X225142857Y-157550057D01*
X224761904Y-157550057D02*
X224714285Y-157502438D01*
X224714285Y-157502438D02*
X224619047Y-157454819D01*
X224619047Y-157454819D02*
X224380952Y-157454819D01*
X224380952Y-157454819D02*
X224285714Y-157502438D01*
X224285714Y-157502438D02*
X224238095Y-157550057D01*
X224238095Y-157550057D02*
X224190476Y-157645295D01*
X224190476Y-157645295D02*
X224190476Y-157740533D01*
X224190476Y-157740533D02*
X224238095Y-157883390D01*
X224238095Y-157883390D02*
X224809523Y-158454819D01*
X224809523Y-158454819D02*
X224190476Y-158454819D01*
X223571428Y-157454819D02*
X223476190Y-157454819D01*
X223476190Y-157454819D02*
X223380952Y-157502438D01*
X223380952Y-157502438D02*
X223333333Y-157550057D01*
X223333333Y-157550057D02*
X223285714Y-157645295D01*
X223285714Y-157645295D02*
X223238095Y-157835771D01*
X223238095Y-157835771D02*
X223238095Y-158073866D01*
X223238095Y-158073866D02*
X223285714Y-158264342D01*
X223285714Y-158264342D02*
X223333333Y-158359580D01*
X223333333Y-158359580D02*
X223380952Y-158407200D01*
X223380952Y-158407200D02*
X223476190Y-158454819D01*
X223476190Y-158454819D02*
X223571428Y-158454819D01*
X223571428Y-158454819D02*
X223666666Y-158407200D01*
X223666666Y-158407200D02*
X223714285Y-158359580D01*
X223714285Y-158359580D02*
X223761904Y-158264342D01*
X223761904Y-158264342D02*
X223809523Y-158073866D01*
X223809523Y-158073866D02*
X223809523Y-157835771D01*
X223809523Y-157835771D02*
X223761904Y-157645295D01*
X223761904Y-157645295D02*
X223714285Y-157550057D01*
X223714285Y-157550057D02*
X223666666Y-157502438D01*
X223666666Y-157502438D02*
X223571428Y-157454819D01*
X212142857Y-153259580D02*
X212190476Y-153307200D01*
X212190476Y-153307200D02*
X212333333Y-153354819D01*
X212333333Y-153354819D02*
X212428571Y-153354819D01*
X212428571Y-153354819D02*
X212571428Y-153307200D01*
X212571428Y-153307200D02*
X212666666Y-153211961D01*
X212666666Y-153211961D02*
X212714285Y-153116723D01*
X212714285Y-153116723D02*
X212761904Y-152926247D01*
X212761904Y-152926247D02*
X212761904Y-152783390D01*
X212761904Y-152783390D02*
X212714285Y-152592914D01*
X212714285Y-152592914D02*
X212666666Y-152497676D01*
X212666666Y-152497676D02*
X212571428Y-152402438D01*
X212571428Y-152402438D02*
X212428571Y-152354819D01*
X212428571Y-152354819D02*
X212333333Y-152354819D01*
X212333333Y-152354819D02*
X212190476Y-152402438D01*
X212190476Y-152402438D02*
X212142857Y-152450057D01*
X211238095Y-152354819D02*
X211714285Y-152354819D01*
X211714285Y-152354819D02*
X211761904Y-152831009D01*
X211761904Y-152831009D02*
X211714285Y-152783390D01*
X211714285Y-152783390D02*
X211619047Y-152735771D01*
X211619047Y-152735771D02*
X211380952Y-152735771D01*
X211380952Y-152735771D02*
X211285714Y-152783390D01*
X211285714Y-152783390D02*
X211238095Y-152831009D01*
X211238095Y-152831009D02*
X211190476Y-152926247D01*
X211190476Y-152926247D02*
X211190476Y-153164342D01*
X211190476Y-153164342D02*
X211238095Y-153259580D01*
X211238095Y-153259580D02*
X211285714Y-153307200D01*
X211285714Y-153307200D02*
X211380952Y-153354819D01*
X211380952Y-153354819D02*
X211619047Y-153354819D01*
X211619047Y-153354819D02*
X211714285Y-153307200D01*
X211714285Y-153307200D02*
X211761904Y-153259580D01*
X210857142Y-152354819D02*
X210190476Y-152354819D01*
X210190476Y-152354819D02*
X210619047Y-153354819D01*
X198625819Y-151379142D02*
X198149628Y-151045809D01*
X198625819Y-150807714D02*
X197625819Y-150807714D01*
X197625819Y-150807714D02*
X197625819Y-151188666D01*
X197625819Y-151188666D02*
X197673438Y-151283904D01*
X197673438Y-151283904D02*
X197721057Y-151331523D01*
X197721057Y-151331523D02*
X197816295Y-151379142D01*
X197816295Y-151379142D02*
X197959152Y-151379142D01*
X197959152Y-151379142D02*
X198054390Y-151331523D01*
X198054390Y-151331523D02*
X198102009Y-151283904D01*
X198102009Y-151283904D02*
X198149628Y-151188666D01*
X198149628Y-151188666D02*
X198149628Y-150807714D01*
X198625819Y-152331523D02*
X198625819Y-151760095D01*
X198625819Y-152045809D02*
X197625819Y-152045809D01*
X197625819Y-152045809D02*
X197768676Y-151950571D01*
X197768676Y-151950571D02*
X197863914Y-151855333D01*
X197863914Y-151855333D02*
X197911533Y-151760095D01*
X198054390Y-152902952D02*
X198006771Y-152807714D01*
X198006771Y-152807714D02*
X197959152Y-152760095D01*
X197959152Y-152760095D02*
X197863914Y-152712476D01*
X197863914Y-152712476D02*
X197816295Y-152712476D01*
X197816295Y-152712476D02*
X197721057Y-152760095D01*
X197721057Y-152760095D02*
X197673438Y-152807714D01*
X197673438Y-152807714D02*
X197625819Y-152902952D01*
X197625819Y-152902952D02*
X197625819Y-153093428D01*
X197625819Y-153093428D02*
X197673438Y-153188666D01*
X197673438Y-153188666D02*
X197721057Y-153236285D01*
X197721057Y-153236285D02*
X197816295Y-153283904D01*
X197816295Y-153283904D02*
X197863914Y-153283904D01*
X197863914Y-153283904D02*
X197959152Y-153236285D01*
X197959152Y-153236285D02*
X198006771Y-153188666D01*
X198006771Y-153188666D02*
X198054390Y-153093428D01*
X198054390Y-153093428D02*
X198054390Y-152902952D01*
X198054390Y-152902952D02*
X198102009Y-152807714D01*
X198102009Y-152807714D02*
X198149628Y-152760095D01*
X198149628Y-152760095D02*
X198244866Y-152712476D01*
X198244866Y-152712476D02*
X198435342Y-152712476D01*
X198435342Y-152712476D02*
X198530580Y-152760095D01*
X198530580Y-152760095D02*
X198578200Y-152807714D01*
X198578200Y-152807714D02*
X198625819Y-152902952D01*
X198625819Y-152902952D02*
X198625819Y-153093428D01*
X198625819Y-153093428D02*
X198578200Y-153188666D01*
X198578200Y-153188666D02*
X198530580Y-153236285D01*
X198530580Y-153236285D02*
X198435342Y-153283904D01*
X198435342Y-153283904D02*
X198244866Y-153283904D01*
X198244866Y-153283904D02*
X198149628Y-153236285D01*
X198149628Y-153236285D02*
X198102009Y-153188666D01*
X198102009Y-153188666D02*
X198054390Y-153093428D01*
X109001448Y-210377722D02*
X109001448Y-212523683D01*
X109001448Y-212523683D02*
X109144513Y-212952875D01*
X109144513Y-212952875D02*
X109430641Y-213239004D01*
X109430641Y-213239004D02*
X109859833Y-213382068D01*
X109859833Y-213382068D02*
X110145961Y-213382068D01*
X107713871Y-210663850D02*
X107570807Y-210520786D01*
X107570807Y-210520786D02*
X107284679Y-210377722D01*
X107284679Y-210377722D02*
X106569358Y-210377722D01*
X106569358Y-210377722D02*
X106283230Y-210520786D01*
X106283230Y-210520786D02*
X106140166Y-210663850D01*
X106140166Y-210663850D02*
X105997102Y-210949978D01*
X105997102Y-210949978D02*
X105997102Y-211236106D01*
X105997102Y-211236106D02*
X106140166Y-211665298D01*
X106140166Y-211665298D02*
X107856935Y-213382068D01*
X107856935Y-213382068D02*
X105997102Y-213382068D01*
X218659580Y-160757142D02*
X218707200Y-160709523D01*
X218707200Y-160709523D02*
X218754819Y-160566666D01*
X218754819Y-160566666D02*
X218754819Y-160471428D01*
X218754819Y-160471428D02*
X218707200Y-160328571D01*
X218707200Y-160328571D02*
X218611961Y-160233333D01*
X218611961Y-160233333D02*
X218516723Y-160185714D01*
X218516723Y-160185714D02*
X218326247Y-160138095D01*
X218326247Y-160138095D02*
X218183390Y-160138095D01*
X218183390Y-160138095D02*
X217992914Y-160185714D01*
X217992914Y-160185714D02*
X217897676Y-160233333D01*
X217897676Y-160233333D02*
X217802438Y-160328571D01*
X217802438Y-160328571D02*
X217754819Y-160471428D01*
X217754819Y-160471428D02*
X217754819Y-160566666D01*
X217754819Y-160566666D02*
X217802438Y-160709523D01*
X217802438Y-160709523D02*
X217850057Y-160757142D01*
X218754819Y-161709523D02*
X218754819Y-161138095D01*
X218754819Y-161423809D02*
X217754819Y-161423809D01*
X217754819Y-161423809D02*
X217897676Y-161328571D01*
X217897676Y-161328571D02*
X217992914Y-161233333D01*
X217992914Y-161233333D02*
X218040533Y-161138095D01*
X218754819Y-162185714D02*
X218754819Y-162376190D01*
X218754819Y-162376190D02*
X218707200Y-162471428D01*
X218707200Y-162471428D02*
X218659580Y-162519047D01*
X218659580Y-162519047D02*
X218516723Y-162614285D01*
X218516723Y-162614285D02*
X218326247Y-162661904D01*
X218326247Y-162661904D02*
X217945295Y-162661904D01*
X217945295Y-162661904D02*
X217850057Y-162614285D01*
X217850057Y-162614285D02*
X217802438Y-162566666D01*
X217802438Y-162566666D02*
X217754819Y-162471428D01*
X217754819Y-162471428D02*
X217754819Y-162280952D01*
X217754819Y-162280952D02*
X217802438Y-162185714D01*
X217802438Y-162185714D02*
X217850057Y-162138095D01*
X217850057Y-162138095D02*
X217945295Y-162090476D01*
X217945295Y-162090476D02*
X218183390Y-162090476D01*
X218183390Y-162090476D02*
X218278628Y-162138095D01*
X218278628Y-162138095D02*
X218326247Y-162185714D01*
X218326247Y-162185714D02*
X218373866Y-162280952D01*
X218373866Y-162280952D02*
X218373866Y-162471428D01*
X218373866Y-162471428D02*
X218326247Y-162566666D01*
X218326247Y-162566666D02*
X218278628Y-162614285D01*
X218278628Y-162614285D02*
X218183390Y-162661904D01*
X202213580Y-146934142D02*
X202261200Y-146886523D01*
X202261200Y-146886523D02*
X202308819Y-146743666D01*
X202308819Y-146743666D02*
X202308819Y-146648428D01*
X202308819Y-146648428D02*
X202261200Y-146505571D01*
X202261200Y-146505571D02*
X202165961Y-146410333D01*
X202165961Y-146410333D02*
X202070723Y-146362714D01*
X202070723Y-146362714D02*
X201880247Y-146315095D01*
X201880247Y-146315095D02*
X201737390Y-146315095D01*
X201737390Y-146315095D02*
X201546914Y-146362714D01*
X201546914Y-146362714D02*
X201451676Y-146410333D01*
X201451676Y-146410333D02*
X201356438Y-146505571D01*
X201356438Y-146505571D02*
X201308819Y-146648428D01*
X201308819Y-146648428D02*
X201308819Y-146743666D01*
X201308819Y-146743666D02*
X201356438Y-146886523D01*
X201356438Y-146886523D02*
X201404057Y-146934142D01*
X201404057Y-147315095D02*
X201356438Y-147362714D01*
X201356438Y-147362714D02*
X201308819Y-147457952D01*
X201308819Y-147457952D02*
X201308819Y-147696047D01*
X201308819Y-147696047D02*
X201356438Y-147791285D01*
X201356438Y-147791285D02*
X201404057Y-147838904D01*
X201404057Y-147838904D02*
X201499295Y-147886523D01*
X201499295Y-147886523D02*
X201594533Y-147886523D01*
X201594533Y-147886523D02*
X201737390Y-147838904D01*
X201737390Y-147838904D02*
X202308819Y-147267476D01*
X202308819Y-147267476D02*
X202308819Y-147886523D01*
X201737390Y-148457952D02*
X201689771Y-148362714D01*
X201689771Y-148362714D02*
X201642152Y-148315095D01*
X201642152Y-148315095D02*
X201546914Y-148267476D01*
X201546914Y-148267476D02*
X201499295Y-148267476D01*
X201499295Y-148267476D02*
X201404057Y-148315095D01*
X201404057Y-148315095D02*
X201356438Y-148362714D01*
X201356438Y-148362714D02*
X201308819Y-148457952D01*
X201308819Y-148457952D02*
X201308819Y-148648428D01*
X201308819Y-148648428D02*
X201356438Y-148743666D01*
X201356438Y-148743666D02*
X201404057Y-148791285D01*
X201404057Y-148791285D02*
X201499295Y-148838904D01*
X201499295Y-148838904D02*
X201546914Y-148838904D01*
X201546914Y-148838904D02*
X201642152Y-148791285D01*
X201642152Y-148791285D02*
X201689771Y-148743666D01*
X201689771Y-148743666D02*
X201737390Y-148648428D01*
X201737390Y-148648428D02*
X201737390Y-148457952D01*
X201737390Y-148457952D02*
X201785009Y-148362714D01*
X201785009Y-148362714D02*
X201832628Y-148315095D01*
X201832628Y-148315095D02*
X201927866Y-148267476D01*
X201927866Y-148267476D02*
X202118342Y-148267476D01*
X202118342Y-148267476D02*
X202213580Y-148315095D01*
X202213580Y-148315095D02*
X202261200Y-148362714D01*
X202261200Y-148362714D02*
X202308819Y-148457952D01*
X202308819Y-148457952D02*
X202308819Y-148648428D01*
X202308819Y-148648428D02*
X202261200Y-148743666D01*
X202261200Y-148743666D02*
X202213580Y-148791285D01*
X202213580Y-148791285D02*
X202118342Y-148838904D01*
X202118342Y-148838904D02*
X201927866Y-148838904D01*
X201927866Y-148838904D02*
X201832628Y-148791285D01*
X201832628Y-148791285D02*
X201785009Y-148743666D01*
X201785009Y-148743666D02*
X201737390Y-148648428D01*
X202731666Y-141173819D02*
X203207856Y-141173819D01*
X203207856Y-141173819D02*
X203207856Y-140173819D01*
X201969761Y-140507152D02*
X201969761Y-141173819D01*
X202207856Y-140126200D02*
X202445951Y-140840485D01*
X202445951Y-140840485D02*
X201826904Y-140840485D01*
X196593819Y-151379142D02*
X196117628Y-151045809D01*
X196593819Y-150807714D02*
X195593819Y-150807714D01*
X195593819Y-150807714D02*
X195593819Y-151188666D01*
X195593819Y-151188666D02*
X195641438Y-151283904D01*
X195641438Y-151283904D02*
X195689057Y-151331523D01*
X195689057Y-151331523D02*
X195784295Y-151379142D01*
X195784295Y-151379142D02*
X195927152Y-151379142D01*
X195927152Y-151379142D02*
X196022390Y-151331523D01*
X196022390Y-151331523D02*
X196070009Y-151283904D01*
X196070009Y-151283904D02*
X196117628Y-151188666D01*
X196117628Y-151188666D02*
X196117628Y-150807714D01*
X196593819Y-152331523D02*
X196593819Y-151760095D01*
X196593819Y-152045809D02*
X195593819Y-152045809D01*
X195593819Y-152045809D02*
X195736676Y-151950571D01*
X195736676Y-151950571D02*
X195831914Y-151855333D01*
X195831914Y-151855333D02*
X195879533Y-151760095D01*
X195689057Y-152712476D02*
X195641438Y-152760095D01*
X195641438Y-152760095D02*
X195593819Y-152855333D01*
X195593819Y-152855333D02*
X195593819Y-153093428D01*
X195593819Y-153093428D02*
X195641438Y-153188666D01*
X195641438Y-153188666D02*
X195689057Y-153236285D01*
X195689057Y-153236285D02*
X195784295Y-153283904D01*
X195784295Y-153283904D02*
X195879533Y-153283904D01*
X195879533Y-153283904D02*
X196022390Y-153236285D01*
X196022390Y-153236285D02*
X196593819Y-152664857D01*
X196593819Y-152664857D02*
X196593819Y-153283904D01*
X217159580Y-160757142D02*
X217207200Y-160709523D01*
X217207200Y-160709523D02*
X217254819Y-160566666D01*
X217254819Y-160566666D02*
X217254819Y-160471428D01*
X217254819Y-160471428D02*
X217207200Y-160328571D01*
X217207200Y-160328571D02*
X217111961Y-160233333D01*
X217111961Y-160233333D02*
X217016723Y-160185714D01*
X217016723Y-160185714D02*
X216826247Y-160138095D01*
X216826247Y-160138095D02*
X216683390Y-160138095D01*
X216683390Y-160138095D02*
X216492914Y-160185714D01*
X216492914Y-160185714D02*
X216397676Y-160233333D01*
X216397676Y-160233333D02*
X216302438Y-160328571D01*
X216302438Y-160328571D02*
X216254819Y-160471428D01*
X216254819Y-160471428D02*
X216254819Y-160566666D01*
X216254819Y-160566666D02*
X216302438Y-160709523D01*
X216302438Y-160709523D02*
X216350057Y-160757142D01*
X216588152Y-161614285D02*
X217254819Y-161614285D01*
X216207200Y-161376190D02*
X216921485Y-161138095D01*
X216921485Y-161138095D02*
X216921485Y-161757142D01*
X216350057Y-162090476D02*
X216302438Y-162138095D01*
X216302438Y-162138095D02*
X216254819Y-162233333D01*
X216254819Y-162233333D02*
X216254819Y-162471428D01*
X216254819Y-162471428D02*
X216302438Y-162566666D01*
X216302438Y-162566666D02*
X216350057Y-162614285D01*
X216350057Y-162614285D02*
X216445295Y-162661904D01*
X216445295Y-162661904D02*
X216540533Y-162661904D01*
X216540533Y-162661904D02*
X216683390Y-162614285D01*
X216683390Y-162614285D02*
X217254819Y-162042857D01*
X217254819Y-162042857D02*
X217254819Y-162661904D01*
X233479166Y-170126819D02*
X233955356Y-170126819D01*
X233955356Y-170126819D02*
X233955356Y-169126819D01*
X232717261Y-169126819D02*
X232907737Y-169126819D01*
X232907737Y-169126819D02*
X233002975Y-169174438D01*
X233002975Y-169174438D02*
X233050594Y-169222057D01*
X233050594Y-169222057D02*
X233145832Y-169364914D01*
X233145832Y-169364914D02*
X233193451Y-169555390D01*
X233193451Y-169555390D02*
X233193451Y-169936342D01*
X233193451Y-169936342D02*
X233145832Y-170031580D01*
X233145832Y-170031580D02*
X233098213Y-170079200D01*
X233098213Y-170079200D02*
X233002975Y-170126819D01*
X233002975Y-170126819D02*
X232812499Y-170126819D01*
X232812499Y-170126819D02*
X232717261Y-170079200D01*
X232717261Y-170079200D02*
X232669642Y-170031580D01*
X232669642Y-170031580D02*
X232622023Y-169936342D01*
X232622023Y-169936342D02*
X232622023Y-169698247D01*
X232622023Y-169698247D02*
X232669642Y-169603009D01*
X232669642Y-169603009D02*
X232717261Y-169555390D01*
X232717261Y-169555390D02*
X232812499Y-169507771D01*
X232812499Y-169507771D02*
X233002975Y-169507771D01*
X233002975Y-169507771D02*
X233098213Y-169555390D01*
X233098213Y-169555390D02*
X233145832Y-169603009D01*
X233145832Y-169603009D02*
X233193451Y-169698247D01*
X206912580Y-133980142D02*
X206960200Y-133932523D01*
X206960200Y-133932523D02*
X207007819Y-133789666D01*
X207007819Y-133789666D02*
X207007819Y-133694428D01*
X207007819Y-133694428D02*
X206960200Y-133551571D01*
X206960200Y-133551571D02*
X206864961Y-133456333D01*
X206864961Y-133456333D02*
X206769723Y-133408714D01*
X206769723Y-133408714D02*
X206579247Y-133361095D01*
X206579247Y-133361095D02*
X206436390Y-133361095D01*
X206436390Y-133361095D02*
X206245914Y-133408714D01*
X206245914Y-133408714D02*
X206150676Y-133456333D01*
X206150676Y-133456333D02*
X206055438Y-133551571D01*
X206055438Y-133551571D02*
X206007819Y-133694428D01*
X206007819Y-133694428D02*
X206007819Y-133789666D01*
X206007819Y-133789666D02*
X206055438Y-133932523D01*
X206055438Y-133932523D02*
X206103057Y-133980142D01*
X206007819Y-134313476D02*
X206007819Y-134932523D01*
X206007819Y-134932523D02*
X206388771Y-134599190D01*
X206388771Y-134599190D02*
X206388771Y-134742047D01*
X206388771Y-134742047D02*
X206436390Y-134837285D01*
X206436390Y-134837285D02*
X206484009Y-134884904D01*
X206484009Y-134884904D02*
X206579247Y-134932523D01*
X206579247Y-134932523D02*
X206817342Y-134932523D01*
X206817342Y-134932523D02*
X206912580Y-134884904D01*
X206912580Y-134884904D02*
X206960200Y-134837285D01*
X206960200Y-134837285D02*
X207007819Y-134742047D01*
X207007819Y-134742047D02*
X207007819Y-134456333D01*
X207007819Y-134456333D02*
X206960200Y-134361095D01*
X206960200Y-134361095D02*
X206912580Y-134313476D01*
X206007819Y-135789666D02*
X206007819Y-135599190D01*
X206007819Y-135599190D02*
X206055438Y-135503952D01*
X206055438Y-135503952D02*
X206103057Y-135456333D01*
X206103057Y-135456333D02*
X206245914Y-135361095D01*
X206245914Y-135361095D02*
X206436390Y-135313476D01*
X206436390Y-135313476D02*
X206817342Y-135313476D01*
X206817342Y-135313476D02*
X206912580Y-135361095D01*
X206912580Y-135361095D02*
X206960200Y-135408714D01*
X206960200Y-135408714D02*
X207007819Y-135503952D01*
X207007819Y-135503952D02*
X207007819Y-135694428D01*
X207007819Y-135694428D02*
X206960200Y-135789666D01*
X206960200Y-135789666D02*
X206912580Y-135837285D01*
X206912580Y-135837285D02*
X206817342Y-135884904D01*
X206817342Y-135884904D02*
X206579247Y-135884904D01*
X206579247Y-135884904D02*
X206484009Y-135837285D01*
X206484009Y-135837285D02*
X206436390Y-135789666D01*
X206436390Y-135789666D02*
X206388771Y-135694428D01*
X206388771Y-135694428D02*
X206388771Y-135503952D01*
X206388771Y-135503952D02*
X206436390Y-135408714D01*
X206436390Y-135408714D02*
X206484009Y-135361095D01*
X206484009Y-135361095D02*
X206579247Y-135313476D01*
X210642857Y-141859580D02*
X210690476Y-141907200D01*
X210690476Y-141907200D02*
X210833333Y-141954819D01*
X210833333Y-141954819D02*
X210928571Y-141954819D01*
X210928571Y-141954819D02*
X211071428Y-141907200D01*
X211071428Y-141907200D02*
X211166666Y-141811961D01*
X211166666Y-141811961D02*
X211214285Y-141716723D01*
X211214285Y-141716723D02*
X211261904Y-141526247D01*
X211261904Y-141526247D02*
X211261904Y-141383390D01*
X211261904Y-141383390D02*
X211214285Y-141192914D01*
X211214285Y-141192914D02*
X211166666Y-141097676D01*
X211166666Y-141097676D02*
X211071428Y-141002438D01*
X211071428Y-141002438D02*
X210928571Y-140954819D01*
X210928571Y-140954819D02*
X210833333Y-140954819D01*
X210833333Y-140954819D02*
X210690476Y-141002438D01*
X210690476Y-141002438D02*
X210642857Y-141050057D01*
X210261904Y-141050057D02*
X210214285Y-141002438D01*
X210214285Y-141002438D02*
X210119047Y-140954819D01*
X210119047Y-140954819D02*
X209880952Y-140954819D01*
X209880952Y-140954819D02*
X209785714Y-141002438D01*
X209785714Y-141002438D02*
X209738095Y-141050057D01*
X209738095Y-141050057D02*
X209690476Y-141145295D01*
X209690476Y-141145295D02*
X209690476Y-141240533D01*
X209690476Y-141240533D02*
X209738095Y-141383390D01*
X209738095Y-141383390D02*
X210309523Y-141954819D01*
X210309523Y-141954819D02*
X209690476Y-141954819D01*
X208833333Y-141288152D02*
X208833333Y-141954819D01*
X209071428Y-140907200D02*
X209309523Y-141621485D01*
X209309523Y-141621485D02*
X208690476Y-141621485D01*
X223189904Y-134077819D02*
X223189904Y-134887342D01*
X223189904Y-134887342D02*
X223142285Y-134982580D01*
X223142285Y-134982580D02*
X223094666Y-135030200D01*
X223094666Y-135030200D02*
X222999428Y-135077819D01*
X222999428Y-135077819D02*
X222808952Y-135077819D01*
X222808952Y-135077819D02*
X222713714Y-135030200D01*
X222713714Y-135030200D02*
X222666095Y-134982580D01*
X222666095Y-134982580D02*
X222618476Y-134887342D01*
X222618476Y-134887342D02*
X222618476Y-134077819D01*
X222094666Y-135077819D02*
X221904190Y-135077819D01*
X221904190Y-135077819D02*
X221808952Y-135030200D01*
X221808952Y-135030200D02*
X221761333Y-134982580D01*
X221761333Y-134982580D02*
X221666095Y-134839723D01*
X221666095Y-134839723D02*
X221618476Y-134649247D01*
X221618476Y-134649247D02*
X221618476Y-134268295D01*
X221618476Y-134268295D02*
X221666095Y-134173057D01*
X221666095Y-134173057D02*
X221713714Y-134125438D01*
X221713714Y-134125438D02*
X221808952Y-134077819D01*
X221808952Y-134077819D02*
X221999428Y-134077819D01*
X221999428Y-134077819D02*
X222094666Y-134125438D01*
X222094666Y-134125438D02*
X222142285Y-134173057D01*
X222142285Y-134173057D02*
X222189904Y-134268295D01*
X222189904Y-134268295D02*
X222189904Y-134506390D01*
X222189904Y-134506390D02*
X222142285Y-134601628D01*
X222142285Y-134601628D02*
X222094666Y-134649247D01*
X222094666Y-134649247D02*
X221999428Y-134696866D01*
X221999428Y-134696866D02*
X221808952Y-134696866D01*
X221808952Y-134696866D02*
X221713714Y-134649247D01*
X221713714Y-134649247D02*
X221666095Y-134601628D01*
X221666095Y-134601628D02*
X221618476Y-134506390D01*
X212142857Y-156659580D02*
X212190476Y-156707200D01*
X212190476Y-156707200D02*
X212333333Y-156754819D01*
X212333333Y-156754819D02*
X212428571Y-156754819D01*
X212428571Y-156754819D02*
X212571428Y-156707200D01*
X212571428Y-156707200D02*
X212666666Y-156611961D01*
X212666666Y-156611961D02*
X212714285Y-156516723D01*
X212714285Y-156516723D02*
X212761904Y-156326247D01*
X212761904Y-156326247D02*
X212761904Y-156183390D01*
X212761904Y-156183390D02*
X212714285Y-155992914D01*
X212714285Y-155992914D02*
X212666666Y-155897676D01*
X212666666Y-155897676D02*
X212571428Y-155802438D01*
X212571428Y-155802438D02*
X212428571Y-155754819D01*
X212428571Y-155754819D02*
X212333333Y-155754819D01*
X212333333Y-155754819D02*
X212190476Y-155802438D01*
X212190476Y-155802438D02*
X212142857Y-155850057D01*
X211809523Y-155754819D02*
X211190476Y-155754819D01*
X211190476Y-155754819D02*
X211523809Y-156135771D01*
X211523809Y-156135771D02*
X211380952Y-156135771D01*
X211380952Y-156135771D02*
X211285714Y-156183390D01*
X211285714Y-156183390D02*
X211238095Y-156231009D01*
X211238095Y-156231009D02*
X211190476Y-156326247D01*
X211190476Y-156326247D02*
X211190476Y-156564342D01*
X211190476Y-156564342D02*
X211238095Y-156659580D01*
X211238095Y-156659580D02*
X211285714Y-156707200D01*
X211285714Y-156707200D02*
X211380952Y-156754819D01*
X211380952Y-156754819D02*
X211666666Y-156754819D01*
X211666666Y-156754819D02*
X211761904Y-156707200D01*
X211761904Y-156707200D02*
X211809523Y-156659580D01*
X210809523Y-155850057D02*
X210761904Y-155802438D01*
X210761904Y-155802438D02*
X210666666Y-155754819D01*
X210666666Y-155754819D02*
X210428571Y-155754819D01*
X210428571Y-155754819D02*
X210333333Y-155802438D01*
X210333333Y-155802438D02*
X210285714Y-155850057D01*
X210285714Y-155850057D02*
X210238095Y-155945295D01*
X210238095Y-155945295D02*
X210238095Y-156040533D01*
X210238095Y-156040533D02*
X210285714Y-156183390D01*
X210285714Y-156183390D02*
X210857142Y-156754819D01*
X210857142Y-156754819D02*
X210238095Y-156754819D01*
X205388580Y-133980142D02*
X205436200Y-133932523D01*
X205436200Y-133932523D02*
X205483819Y-133789666D01*
X205483819Y-133789666D02*
X205483819Y-133694428D01*
X205483819Y-133694428D02*
X205436200Y-133551571D01*
X205436200Y-133551571D02*
X205340961Y-133456333D01*
X205340961Y-133456333D02*
X205245723Y-133408714D01*
X205245723Y-133408714D02*
X205055247Y-133361095D01*
X205055247Y-133361095D02*
X204912390Y-133361095D01*
X204912390Y-133361095D02*
X204721914Y-133408714D01*
X204721914Y-133408714D02*
X204626676Y-133456333D01*
X204626676Y-133456333D02*
X204531438Y-133551571D01*
X204531438Y-133551571D02*
X204483819Y-133694428D01*
X204483819Y-133694428D02*
X204483819Y-133789666D01*
X204483819Y-133789666D02*
X204531438Y-133932523D01*
X204531438Y-133932523D02*
X204579057Y-133980142D01*
X204483819Y-134313476D02*
X204483819Y-134932523D01*
X204483819Y-134932523D02*
X204864771Y-134599190D01*
X204864771Y-134599190D02*
X204864771Y-134742047D01*
X204864771Y-134742047D02*
X204912390Y-134837285D01*
X204912390Y-134837285D02*
X204960009Y-134884904D01*
X204960009Y-134884904D02*
X205055247Y-134932523D01*
X205055247Y-134932523D02*
X205293342Y-134932523D01*
X205293342Y-134932523D02*
X205388580Y-134884904D01*
X205388580Y-134884904D02*
X205436200Y-134837285D01*
X205436200Y-134837285D02*
X205483819Y-134742047D01*
X205483819Y-134742047D02*
X205483819Y-134456333D01*
X205483819Y-134456333D02*
X205436200Y-134361095D01*
X205436200Y-134361095D02*
X205388580Y-134313476D01*
X204483819Y-135837285D02*
X204483819Y-135361095D01*
X204483819Y-135361095D02*
X204960009Y-135313476D01*
X204960009Y-135313476D02*
X204912390Y-135361095D01*
X204912390Y-135361095D02*
X204864771Y-135456333D01*
X204864771Y-135456333D02*
X204864771Y-135694428D01*
X204864771Y-135694428D02*
X204912390Y-135789666D01*
X204912390Y-135789666D02*
X204960009Y-135837285D01*
X204960009Y-135837285D02*
X205055247Y-135884904D01*
X205055247Y-135884904D02*
X205293342Y-135884904D01*
X205293342Y-135884904D02*
X205388580Y-135837285D01*
X205388580Y-135837285D02*
X205436200Y-135789666D01*
X205436200Y-135789666D02*
X205483819Y-135694428D01*
X205483819Y-135694428D02*
X205483819Y-135456333D01*
X205483819Y-135456333D02*
X205436200Y-135361095D01*
X205436200Y-135361095D02*
X205388580Y-135313476D01*
X206242857Y-146659580D02*
X206290476Y-146707200D01*
X206290476Y-146707200D02*
X206433333Y-146754819D01*
X206433333Y-146754819D02*
X206528571Y-146754819D01*
X206528571Y-146754819D02*
X206671428Y-146707200D01*
X206671428Y-146707200D02*
X206766666Y-146611961D01*
X206766666Y-146611961D02*
X206814285Y-146516723D01*
X206814285Y-146516723D02*
X206861904Y-146326247D01*
X206861904Y-146326247D02*
X206861904Y-146183390D01*
X206861904Y-146183390D02*
X206814285Y-145992914D01*
X206814285Y-145992914D02*
X206766666Y-145897676D01*
X206766666Y-145897676D02*
X206671428Y-145802438D01*
X206671428Y-145802438D02*
X206528571Y-145754819D01*
X206528571Y-145754819D02*
X206433333Y-145754819D01*
X206433333Y-145754819D02*
X206290476Y-145802438D01*
X206290476Y-145802438D02*
X206242857Y-145850057D01*
X205861904Y-145850057D02*
X205814285Y-145802438D01*
X205814285Y-145802438D02*
X205719047Y-145754819D01*
X205719047Y-145754819D02*
X205480952Y-145754819D01*
X205480952Y-145754819D02*
X205385714Y-145802438D01*
X205385714Y-145802438D02*
X205338095Y-145850057D01*
X205338095Y-145850057D02*
X205290476Y-145945295D01*
X205290476Y-145945295D02*
X205290476Y-146040533D01*
X205290476Y-146040533D02*
X205338095Y-146183390D01*
X205338095Y-146183390D02*
X205909523Y-146754819D01*
X205909523Y-146754819D02*
X205290476Y-146754819D01*
X204957142Y-145754819D02*
X204290476Y-145754819D01*
X204290476Y-145754819D02*
X204719047Y-146754819D01*
X212559580Y-160757142D02*
X212607200Y-160709523D01*
X212607200Y-160709523D02*
X212654819Y-160566666D01*
X212654819Y-160566666D02*
X212654819Y-160471428D01*
X212654819Y-160471428D02*
X212607200Y-160328571D01*
X212607200Y-160328571D02*
X212511961Y-160233333D01*
X212511961Y-160233333D02*
X212416723Y-160185714D01*
X212416723Y-160185714D02*
X212226247Y-160138095D01*
X212226247Y-160138095D02*
X212083390Y-160138095D01*
X212083390Y-160138095D02*
X211892914Y-160185714D01*
X211892914Y-160185714D02*
X211797676Y-160233333D01*
X211797676Y-160233333D02*
X211702438Y-160328571D01*
X211702438Y-160328571D02*
X211654819Y-160471428D01*
X211654819Y-160471428D02*
X211654819Y-160566666D01*
X211654819Y-160566666D02*
X211702438Y-160709523D01*
X211702438Y-160709523D02*
X211750057Y-160757142D01*
X211654819Y-161090476D02*
X211654819Y-161709523D01*
X211654819Y-161709523D02*
X212035771Y-161376190D01*
X212035771Y-161376190D02*
X212035771Y-161519047D01*
X212035771Y-161519047D02*
X212083390Y-161614285D01*
X212083390Y-161614285D02*
X212131009Y-161661904D01*
X212131009Y-161661904D02*
X212226247Y-161709523D01*
X212226247Y-161709523D02*
X212464342Y-161709523D01*
X212464342Y-161709523D02*
X212559580Y-161661904D01*
X212559580Y-161661904D02*
X212607200Y-161614285D01*
X212607200Y-161614285D02*
X212654819Y-161519047D01*
X212654819Y-161519047D02*
X212654819Y-161233333D01*
X212654819Y-161233333D02*
X212607200Y-161138095D01*
X212607200Y-161138095D02*
X212559580Y-161090476D01*
X212654819Y-162185714D02*
X212654819Y-162376190D01*
X212654819Y-162376190D02*
X212607200Y-162471428D01*
X212607200Y-162471428D02*
X212559580Y-162519047D01*
X212559580Y-162519047D02*
X212416723Y-162614285D01*
X212416723Y-162614285D02*
X212226247Y-162661904D01*
X212226247Y-162661904D02*
X211845295Y-162661904D01*
X211845295Y-162661904D02*
X211750057Y-162614285D01*
X211750057Y-162614285D02*
X211702438Y-162566666D01*
X211702438Y-162566666D02*
X211654819Y-162471428D01*
X211654819Y-162471428D02*
X211654819Y-162280952D01*
X211654819Y-162280952D02*
X211702438Y-162185714D01*
X211702438Y-162185714D02*
X211750057Y-162138095D01*
X211750057Y-162138095D02*
X211845295Y-162090476D01*
X211845295Y-162090476D02*
X212083390Y-162090476D01*
X212083390Y-162090476D02*
X212178628Y-162138095D01*
X212178628Y-162138095D02*
X212226247Y-162185714D01*
X212226247Y-162185714D02*
X212273866Y-162280952D01*
X212273866Y-162280952D02*
X212273866Y-162471428D01*
X212273866Y-162471428D02*
X212226247Y-162566666D01*
X212226247Y-162566666D02*
X212178628Y-162614285D01*
X212178628Y-162614285D02*
X212083390Y-162661904D01*
X225142857Y-161659580D02*
X225190476Y-161707200D01*
X225190476Y-161707200D02*
X225333333Y-161754819D01*
X225333333Y-161754819D02*
X225428571Y-161754819D01*
X225428571Y-161754819D02*
X225571428Y-161707200D01*
X225571428Y-161707200D02*
X225666666Y-161611961D01*
X225666666Y-161611961D02*
X225714285Y-161516723D01*
X225714285Y-161516723D02*
X225761904Y-161326247D01*
X225761904Y-161326247D02*
X225761904Y-161183390D01*
X225761904Y-161183390D02*
X225714285Y-160992914D01*
X225714285Y-160992914D02*
X225666666Y-160897676D01*
X225666666Y-160897676D02*
X225571428Y-160802438D01*
X225571428Y-160802438D02*
X225428571Y-160754819D01*
X225428571Y-160754819D02*
X225333333Y-160754819D01*
X225333333Y-160754819D02*
X225190476Y-160802438D01*
X225190476Y-160802438D02*
X225142857Y-160850057D01*
X224761904Y-160850057D02*
X224714285Y-160802438D01*
X224714285Y-160802438D02*
X224619047Y-160754819D01*
X224619047Y-160754819D02*
X224380952Y-160754819D01*
X224380952Y-160754819D02*
X224285714Y-160802438D01*
X224285714Y-160802438D02*
X224238095Y-160850057D01*
X224238095Y-160850057D02*
X224190476Y-160945295D01*
X224190476Y-160945295D02*
X224190476Y-161040533D01*
X224190476Y-161040533D02*
X224238095Y-161183390D01*
X224238095Y-161183390D02*
X224809523Y-161754819D01*
X224809523Y-161754819D02*
X224190476Y-161754819D01*
X223714285Y-161754819D02*
X223523809Y-161754819D01*
X223523809Y-161754819D02*
X223428571Y-161707200D01*
X223428571Y-161707200D02*
X223380952Y-161659580D01*
X223380952Y-161659580D02*
X223285714Y-161516723D01*
X223285714Y-161516723D02*
X223238095Y-161326247D01*
X223238095Y-161326247D02*
X223238095Y-160945295D01*
X223238095Y-160945295D02*
X223285714Y-160850057D01*
X223285714Y-160850057D02*
X223333333Y-160802438D01*
X223333333Y-160802438D02*
X223428571Y-160754819D01*
X223428571Y-160754819D02*
X223619047Y-160754819D01*
X223619047Y-160754819D02*
X223714285Y-160802438D01*
X223714285Y-160802438D02*
X223761904Y-160850057D01*
X223761904Y-160850057D02*
X223809523Y-160945295D01*
X223809523Y-160945295D02*
X223809523Y-161183390D01*
X223809523Y-161183390D02*
X223761904Y-161278628D01*
X223761904Y-161278628D02*
X223714285Y-161326247D01*
X223714285Y-161326247D02*
X223619047Y-161373866D01*
X223619047Y-161373866D02*
X223428571Y-161373866D01*
X223428571Y-161373866D02*
X223333333Y-161326247D01*
X223333333Y-161326247D02*
X223285714Y-161278628D01*
X223285714Y-161278628D02*
X223238095Y-161183390D01*
X225142857Y-150659580D02*
X225190476Y-150707200D01*
X225190476Y-150707200D02*
X225333333Y-150754819D01*
X225333333Y-150754819D02*
X225428571Y-150754819D01*
X225428571Y-150754819D02*
X225571428Y-150707200D01*
X225571428Y-150707200D02*
X225666666Y-150611961D01*
X225666666Y-150611961D02*
X225714285Y-150516723D01*
X225714285Y-150516723D02*
X225761904Y-150326247D01*
X225761904Y-150326247D02*
X225761904Y-150183390D01*
X225761904Y-150183390D02*
X225714285Y-149992914D01*
X225714285Y-149992914D02*
X225666666Y-149897676D01*
X225666666Y-149897676D02*
X225571428Y-149802438D01*
X225571428Y-149802438D02*
X225428571Y-149754819D01*
X225428571Y-149754819D02*
X225333333Y-149754819D01*
X225333333Y-149754819D02*
X225190476Y-149802438D01*
X225190476Y-149802438D02*
X225142857Y-149850057D01*
X224761904Y-149850057D02*
X224714285Y-149802438D01*
X224714285Y-149802438D02*
X224619047Y-149754819D01*
X224619047Y-149754819D02*
X224380952Y-149754819D01*
X224380952Y-149754819D02*
X224285714Y-149802438D01*
X224285714Y-149802438D02*
X224238095Y-149850057D01*
X224238095Y-149850057D02*
X224190476Y-149945295D01*
X224190476Y-149945295D02*
X224190476Y-150040533D01*
X224190476Y-150040533D02*
X224238095Y-150183390D01*
X224238095Y-150183390D02*
X224809523Y-150754819D01*
X224809523Y-150754819D02*
X224190476Y-150754819D01*
X223238095Y-150754819D02*
X223809523Y-150754819D01*
X223523809Y-150754819D02*
X223523809Y-149754819D01*
X223523809Y-149754819D02*
X223619047Y-149897676D01*
X223619047Y-149897676D02*
X223714285Y-149992914D01*
X223714285Y-149992914D02*
X223809523Y-150040533D01*
X198625819Y-141727142D02*
X198149628Y-141393809D01*
X198625819Y-141155714D02*
X197625819Y-141155714D01*
X197625819Y-141155714D02*
X197625819Y-141536666D01*
X197625819Y-141536666D02*
X197673438Y-141631904D01*
X197673438Y-141631904D02*
X197721057Y-141679523D01*
X197721057Y-141679523D02*
X197816295Y-141727142D01*
X197816295Y-141727142D02*
X197959152Y-141727142D01*
X197959152Y-141727142D02*
X198054390Y-141679523D01*
X198054390Y-141679523D02*
X198102009Y-141631904D01*
X198102009Y-141631904D02*
X198149628Y-141536666D01*
X198149628Y-141536666D02*
X198149628Y-141155714D01*
X198625819Y-142679523D02*
X198625819Y-142108095D01*
X198625819Y-142393809D02*
X197625819Y-142393809D01*
X197625819Y-142393809D02*
X197768676Y-142298571D01*
X197768676Y-142298571D02*
X197863914Y-142203333D01*
X197863914Y-142203333D02*
X197911533Y-142108095D01*
X197625819Y-143012857D02*
X197625819Y-143679523D01*
X197625819Y-143679523D02*
X198625819Y-143250952D01*
X225142857Y-152359580D02*
X225190476Y-152407200D01*
X225190476Y-152407200D02*
X225333333Y-152454819D01*
X225333333Y-152454819D02*
X225428571Y-152454819D01*
X225428571Y-152454819D02*
X225571428Y-152407200D01*
X225571428Y-152407200D02*
X225666666Y-152311961D01*
X225666666Y-152311961D02*
X225714285Y-152216723D01*
X225714285Y-152216723D02*
X225761904Y-152026247D01*
X225761904Y-152026247D02*
X225761904Y-151883390D01*
X225761904Y-151883390D02*
X225714285Y-151692914D01*
X225714285Y-151692914D02*
X225666666Y-151597676D01*
X225666666Y-151597676D02*
X225571428Y-151502438D01*
X225571428Y-151502438D02*
X225428571Y-151454819D01*
X225428571Y-151454819D02*
X225333333Y-151454819D01*
X225333333Y-151454819D02*
X225190476Y-151502438D01*
X225190476Y-151502438D02*
X225142857Y-151550057D01*
X224285714Y-151788152D02*
X224285714Y-152454819D01*
X224523809Y-151407200D02*
X224761904Y-152121485D01*
X224761904Y-152121485D02*
X224142857Y-152121485D01*
X223333333Y-151454819D02*
X223523809Y-151454819D01*
X223523809Y-151454819D02*
X223619047Y-151502438D01*
X223619047Y-151502438D02*
X223666666Y-151550057D01*
X223666666Y-151550057D02*
X223761904Y-151692914D01*
X223761904Y-151692914D02*
X223809523Y-151883390D01*
X223809523Y-151883390D02*
X223809523Y-152264342D01*
X223809523Y-152264342D02*
X223761904Y-152359580D01*
X223761904Y-152359580D02*
X223714285Y-152407200D01*
X223714285Y-152407200D02*
X223619047Y-152454819D01*
X223619047Y-152454819D02*
X223428571Y-152454819D01*
X223428571Y-152454819D02*
X223333333Y-152407200D01*
X223333333Y-152407200D02*
X223285714Y-152359580D01*
X223285714Y-152359580D02*
X223238095Y-152264342D01*
X223238095Y-152264342D02*
X223238095Y-152026247D01*
X223238095Y-152026247D02*
X223285714Y-151931009D01*
X223285714Y-151931009D02*
X223333333Y-151883390D01*
X223333333Y-151883390D02*
X223428571Y-151835771D01*
X223428571Y-151835771D02*
X223619047Y-151835771D01*
X223619047Y-151835771D02*
X223714285Y-151883390D01*
X223714285Y-151883390D02*
X223761904Y-151931009D01*
X223761904Y-151931009D02*
X223809523Y-152026247D01*
X215559580Y-160757142D02*
X215607200Y-160709523D01*
X215607200Y-160709523D02*
X215654819Y-160566666D01*
X215654819Y-160566666D02*
X215654819Y-160471428D01*
X215654819Y-160471428D02*
X215607200Y-160328571D01*
X215607200Y-160328571D02*
X215511961Y-160233333D01*
X215511961Y-160233333D02*
X215416723Y-160185714D01*
X215416723Y-160185714D02*
X215226247Y-160138095D01*
X215226247Y-160138095D02*
X215083390Y-160138095D01*
X215083390Y-160138095D02*
X214892914Y-160185714D01*
X214892914Y-160185714D02*
X214797676Y-160233333D01*
X214797676Y-160233333D02*
X214702438Y-160328571D01*
X214702438Y-160328571D02*
X214654819Y-160471428D01*
X214654819Y-160471428D02*
X214654819Y-160566666D01*
X214654819Y-160566666D02*
X214702438Y-160709523D01*
X214702438Y-160709523D02*
X214750057Y-160757142D01*
X215654819Y-161709523D02*
X215654819Y-161138095D01*
X215654819Y-161423809D02*
X214654819Y-161423809D01*
X214654819Y-161423809D02*
X214797676Y-161328571D01*
X214797676Y-161328571D02*
X214892914Y-161233333D01*
X214892914Y-161233333D02*
X214940533Y-161138095D01*
X215083390Y-162280952D02*
X215035771Y-162185714D01*
X215035771Y-162185714D02*
X214988152Y-162138095D01*
X214988152Y-162138095D02*
X214892914Y-162090476D01*
X214892914Y-162090476D02*
X214845295Y-162090476D01*
X214845295Y-162090476D02*
X214750057Y-162138095D01*
X214750057Y-162138095D02*
X214702438Y-162185714D01*
X214702438Y-162185714D02*
X214654819Y-162280952D01*
X214654819Y-162280952D02*
X214654819Y-162471428D01*
X214654819Y-162471428D02*
X214702438Y-162566666D01*
X214702438Y-162566666D02*
X214750057Y-162614285D01*
X214750057Y-162614285D02*
X214845295Y-162661904D01*
X214845295Y-162661904D02*
X214892914Y-162661904D01*
X214892914Y-162661904D02*
X214988152Y-162614285D01*
X214988152Y-162614285D02*
X215035771Y-162566666D01*
X215035771Y-162566666D02*
X215083390Y-162471428D01*
X215083390Y-162471428D02*
X215083390Y-162280952D01*
X215083390Y-162280952D02*
X215131009Y-162185714D01*
X215131009Y-162185714D02*
X215178628Y-162138095D01*
X215178628Y-162138095D02*
X215273866Y-162090476D01*
X215273866Y-162090476D02*
X215464342Y-162090476D01*
X215464342Y-162090476D02*
X215559580Y-162138095D01*
X215559580Y-162138095D02*
X215607200Y-162185714D01*
X215607200Y-162185714D02*
X215654819Y-162280952D01*
X215654819Y-162280952D02*
X215654819Y-162471428D01*
X215654819Y-162471428D02*
X215607200Y-162566666D01*
X215607200Y-162566666D02*
X215559580Y-162614285D01*
X215559580Y-162614285D02*
X215464342Y-162661904D01*
X215464342Y-162661904D02*
X215273866Y-162661904D01*
X215273866Y-162661904D02*
X215178628Y-162614285D01*
X215178628Y-162614285D02*
X215131009Y-162566666D01*
X215131009Y-162566666D02*
X215083390Y-162471428D01*
X225142857Y-149259580D02*
X225190476Y-149307200D01*
X225190476Y-149307200D02*
X225333333Y-149354819D01*
X225333333Y-149354819D02*
X225428571Y-149354819D01*
X225428571Y-149354819D02*
X225571428Y-149307200D01*
X225571428Y-149307200D02*
X225666666Y-149211961D01*
X225666666Y-149211961D02*
X225714285Y-149116723D01*
X225714285Y-149116723D02*
X225761904Y-148926247D01*
X225761904Y-148926247D02*
X225761904Y-148783390D01*
X225761904Y-148783390D02*
X225714285Y-148592914D01*
X225714285Y-148592914D02*
X225666666Y-148497676D01*
X225666666Y-148497676D02*
X225571428Y-148402438D01*
X225571428Y-148402438D02*
X225428571Y-148354819D01*
X225428571Y-148354819D02*
X225333333Y-148354819D01*
X225333333Y-148354819D02*
X225190476Y-148402438D01*
X225190476Y-148402438D02*
X225142857Y-148450057D01*
X224285714Y-148688152D02*
X224285714Y-149354819D01*
X224523809Y-148307200D02*
X224761904Y-149021485D01*
X224761904Y-149021485D02*
X224142857Y-149021485D01*
X223857142Y-148354819D02*
X223190476Y-148354819D01*
X223190476Y-148354819D02*
X223619047Y-149354819D01*
X226539580Y-163857142D02*
X226587200Y-163809523D01*
X226587200Y-163809523D02*
X226634819Y-163666666D01*
X226634819Y-163666666D02*
X226634819Y-163571428D01*
X226634819Y-163571428D02*
X226587200Y-163428571D01*
X226587200Y-163428571D02*
X226491961Y-163333333D01*
X226491961Y-163333333D02*
X226396723Y-163285714D01*
X226396723Y-163285714D02*
X226206247Y-163238095D01*
X226206247Y-163238095D02*
X226063390Y-163238095D01*
X226063390Y-163238095D02*
X225872914Y-163285714D01*
X225872914Y-163285714D02*
X225777676Y-163333333D01*
X225777676Y-163333333D02*
X225682438Y-163428571D01*
X225682438Y-163428571D02*
X225634819Y-163571428D01*
X225634819Y-163571428D02*
X225634819Y-163666666D01*
X225634819Y-163666666D02*
X225682438Y-163809523D01*
X225682438Y-163809523D02*
X225730057Y-163857142D01*
X225634819Y-164190476D02*
X225634819Y-164809523D01*
X225634819Y-164809523D02*
X226015771Y-164476190D01*
X226015771Y-164476190D02*
X226015771Y-164619047D01*
X226015771Y-164619047D02*
X226063390Y-164714285D01*
X226063390Y-164714285D02*
X226111009Y-164761904D01*
X226111009Y-164761904D02*
X226206247Y-164809523D01*
X226206247Y-164809523D02*
X226444342Y-164809523D01*
X226444342Y-164809523D02*
X226539580Y-164761904D01*
X226539580Y-164761904D02*
X226587200Y-164714285D01*
X226587200Y-164714285D02*
X226634819Y-164619047D01*
X226634819Y-164619047D02*
X226634819Y-164333333D01*
X226634819Y-164333333D02*
X226587200Y-164238095D01*
X226587200Y-164238095D02*
X226539580Y-164190476D01*
X226634819Y-165761904D02*
X226634819Y-165190476D01*
X226634819Y-165476190D02*
X225634819Y-165476190D01*
X225634819Y-165476190D02*
X225777676Y-165380952D01*
X225777676Y-165380952D02*
X225872914Y-165285714D01*
X225872914Y-165285714D02*
X225920533Y-165190476D01*
X203864580Y-146934142D02*
X203912200Y-146886523D01*
X203912200Y-146886523D02*
X203959819Y-146743666D01*
X203959819Y-146743666D02*
X203959819Y-146648428D01*
X203959819Y-146648428D02*
X203912200Y-146505571D01*
X203912200Y-146505571D02*
X203816961Y-146410333D01*
X203816961Y-146410333D02*
X203721723Y-146362714D01*
X203721723Y-146362714D02*
X203531247Y-146315095D01*
X203531247Y-146315095D02*
X203388390Y-146315095D01*
X203388390Y-146315095D02*
X203197914Y-146362714D01*
X203197914Y-146362714D02*
X203102676Y-146410333D01*
X203102676Y-146410333D02*
X203007438Y-146505571D01*
X203007438Y-146505571D02*
X202959819Y-146648428D01*
X202959819Y-146648428D02*
X202959819Y-146743666D01*
X202959819Y-146743666D02*
X203007438Y-146886523D01*
X203007438Y-146886523D02*
X203055057Y-146934142D01*
X202959819Y-147267476D02*
X202959819Y-147886523D01*
X202959819Y-147886523D02*
X203340771Y-147553190D01*
X203340771Y-147553190D02*
X203340771Y-147696047D01*
X203340771Y-147696047D02*
X203388390Y-147791285D01*
X203388390Y-147791285D02*
X203436009Y-147838904D01*
X203436009Y-147838904D02*
X203531247Y-147886523D01*
X203531247Y-147886523D02*
X203769342Y-147886523D01*
X203769342Y-147886523D02*
X203864580Y-147838904D01*
X203864580Y-147838904D02*
X203912200Y-147791285D01*
X203912200Y-147791285D02*
X203959819Y-147696047D01*
X203959819Y-147696047D02*
X203959819Y-147410333D01*
X203959819Y-147410333D02*
X203912200Y-147315095D01*
X203912200Y-147315095D02*
X203864580Y-147267476D01*
X202959819Y-148219857D02*
X202959819Y-148838904D01*
X202959819Y-148838904D02*
X203340771Y-148505571D01*
X203340771Y-148505571D02*
X203340771Y-148648428D01*
X203340771Y-148648428D02*
X203388390Y-148743666D01*
X203388390Y-148743666D02*
X203436009Y-148791285D01*
X203436009Y-148791285D02*
X203531247Y-148838904D01*
X203531247Y-148838904D02*
X203769342Y-148838904D01*
X203769342Y-148838904D02*
X203864580Y-148791285D01*
X203864580Y-148791285D02*
X203912200Y-148743666D01*
X203912200Y-148743666D02*
X203959819Y-148648428D01*
X203959819Y-148648428D02*
X203959819Y-148362714D01*
X203959819Y-148362714D02*
X203912200Y-148267476D01*
X203912200Y-148267476D02*
X203864580Y-148219857D01*
X255536819Y-146381142D02*
X255060628Y-146047809D01*
X255536819Y-145809714D02*
X254536819Y-145809714D01*
X254536819Y-145809714D02*
X254536819Y-146190666D01*
X254536819Y-146190666D02*
X254584438Y-146285904D01*
X254584438Y-146285904D02*
X254632057Y-146333523D01*
X254632057Y-146333523D02*
X254727295Y-146381142D01*
X254727295Y-146381142D02*
X254870152Y-146381142D01*
X254870152Y-146381142D02*
X254965390Y-146333523D01*
X254965390Y-146333523D02*
X255013009Y-146285904D01*
X255013009Y-146285904D02*
X255060628Y-146190666D01*
X255060628Y-146190666D02*
X255060628Y-145809714D01*
X255536819Y-147333523D02*
X255536819Y-146762095D01*
X255536819Y-147047809D02*
X254536819Y-147047809D01*
X254536819Y-147047809D02*
X254679676Y-146952571D01*
X254679676Y-146952571D02*
X254774914Y-146857333D01*
X254774914Y-146857333D02*
X254822533Y-146762095D01*
X254536819Y-147666857D02*
X254536819Y-148285904D01*
X254536819Y-148285904D02*
X254917771Y-147952571D01*
X254917771Y-147952571D02*
X254917771Y-148095428D01*
X254917771Y-148095428D02*
X254965390Y-148190666D01*
X254965390Y-148190666D02*
X255013009Y-148238285D01*
X255013009Y-148238285D02*
X255108247Y-148285904D01*
X255108247Y-148285904D02*
X255346342Y-148285904D01*
X255346342Y-148285904D02*
X255441580Y-148238285D01*
X255441580Y-148238285D02*
X255489200Y-148190666D01*
X255489200Y-148190666D02*
X255536819Y-148095428D01*
X255536819Y-148095428D02*
X255536819Y-147809714D01*
X255536819Y-147809714D02*
X255489200Y-147714476D01*
X255489200Y-147714476D02*
X255441580Y-147666857D01*
X212142857Y-158259580D02*
X212190476Y-158307200D01*
X212190476Y-158307200D02*
X212333333Y-158354819D01*
X212333333Y-158354819D02*
X212428571Y-158354819D01*
X212428571Y-158354819D02*
X212571428Y-158307200D01*
X212571428Y-158307200D02*
X212666666Y-158211961D01*
X212666666Y-158211961D02*
X212714285Y-158116723D01*
X212714285Y-158116723D02*
X212761904Y-157926247D01*
X212761904Y-157926247D02*
X212761904Y-157783390D01*
X212761904Y-157783390D02*
X212714285Y-157592914D01*
X212714285Y-157592914D02*
X212666666Y-157497676D01*
X212666666Y-157497676D02*
X212571428Y-157402438D01*
X212571428Y-157402438D02*
X212428571Y-157354819D01*
X212428571Y-157354819D02*
X212333333Y-157354819D01*
X212333333Y-157354819D02*
X212190476Y-157402438D01*
X212190476Y-157402438D02*
X212142857Y-157450057D01*
X211238095Y-157354819D02*
X211714285Y-157354819D01*
X211714285Y-157354819D02*
X211761904Y-157831009D01*
X211761904Y-157831009D02*
X211714285Y-157783390D01*
X211714285Y-157783390D02*
X211619047Y-157735771D01*
X211619047Y-157735771D02*
X211380952Y-157735771D01*
X211380952Y-157735771D02*
X211285714Y-157783390D01*
X211285714Y-157783390D02*
X211238095Y-157831009D01*
X211238095Y-157831009D02*
X211190476Y-157926247D01*
X211190476Y-157926247D02*
X211190476Y-158164342D01*
X211190476Y-158164342D02*
X211238095Y-158259580D01*
X211238095Y-158259580D02*
X211285714Y-158307200D01*
X211285714Y-158307200D02*
X211380952Y-158354819D01*
X211380952Y-158354819D02*
X211619047Y-158354819D01*
X211619047Y-158354819D02*
X211714285Y-158307200D01*
X211714285Y-158307200D02*
X211761904Y-158259580D01*
X210619047Y-157783390D02*
X210714285Y-157735771D01*
X210714285Y-157735771D02*
X210761904Y-157688152D01*
X210761904Y-157688152D02*
X210809523Y-157592914D01*
X210809523Y-157592914D02*
X210809523Y-157545295D01*
X210809523Y-157545295D02*
X210761904Y-157450057D01*
X210761904Y-157450057D02*
X210714285Y-157402438D01*
X210714285Y-157402438D02*
X210619047Y-157354819D01*
X210619047Y-157354819D02*
X210428571Y-157354819D01*
X210428571Y-157354819D02*
X210333333Y-157402438D01*
X210333333Y-157402438D02*
X210285714Y-157450057D01*
X210285714Y-157450057D02*
X210238095Y-157545295D01*
X210238095Y-157545295D02*
X210238095Y-157592914D01*
X210238095Y-157592914D02*
X210285714Y-157688152D01*
X210285714Y-157688152D02*
X210333333Y-157735771D01*
X210333333Y-157735771D02*
X210428571Y-157783390D01*
X210428571Y-157783390D02*
X210619047Y-157783390D01*
X210619047Y-157783390D02*
X210714285Y-157831009D01*
X210714285Y-157831009D02*
X210761904Y-157878628D01*
X210761904Y-157878628D02*
X210809523Y-157973866D01*
X210809523Y-157973866D02*
X210809523Y-158164342D01*
X210809523Y-158164342D02*
X210761904Y-158259580D01*
X210761904Y-158259580D02*
X210714285Y-158307200D01*
X210714285Y-158307200D02*
X210619047Y-158354819D01*
X210619047Y-158354819D02*
X210428571Y-158354819D01*
X210428571Y-158354819D02*
X210333333Y-158307200D01*
X210333333Y-158307200D02*
X210285714Y-158259580D01*
X210285714Y-158259580D02*
X210238095Y-158164342D01*
X210238095Y-158164342D02*
X210238095Y-157973866D01*
X210238095Y-157973866D02*
X210285714Y-157878628D01*
X210285714Y-157878628D02*
X210333333Y-157831009D01*
X210333333Y-157831009D02*
X210428571Y-157783390D01*
X238287857Y-141254819D02*
X238621190Y-140778628D01*
X238859285Y-141254819D02*
X238859285Y-140254819D01*
X238859285Y-140254819D02*
X238478333Y-140254819D01*
X238478333Y-140254819D02*
X238383095Y-140302438D01*
X238383095Y-140302438D02*
X238335476Y-140350057D01*
X238335476Y-140350057D02*
X238287857Y-140445295D01*
X238287857Y-140445295D02*
X238287857Y-140588152D01*
X238287857Y-140588152D02*
X238335476Y-140683390D01*
X238335476Y-140683390D02*
X238383095Y-140731009D01*
X238383095Y-140731009D02*
X238478333Y-140778628D01*
X238478333Y-140778628D02*
X238859285Y-140778628D01*
X237335476Y-141254819D02*
X237906904Y-141254819D01*
X237621190Y-141254819D02*
X237621190Y-140254819D01*
X237621190Y-140254819D02*
X237716428Y-140397676D01*
X237716428Y-140397676D02*
X237811666Y-140492914D01*
X237811666Y-140492914D02*
X237906904Y-140540533D01*
X236478333Y-140254819D02*
X236668809Y-140254819D01*
X236668809Y-140254819D02*
X236764047Y-140302438D01*
X236764047Y-140302438D02*
X236811666Y-140350057D01*
X236811666Y-140350057D02*
X236906904Y-140492914D01*
X236906904Y-140492914D02*
X236954523Y-140683390D01*
X236954523Y-140683390D02*
X236954523Y-141064342D01*
X236954523Y-141064342D02*
X236906904Y-141159580D01*
X236906904Y-141159580D02*
X236859285Y-141207200D01*
X236859285Y-141207200D02*
X236764047Y-141254819D01*
X236764047Y-141254819D02*
X236573571Y-141254819D01*
X236573571Y-141254819D02*
X236478333Y-141207200D01*
X236478333Y-141207200D02*
X236430714Y-141159580D01*
X236430714Y-141159580D02*
X236383095Y-141064342D01*
X236383095Y-141064342D02*
X236383095Y-140826247D01*
X236383095Y-140826247D02*
X236430714Y-140731009D01*
X236430714Y-140731009D02*
X236478333Y-140683390D01*
X236478333Y-140683390D02*
X236573571Y-140635771D01*
X236573571Y-140635771D02*
X236764047Y-140635771D01*
X236764047Y-140635771D02*
X236859285Y-140683390D01*
X236859285Y-140683390D02*
X236906904Y-140731009D01*
X236906904Y-140731009D02*
X236954523Y-140826247D01*
X205906666Y-141884819D02*
X206382856Y-141884819D01*
X206382856Y-141884819D02*
X206382856Y-140884819D01*
X205097142Y-140884819D02*
X205573332Y-140884819D01*
X205573332Y-140884819D02*
X205620951Y-141361009D01*
X205620951Y-141361009D02*
X205573332Y-141313390D01*
X205573332Y-141313390D02*
X205478094Y-141265771D01*
X205478094Y-141265771D02*
X205239999Y-141265771D01*
X205239999Y-141265771D02*
X205144761Y-141313390D01*
X205144761Y-141313390D02*
X205097142Y-141361009D01*
X205097142Y-141361009D02*
X205049523Y-141456247D01*
X205049523Y-141456247D02*
X205049523Y-141694342D01*
X205049523Y-141694342D02*
X205097142Y-141789580D01*
X205097142Y-141789580D02*
X205144761Y-141837200D01*
X205144761Y-141837200D02*
X205239999Y-141884819D01*
X205239999Y-141884819D02*
X205478094Y-141884819D01*
X205478094Y-141884819D02*
X205573332Y-141837200D01*
X205573332Y-141837200D02*
X205620951Y-141789580D01*
X206142857Y-162059580D02*
X206190476Y-162107200D01*
X206190476Y-162107200D02*
X206333333Y-162154819D01*
X206333333Y-162154819D02*
X206428571Y-162154819D01*
X206428571Y-162154819D02*
X206571428Y-162107200D01*
X206571428Y-162107200D02*
X206666666Y-162011961D01*
X206666666Y-162011961D02*
X206714285Y-161916723D01*
X206714285Y-161916723D02*
X206761904Y-161726247D01*
X206761904Y-161726247D02*
X206761904Y-161583390D01*
X206761904Y-161583390D02*
X206714285Y-161392914D01*
X206714285Y-161392914D02*
X206666666Y-161297676D01*
X206666666Y-161297676D02*
X206571428Y-161202438D01*
X206571428Y-161202438D02*
X206428571Y-161154819D01*
X206428571Y-161154819D02*
X206333333Y-161154819D01*
X206333333Y-161154819D02*
X206190476Y-161202438D01*
X206190476Y-161202438D02*
X206142857Y-161250057D01*
X205238095Y-161154819D02*
X205714285Y-161154819D01*
X205714285Y-161154819D02*
X205761904Y-161631009D01*
X205761904Y-161631009D02*
X205714285Y-161583390D01*
X205714285Y-161583390D02*
X205619047Y-161535771D01*
X205619047Y-161535771D02*
X205380952Y-161535771D01*
X205380952Y-161535771D02*
X205285714Y-161583390D01*
X205285714Y-161583390D02*
X205238095Y-161631009D01*
X205238095Y-161631009D02*
X205190476Y-161726247D01*
X205190476Y-161726247D02*
X205190476Y-161964342D01*
X205190476Y-161964342D02*
X205238095Y-162059580D01*
X205238095Y-162059580D02*
X205285714Y-162107200D01*
X205285714Y-162107200D02*
X205380952Y-162154819D01*
X205380952Y-162154819D02*
X205619047Y-162154819D01*
X205619047Y-162154819D02*
X205714285Y-162107200D01*
X205714285Y-162107200D02*
X205761904Y-162059580D01*
X204714285Y-162154819D02*
X204523809Y-162154819D01*
X204523809Y-162154819D02*
X204428571Y-162107200D01*
X204428571Y-162107200D02*
X204380952Y-162059580D01*
X204380952Y-162059580D02*
X204285714Y-161916723D01*
X204285714Y-161916723D02*
X204238095Y-161726247D01*
X204238095Y-161726247D02*
X204238095Y-161345295D01*
X204238095Y-161345295D02*
X204285714Y-161250057D01*
X204285714Y-161250057D02*
X204333333Y-161202438D01*
X204333333Y-161202438D02*
X204428571Y-161154819D01*
X204428571Y-161154819D02*
X204619047Y-161154819D01*
X204619047Y-161154819D02*
X204714285Y-161202438D01*
X204714285Y-161202438D02*
X204761904Y-161250057D01*
X204761904Y-161250057D02*
X204809523Y-161345295D01*
X204809523Y-161345295D02*
X204809523Y-161583390D01*
X204809523Y-161583390D02*
X204761904Y-161678628D01*
X204761904Y-161678628D02*
X204714285Y-161726247D01*
X204714285Y-161726247D02*
X204619047Y-161773866D01*
X204619047Y-161773866D02*
X204428571Y-161773866D01*
X204428571Y-161773866D02*
X204333333Y-161726247D01*
X204333333Y-161726247D02*
X204285714Y-161678628D01*
X204285714Y-161678628D02*
X204238095Y-161583390D01*
X206042857Y-165259580D02*
X206090476Y-165307200D01*
X206090476Y-165307200D02*
X206233333Y-165354819D01*
X206233333Y-165354819D02*
X206328571Y-165354819D01*
X206328571Y-165354819D02*
X206471428Y-165307200D01*
X206471428Y-165307200D02*
X206566666Y-165211961D01*
X206566666Y-165211961D02*
X206614285Y-165116723D01*
X206614285Y-165116723D02*
X206661904Y-164926247D01*
X206661904Y-164926247D02*
X206661904Y-164783390D01*
X206661904Y-164783390D02*
X206614285Y-164592914D01*
X206614285Y-164592914D02*
X206566666Y-164497676D01*
X206566666Y-164497676D02*
X206471428Y-164402438D01*
X206471428Y-164402438D02*
X206328571Y-164354819D01*
X206328571Y-164354819D02*
X206233333Y-164354819D01*
X206233333Y-164354819D02*
X206090476Y-164402438D01*
X206090476Y-164402438D02*
X206042857Y-164450057D01*
X205709523Y-164354819D02*
X205090476Y-164354819D01*
X205090476Y-164354819D02*
X205423809Y-164735771D01*
X205423809Y-164735771D02*
X205280952Y-164735771D01*
X205280952Y-164735771D02*
X205185714Y-164783390D01*
X205185714Y-164783390D02*
X205138095Y-164831009D01*
X205138095Y-164831009D02*
X205090476Y-164926247D01*
X205090476Y-164926247D02*
X205090476Y-165164342D01*
X205090476Y-165164342D02*
X205138095Y-165259580D01*
X205138095Y-165259580D02*
X205185714Y-165307200D01*
X205185714Y-165307200D02*
X205280952Y-165354819D01*
X205280952Y-165354819D02*
X205566666Y-165354819D01*
X205566666Y-165354819D02*
X205661904Y-165307200D01*
X205661904Y-165307200D02*
X205709523Y-165259580D01*
X204757142Y-164354819D02*
X204090476Y-164354819D01*
X204090476Y-164354819D02*
X204519047Y-165354819D01*
X211159580Y-147857142D02*
X211207200Y-147809523D01*
X211207200Y-147809523D02*
X211254819Y-147666666D01*
X211254819Y-147666666D02*
X211254819Y-147571428D01*
X211254819Y-147571428D02*
X211207200Y-147428571D01*
X211207200Y-147428571D02*
X211111961Y-147333333D01*
X211111961Y-147333333D02*
X211016723Y-147285714D01*
X211016723Y-147285714D02*
X210826247Y-147238095D01*
X210826247Y-147238095D02*
X210683390Y-147238095D01*
X210683390Y-147238095D02*
X210492914Y-147285714D01*
X210492914Y-147285714D02*
X210397676Y-147333333D01*
X210397676Y-147333333D02*
X210302438Y-147428571D01*
X210302438Y-147428571D02*
X210254819Y-147571428D01*
X210254819Y-147571428D02*
X210254819Y-147666666D01*
X210254819Y-147666666D02*
X210302438Y-147809523D01*
X210302438Y-147809523D02*
X210350057Y-147857142D01*
X210254819Y-148761904D02*
X210254819Y-148285714D01*
X210254819Y-148285714D02*
X210731009Y-148238095D01*
X210731009Y-148238095D02*
X210683390Y-148285714D01*
X210683390Y-148285714D02*
X210635771Y-148380952D01*
X210635771Y-148380952D02*
X210635771Y-148619047D01*
X210635771Y-148619047D02*
X210683390Y-148714285D01*
X210683390Y-148714285D02*
X210731009Y-148761904D01*
X210731009Y-148761904D02*
X210826247Y-148809523D01*
X210826247Y-148809523D02*
X211064342Y-148809523D01*
X211064342Y-148809523D02*
X211159580Y-148761904D01*
X211159580Y-148761904D02*
X211207200Y-148714285D01*
X211207200Y-148714285D02*
X211254819Y-148619047D01*
X211254819Y-148619047D02*
X211254819Y-148380952D01*
X211254819Y-148380952D02*
X211207200Y-148285714D01*
X211207200Y-148285714D02*
X211159580Y-148238095D01*
X210588152Y-149666666D02*
X211254819Y-149666666D01*
X210207200Y-149428571D02*
X210921485Y-149190476D01*
X210921485Y-149190476D02*
X210921485Y-149809523D01*
X233023580Y-161917142D02*
X233071200Y-161869523D01*
X233071200Y-161869523D02*
X233118819Y-161726666D01*
X233118819Y-161726666D02*
X233118819Y-161631428D01*
X233118819Y-161631428D02*
X233071200Y-161488571D01*
X233071200Y-161488571D02*
X232975961Y-161393333D01*
X232975961Y-161393333D02*
X232880723Y-161345714D01*
X232880723Y-161345714D02*
X232690247Y-161298095D01*
X232690247Y-161298095D02*
X232547390Y-161298095D01*
X232547390Y-161298095D02*
X232356914Y-161345714D01*
X232356914Y-161345714D02*
X232261676Y-161393333D01*
X232261676Y-161393333D02*
X232166438Y-161488571D01*
X232166438Y-161488571D02*
X232118819Y-161631428D01*
X232118819Y-161631428D02*
X232118819Y-161726666D01*
X232118819Y-161726666D02*
X232166438Y-161869523D01*
X232166438Y-161869523D02*
X232214057Y-161917142D01*
X232452152Y-162774285D02*
X233118819Y-162774285D01*
X232071200Y-162536190D02*
X232785485Y-162298095D01*
X232785485Y-162298095D02*
X232785485Y-162917142D01*
X233118819Y-163821904D02*
X233118819Y-163250476D01*
X233118819Y-163536190D02*
X232118819Y-163536190D01*
X232118819Y-163536190D02*
X232261676Y-163440952D01*
X232261676Y-163440952D02*
X232356914Y-163345714D01*
X232356914Y-163345714D02*
X232404533Y-163250476D01*
X225142857Y-153759580D02*
X225190476Y-153807200D01*
X225190476Y-153807200D02*
X225333333Y-153854819D01*
X225333333Y-153854819D02*
X225428571Y-153854819D01*
X225428571Y-153854819D02*
X225571428Y-153807200D01*
X225571428Y-153807200D02*
X225666666Y-153711961D01*
X225666666Y-153711961D02*
X225714285Y-153616723D01*
X225714285Y-153616723D02*
X225761904Y-153426247D01*
X225761904Y-153426247D02*
X225761904Y-153283390D01*
X225761904Y-153283390D02*
X225714285Y-153092914D01*
X225714285Y-153092914D02*
X225666666Y-152997676D01*
X225666666Y-152997676D02*
X225571428Y-152902438D01*
X225571428Y-152902438D02*
X225428571Y-152854819D01*
X225428571Y-152854819D02*
X225333333Y-152854819D01*
X225333333Y-152854819D02*
X225190476Y-152902438D01*
X225190476Y-152902438D02*
X225142857Y-152950057D01*
X224761904Y-152950057D02*
X224714285Y-152902438D01*
X224714285Y-152902438D02*
X224619047Y-152854819D01*
X224619047Y-152854819D02*
X224380952Y-152854819D01*
X224380952Y-152854819D02*
X224285714Y-152902438D01*
X224285714Y-152902438D02*
X224238095Y-152950057D01*
X224238095Y-152950057D02*
X224190476Y-153045295D01*
X224190476Y-153045295D02*
X224190476Y-153140533D01*
X224190476Y-153140533D02*
X224238095Y-153283390D01*
X224238095Y-153283390D02*
X224809523Y-153854819D01*
X224809523Y-153854819D02*
X224190476Y-153854819D01*
X223809523Y-152950057D02*
X223761904Y-152902438D01*
X223761904Y-152902438D02*
X223666666Y-152854819D01*
X223666666Y-152854819D02*
X223428571Y-152854819D01*
X223428571Y-152854819D02*
X223333333Y-152902438D01*
X223333333Y-152902438D02*
X223285714Y-152950057D01*
X223285714Y-152950057D02*
X223238095Y-153045295D01*
X223238095Y-153045295D02*
X223238095Y-153140533D01*
X223238095Y-153140533D02*
X223285714Y-153283390D01*
X223285714Y-153283390D02*
X223857142Y-153854819D01*
X223857142Y-153854819D02*
X223238095Y-153854819D01*
X234547580Y-161917142D02*
X234595200Y-161869523D01*
X234595200Y-161869523D02*
X234642819Y-161726666D01*
X234642819Y-161726666D02*
X234642819Y-161631428D01*
X234642819Y-161631428D02*
X234595200Y-161488571D01*
X234595200Y-161488571D02*
X234499961Y-161393333D01*
X234499961Y-161393333D02*
X234404723Y-161345714D01*
X234404723Y-161345714D02*
X234214247Y-161298095D01*
X234214247Y-161298095D02*
X234071390Y-161298095D01*
X234071390Y-161298095D02*
X233880914Y-161345714D01*
X233880914Y-161345714D02*
X233785676Y-161393333D01*
X233785676Y-161393333D02*
X233690438Y-161488571D01*
X233690438Y-161488571D02*
X233642819Y-161631428D01*
X233642819Y-161631428D02*
X233642819Y-161726666D01*
X233642819Y-161726666D02*
X233690438Y-161869523D01*
X233690438Y-161869523D02*
X233738057Y-161917142D01*
X233642819Y-162250476D02*
X233642819Y-162869523D01*
X233642819Y-162869523D02*
X234023771Y-162536190D01*
X234023771Y-162536190D02*
X234023771Y-162679047D01*
X234023771Y-162679047D02*
X234071390Y-162774285D01*
X234071390Y-162774285D02*
X234119009Y-162821904D01*
X234119009Y-162821904D02*
X234214247Y-162869523D01*
X234214247Y-162869523D02*
X234452342Y-162869523D01*
X234452342Y-162869523D02*
X234547580Y-162821904D01*
X234547580Y-162821904D02*
X234595200Y-162774285D01*
X234595200Y-162774285D02*
X234642819Y-162679047D01*
X234642819Y-162679047D02*
X234642819Y-162393333D01*
X234642819Y-162393333D02*
X234595200Y-162298095D01*
X234595200Y-162298095D02*
X234547580Y-162250476D01*
X234071390Y-163440952D02*
X234023771Y-163345714D01*
X234023771Y-163345714D02*
X233976152Y-163298095D01*
X233976152Y-163298095D02*
X233880914Y-163250476D01*
X233880914Y-163250476D02*
X233833295Y-163250476D01*
X233833295Y-163250476D02*
X233738057Y-163298095D01*
X233738057Y-163298095D02*
X233690438Y-163345714D01*
X233690438Y-163345714D02*
X233642819Y-163440952D01*
X233642819Y-163440952D02*
X233642819Y-163631428D01*
X233642819Y-163631428D02*
X233690438Y-163726666D01*
X233690438Y-163726666D02*
X233738057Y-163774285D01*
X233738057Y-163774285D02*
X233833295Y-163821904D01*
X233833295Y-163821904D02*
X233880914Y-163821904D01*
X233880914Y-163821904D02*
X233976152Y-163774285D01*
X233976152Y-163774285D02*
X234023771Y-163726666D01*
X234023771Y-163726666D02*
X234071390Y-163631428D01*
X234071390Y-163631428D02*
X234071390Y-163440952D01*
X234071390Y-163440952D02*
X234119009Y-163345714D01*
X234119009Y-163345714D02*
X234166628Y-163298095D01*
X234166628Y-163298095D02*
X234261866Y-163250476D01*
X234261866Y-163250476D02*
X234452342Y-163250476D01*
X234452342Y-163250476D02*
X234547580Y-163298095D01*
X234547580Y-163298095D02*
X234595200Y-163345714D01*
X234595200Y-163345714D02*
X234642819Y-163440952D01*
X234642819Y-163440952D02*
X234642819Y-163631428D01*
X234642819Y-163631428D02*
X234595200Y-163726666D01*
X234595200Y-163726666D02*
X234547580Y-163774285D01*
X234547580Y-163774285D02*
X234452342Y-163821904D01*
X234452342Y-163821904D02*
X234261866Y-163821904D01*
X234261866Y-163821904D02*
X234166628Y-163774285D01*
X234166628Y-163774285D02*
X234119009Y-163726666D01*
X234119009Y-163726666D02*
X234071390Y-163631428D01*
X217359580Y-147857142D02*
X217407200Y-147809523D01*
X217407200Y-147809523D02*
X217454819Y-147666666D01*
X217454819Y-147666666D02*
X217454819Y-147571428D01*
X217454819Y-147571428D02*
X217407200Y-147428571D01*
X217407200Y-147428571D02*
X217311961Y-147333333D01*
X217311961Y-147333333D02*
X217216723Y-147285714D01*
X217216723Y-147285714D02*
X217026247Y-147238095D01*
X217026247Y-147238095D02*
X216883390Y-147238095D01*
X216883390Y-147238095D02*
X216692914Y-147285714D01*
X216692914Y-147285714D02*
X216597676Y-147333333D01*
X216597676Y-147333333D02*
X216502438Y-147428571D01*
X216502438Y-147428571D02*
X216454819Y-147571428D01*
X216454819Y-147571428D02*
X216454819Y-147666666D01*
X216454819Y-147666666D02*
X216502438Y-147809523D01*
X216502438Y-147809523D02*
X216550057Y-147857142D01*
X216454819Y-148761904D02*
X216454819Y-148285714D01*
X216454819Y-148285714D02*
X216931009Y-148238095D01*
X216931009Y-148238095D02*
X216883390Y-148285714D01*
X216883390Y-148285714D02*
X216835771Y-148380952D01*
X216835771Y-148380952D02*
X216835771Y-148619047D01*
X216835771Y-148619047D02*
X216883390Y-148714285D01*
X216883390Y-148714285D02*
X216931009Y-148761904D01*
X216931009Y-148761904D02*
X217026247Y-148809523D01*
X217026247Y-148809523D02*
X217264342Y-148809523D01*
X217264342Y-148809523D02*
X217359580Y-148761904D01*
X217359580Y-148761904D02*
X217407200Y-148714285D01*
X217407200Y-148714285D02*
X217454819Y-148619047D01*
X217454819Y-148619047D02*
X217454819Y-148380952D01*
X217454819Y-148380952D02*
X217407200Y-148285714D01*
X217407200Y-148285714D02*
X217359580Y-148238095D01*
X216550057Y-149190476D02*
X216502438Y-149238095D01*
X216502438Y-149238095D02*
X216454819Y-149333333D01*
X216454819Y-149333333D02*
X216454819Y-149571428D01*
X216454819Y-149571428D02*
X216502438Y-149666666D01*
X216502438Y-149666666D02*
X216550057Y-149714285D01*
X216550057Y-149714285D02*
X216645295Y-149761904D01*
X216645295Y-149761904D02*
X216740533Y-149761904D01*
X216740533Y-149761904D02*
X216883390Y-149714285D01*
X216883390Y-149714285D02*
X217454819Y-149142857D01*
X217454819Y-149142857D02*
X217454819Y-149761904D01*
X220659580Y-147857142D02*
X220707200Y-147809523D01*
X220707200Y-147809523D02*
X220754819Y-147666666D01*
X220754819Y-147666666D02*
X220754819Y-147571428D01*
X220754819Y-147571428D02*
X220707200Y-147428571D01*
X220707200Y-147428571D02*
X220611961Y-147333333D01*
X220611961Y-147333333D02*
X220516723Y-147285714D01*
X220516723Y-147285714D02*
X220326247Y-147238095D01*
X220326247Y-147238095D02*
X220183390Y-147238095D01*
X220183390Y-147238095D02*
X219992914Y-147285714D01*
X219992914Y-147285714D02*
X219897676Y-147333333D01*
X219897676Y-147333333D02*
X219802438Y-147428571D01*
X219802438Y-147428571D02*
X219754819Y-147571428D01*
X219754819Y-147571428D02*
X219754819Y-147666666D01*
X219754819Y-147666666D02*
X219802438Y-147809523D01*
X219802438Y-147809523D02*
X219850057Y-147857142D01*
X219754819Y-148761904D02*
X219754819Y-148285714D01*
X219754819Y-148285714D02*
X220231009Y-148238095D01*
X220231009Y-148238095D02*
X220183390Y-148285714D01*
X220183390Y-148285714D02*
X220135771Y-148380952D01*
X220135771Y-148380952D02*
X220135771Y-148619047D01*
X220135771Y-148619047D02*
X220183390Y-148714285D01*
X220183390Y-148714285D02*
X220231009Y-148761904D01*
X220231009Y-148761904D02*
X220326247Y-148809523D01*
X220326247Y-148809523D02*
X220564342Y-148809523D01*
X220564342Y-148809523D02*
X220659580Y-148761904D01*
X220659580Y-148761904D02*
X220707200Y-148714285D01*
X220707200Y-148714285D02*
X220754819Y-148619047D01*
X220754819Y-148619047D02*
X220754819Y-148380952D01*
X220754819Y-148380952D02*
X220707200Y-148285714D01*
X220707200Y-148285714D02*
X220659580Y-148238095D01*
X220754819Y-149761904D02*
X220754819Y-149190476D01*
X220754819Y-149476190D02*
X219754819Y-149476190D01*
X219754819Y-149476190D02*
X219897676Y-149380952D01*
X219897676Y-149380952D02*
X219992914Y-149285714D01*
X219992914Y-149285714D02*
X220040533Y-149190476D01*
X206042857Y-163759580D02*
X206090476Y-163807200D01*
X206090476Y-163807200D02*
X206233333Y-163854819D01*
X206233333Y-163854819D02*
X206328571Y-163854819D01*
X206328571Y-163854819D02*
X206471428Y-163807200D01*
X206471428Y-163807200D02*
X206566666Y-163711961D01*
X206566666Y-163711961D02*
X206614285Y-163616723D01*
X206614285Y-163616723D02*
X206661904Y-163426247D01*
X206661904Y-163426247D02*
X206661904Y-163283390D01*
X206661904Y-163283390D02*
X206614285Y-163092914D01*
X206614285Y-163092914D02*
X206566666Y-162997676D01*
X206566666Y-162997676D02*
X206471428Y-162902438D01*
X206471428Y-162902438D02*
X206328571Y-162854819D01*
X206328571Y-162854819D02*
X206233333Y-162854819D01*
X206233333Y-162854819D02*
X206090476Y-162902438D01*
X206090476Y-162902438D02*
X206042857Y-162950057D01*
X205709523Y-162854819D02*
X205090476Y-162854819D01*
X205090476Y-162854819D02*
X205423809Y-163235771D01*
X205423809Y-163235771D02*
X205280952Y-163235771D01*
X205280952Y-163235771D02*
X205185714Y-163283390D01*
X205185714Y-163283390D02*
X205138095Y-163331009D01*
X205138095Y-163331009D02*
X205090476Y-163426247D01*
X205090476Y-163426247D02*
X205090476Y-163664342D01*
X205090476Y-163664342D02*
X205138095Y-163759580D01*
X205138095Y-163759580D02*
X205185714Y-163807200D01*
X205185714Y-163807200D02*
X205280952Y-163854819D01*
X205280952Y-163854819D02*
X205566666Y-163854819D01*
X205566666Y-163854819D02*
X205661904Y-163807200D01*
X205661904Y-163807200D02*
X205709523Y-163759580D01*
X204233333Y-163188152D02*
X204233333Y-163854819D01*
X204471428Y-162807200D02*
X204709523Y-163521485D01*
X204709523Y-163521485D02*
X204090476Y-163521485D01*
X225142857Y-155459580D02*
X225190476Y-155507200D01*
X225190476Y-155507200D02*
X225333333Y-155554819D01*
X225333333Y-155554819D02*
X225428571Y-155554819D01*
X225428571Y-155554819D02*
X225571428Y-155507200D01*
X225571428Y-155507200D02*
X225666666Y-155411961D01*
X225666666Y-155411961D02*
X225714285Y-155316723D01*
X225714285Y-155316723D02*
X225761904Y-155126247D01*
X225761904Y-155126247D02*
X225761904Y-154983390D01*
X225761904Y-154983390D02*
X225714285Y-154792914D01*
X225714285Y-154792914D02*
X225666666Y-154697676D01*
X225666666Y-154697676D02*
X225571428Y-154602438D01*
X225571428Y-154602438D02*
X225428571Y-154554819D01*
X225428571Y-154554819D02*
X225333333Y-154554819D01*
X225333333Y-154554819D02*
X225190476Y-154602438D01*
X225190476Y-154602438D02*
X225142857Y-154650057D01*
X224285714Y-154888152D02*
X224285714Y-155554819D01*
X224523809Y-154507200D02*
X224761904Y-155221485D01*
X224761904Y-155221485D02*
X224142857Y-155221485D01*
X223285714Y-154554819D02*
X223761904Y-154554819D01*
X223761904Y-154554819D02*
X223809523Y-155031009D01*
X223809523Y-155031009D02*
X223761904Y-154983390D01*
X223761904Y-154983390D02*
X223666666Y-154935771D01*
X223666666Y-154935771D02*
X223428571Y-154935771D01*
X223428571Y-154935771D02*
X223333333Y-154983390D01*
X223333333Y-154983390D02*
X223285714Y-155031009D01*
X223285714Y-155031009D02*
X223238095Y-155126247D01*
X223238095Y-155126247D02*
X223238095Y-155364342D01*
X223238095Y-155364342D02*
X223285714Y-155459580D01*
X223285714Y-155459580D02*
X223333333Y-155507200D01*
X223333333Y-155507200D02*
X223428571Y-155554819D01*
X223428571Y-155554819D02*
X223666666Y-155554819D01*
X223666666Y-155554819D02*
X223761904Y-155507200D01*
X223761904Y-155507200D02*
X223809523Y-155459580D01*
X224159580Y-141857142D02*
X224207200Y-141809523D01*
X224207200Y-141809523D02*
X224254819Y-141666666D01*
X224254819Y-141666666D02*
X224254819Y-141571428D01*
X224254819Y-141571428D02*
X224207200Y-141428571D01*
X224207200Y-141428571D02*
X224111961Y-141333333D01*
X224111961Y-141333333D02*
X224016723Y-141285714D01*
X224016723Y-141285714D02*
X223826247Y-141238095D01*
X223826247Y-141238095D02*
X223683390Y-141238095D01*
X223683390Y-141238095D02*
X223492914Y-141285714D01*
X223492914Y-141285714D02*
X223397676Y-141333333D01*
X223397676Y-141333333D02*
X223302438Y-141428571D01*
X223302438Y-141428571D02*
X223254819Y-141571428D01*
X223254819Y-141571428D02*
X223254819Y-141666666D01*
X223254819Y-141666666D02*
X223302438Y-141809523D01*
X223302438Y-141809523D02*
X223350057Y-141857142D01*
X223254819Y-142761904D02*
X223254819Y-142285714D01*
X223254819Y-142285714D02*
X223731009Y-142238095D01*
X223731009Y-142238095D02*
X223683390Y-142285714D01*
X223683390Y-142285714D02*
X223635771Y-142380952D01*
X223635771Y-142380952D02*
X223635771Y-142619047D01*
X223635771Y-142619047D02*
X223683390Y-142714285D01*
X223683390Y-142714285D02*
X223731009Y-142761904D01*
X223731009Y-142761904D02*
X223826247Y-142809523D01*
X223826247Y-142809523D02*
X224064342Y-142809523D01*
X224064342Y-142809523D02*
X224159580Y-142761904D01*
X224159580Y-142761904D02*
X224207200Y-142714285D01*
X224207200Y-142714285D02*
X224254819Y-142619047D01*
X224254819Y-142619047D02*
X224254819Y-142380952D01*
X224254819Y-142380952D02*
X224207200Y-142285714D01*
X224207200Y-142285714D02*
X224159580Y-142238095D01*
X223254819Y-143428571D02*
X223254819Y-143523809D01*
X223254819Y-143523809D02*
X223302438Y-143619047D01*
X223302438Y-143619047D02*
X223350057Y-143666666D01*
X223350057Y-143666666D02*
X223445295Y-143714285D01*
X223445295Y-143714285D02*
X223635771Y-143761904D01*
X223635771Y-143761904D02*
X223873866Y-143761904D01*
X223873866Y-143761904D02*
X224064342Y-143714285D01*
X224064342Y-143714285D02*
X224159580Y-143666666D01*
X224159580Y-143666666D02*
X224207200Y-143619047D01*
X224207200Y-143619047D02*
X224254819Y-143523809D01*
X224254819Y-143523809D02*
X224254819Y-143428571D01*
X224254819Y-143428571D02*
X224207200Y-143333333D01*
X224207200Y-143333333D02*
X224159580Y-143285714D01*
X224159580Y-143285714D02*
X224064342Y-143238095D01*
X224064342Y-143238095D02*
X223873866Y-143190476D01*
X223873866Y-143190476D02*
X223635771Y-143190476D01*
X223635771Y-143190476D02*
X223445295Y-143238095D01*
X223445295Y-143238095D02*
X223350057Y-143285714D01*
X223350057Y-143285714D02*
X223302438Y-143333333D01*
X223302438Y-143333333D02*
X223254819Y-143428571D01*
X218928819Y-136771142D02*
X218452628Y-136437809D01*
X218928819Y-136199714D02*
X217928819Y-136199714D01*
X217928819Y-136199714D02*
X217928819Y-136580666D01*
X217928819Y-136580666D02*
X217976438Y-136675904D01*
X217976438Y-136675904D02*
X218024057Y-136723523D01*
X218024057Y-136723523D02*
X218119295Y-136771142D01*
X218119295Y-136771142D02*
X218262152Y-136771142D01*
X218262152Y-136771142D02*
X218357390Y-136723523D01*
X218357390Y-136723523D02*
X218405009Y-136675904D01*
X218405009Y-136675904D02*
X218452628Y-136580666D01*
X218452628Y-136580666D02*
X218452628Y-136199714D01*
X218928819Y-137723523D02*
X218928819Y-137152095D01*
X218928819Y-137437809D02*
X217928819Y-137437809D01*
X217928819Y-137437809D02*
X218071676Y-137342571D01*
X218071676Y-137342571D02*
X218166914Y-137247333D01*
X218166914Y-137247333D02*
X218214533Y-137152095D01*
X218928819Y-138199714D02*
X218928819Y-138390190D01*
X218928819Y-138390190D02*
X218881200Y-138485428D01*
X218881200Y-138485428D02*
X218833580Y-138533047D01*
X218833580Y-138533047D02*
X218690723Y-138628285D01*
X218690723Y-138628285D02*
X218500247Y-138675904D01*
X218500247Y-138675904D02*
X218119295Y-138675904D01*
X218119295Y-138675904D02*
X218024057Y-138628285D01*
X218024057Y-138628285D02*
X217976438Y-138580666D01*
X217976438Y-138580666D02*
X217928819Y-138485428D01*
X217928819Y-138485428D02*
X217928819Y-138294952D01*
X217928819Y-138294952D02*
X217976438Y-138199714D01*
X217976438Y-138199714D02*
X218024057Y-138152095D01*
X218024057Y-138152095D02*
X218119295Y-138104476D01*
X218119295Y-138104476D02*
X218357390Y-138104476D01*
X218357390Y-138104476D02*
X218452628Y-138152095D01*
X218452628Y-138152095D02*
X218500247Y-138199714D01*
X218500247Y-138199714D02*
X218547866Y-138294952D01*
X218547866Y-138294952D02*
X218547866Y-138485428D01*
X218547866Y-138485428D02*
X218500247Y-138580666D01*
X218500247Y-138580666D02*
X218452628Y-138628285D01*
X218452628Y-138628285D02*
X218357390Y-138675904D01*
X226893580Y-136771142D02*
X226941200Y-136723523D01*
X226941200Y-136723523D02*
X226988819Y-136580666D01*
X226988819Y-136580666D02*
X226988819Y-136485428D01*
X226988819Y-136485428D02*
X226941200Y-136342571D01*
X226941200Y-136342571D02*
X226845961Y-136247333D01*
X226845961Y-136247333D02*
X226750723Y-136199714D01*
X226750723Y-136199714D02*
X226560247Y-136152095D01*
X226560247Y-136152095D02*
X226417390Y-136152095D01*
X226417390Y-136152095D02*
X226226914Y-136199714D01*
X226226914Y-136199714D02*
X226131676Y-136247333D01*
X226131676Y-136247333D02*
X226036438Y-136342571D01*
X226036438Y-136342571D02*
X225988819Y-136485428D01*
X225988819Y-136485428D02*
X225988819Y-136580666D01*
X225988819Y-136580666D02*
X226036438Y-136723523D01*
X226036438Y-136723523D02*
X226084057Y-136771142D01*
X225988819Y-137628285D02*
X225988819Y-137437809D01*
X225988819Y-137437809D02*
X226036438Y-137342571D01*
X226036438Y-137342571D02*
X226084057Y-137294952D01*
X226084057Y-137294952D02*
X226226914Y-137199714D01*
X226226914Y-137199714D02*
X226417390Y-137152095D01*
X226417390Y-137152095D02*
X226798342Y-137152095D01*
X226798342Y-137152095D02*
X226893580Y-137199714D01*
X226893580Y-137199714D02*
X226941200Y-137247333D01*
X226941200Y-137247333D02*
X226988819Y-137342571D01*
X226988819Y-137342571D02*
X226988819Y-137533047D01*
X226988819Y-137533047D02*
X226941200Y-137628285D01*
X226941200Y-137628285D02*
X226893580Y-137675904D01*
X226893580Y-137675904D02*
X226798342Y-137723523D01*
X226798342Y-137723523D02*
X226560247Y-137723523D01*
X226560247Y-137723523D02*
X226465009Y-137675904D01*
X226465009Y-137675904D02*
X226417390Y-137628285D01*
X226417390Y-137628285D02*
X226369771Y-137533047D01*
X226369771Y-137533047D02*
X226369771Y-137342571D01*
X226369771Y-137342571D02*
X226417390Y-137247333D01*
X226417390Y-137247333D02*
X226465009Y-137199714D01*
X226465009Y-137199714D02*
X226560247Y-137152095D01*
X225988819Y-138056857D02*
X225988819Y-138675904D01*
X225988819Y-138675904D02*
X226369771Y-138342571D01*
X226369771Y-138342571D02*
X226369771Y-138485428D01*
X226369771Y-138485428D02*
X226417390Y-138580666D01*
X226417390Y-138580666D02*
X226465009Y-138628285D01*
X226465009Y-138628285D02*
X226560247Y-138675904D01*
X226560247Y-138675904D02*
X226798342Y-138675904D01*
X226798342Y-138675904D02*
X226893580Y-138628285D01*
X226893580Y-138628285D02*
X226941200Y-138580666D01*
X226941200Y-138580666D02*
X226988819Y-138485428D01*
X226988819Y-138485428D02*
X226988819Y-138199714D01*
X226988819Y-138199714D02*
X226941200Y-138104476D01*
X226941200Y-138104476D02*
X226893580Y-138056857D01*
X196593819Y-141727142D02*
X196117628Y-141393809D01*
X196593819Y-141155714D02*
X195593819Y-141155714D01*
X195593819Y-141155714D02*
X195593819Y-141536666D01*
X195593819Y-141536666D02*
X195641438Y-141631904D01*
X195641438Y-141631904D02*
X195689057Y-141679523D01*
X195689057Y-141679523D02*
X195784295Y-141727142D01*
X195784295Y-141727142D02*
X195927152Y-141727142D01*
X195927152Y-141727142D02*
X196022390Y-141679523D01*
X196022390Y-141679523D02*
X196070009Y-141631904D01*
X196070009Y-141631904D02*
X196117628Y-141536666D01*
X196117628Y-141536666D02*
X196117628Y-141155714D01*
X196593819Y-142679523D02*
X196593819Y-142108095D01*
X196593819Y-142393809D02*
X195593819Y-142393809D01*
X195593819Y-142393809D02*
X195736676Y-142298571D01*
X195736676Y-142298571D02*
X195831914Y-142203333D01*
X195831914Y-142203333D02*
X195879533Y-142108095D01*
X196593819Y-143631904D02*
X196593819Y-143060476D01*
X196593819Y-143346190D02*
X195593819Y-143346190D01*
X195593819Y-143346190D02*
X195736676Y-143250952D01*
X195736676Y-143250952D02*
X195831914Y-143155714D01*
X195831914Y-143155714D02*
X195879533Y-143060476D01*
X225142857Y-156859580D02*
X225190476Y-156907200D01*
X225190476Y-156907200D02*
X225333333Y-156954819D01*
X225333333Y-156954819D02*
X225428571Y-156954819D01*
X225428571Y-156954819D02*
X225571428Y-156907200D01*
X225571428Y-156907200D02*
X225666666Y-156811961D01*
X225666666Y-156811961D02*
X225714285Y-156716723D01*
X225714285Y-156716723D02*
X225761904Y-156526247D01*
X225761904Y-156526247D02*
X225761904Y-156383390D01*
X225761904Y-156383390D02*
X225714285Y-156192914D01*
X225714285Y-156192914D02*
X225666666Y-156097676D01*
X225666666Y-156097676D02*
X225571428Y-156002438D01*
X225571428Y-156002438D02*
X225428571Y-155954819D01*
X225428571Y-155954819D02*
X225333333Y-155954819D01*
X225333333Y-155954819D02*
X225190476Y-156002438D01*
X225190476Y-156002438D02*
X225142857Y-156050057D01*
X224285714Y-156288152D02*
X224285714Y-156954819D01*
X224523809Y-155907200D02*
X224761904Y-156621485D01*
X224761904Y-156621485D02*
X224142857Y-156621485D01*
X223333333Y-156288152D02*
X223333333Y-156954819D01*
X223571428Y-155907200D02*
X223809523Y-156621485D01*
X223809523Y-156621485D02*
X223190476Y-156621485D01*
X214259580Y-147857142D02*
X214307200Y-147809523D01*
X214307200Y-147809523D02*
X214354819Y-147666666D01*
X214354819Y-147666666D02*
X214354819Y-147571428D01*
X214354819Y-147571428D02*
X214307200Y-147428571D01*
X214307200Y-147428571D02*
X214211961Y-147333333D01*
X214211961Y-147333333D02*
X214116723Y-147285714D01*
X214116723Y-147285714D02*
X213926247Y-147238095D01*
X213926247Y-147238095D02*
X213783390Y-147238095D01*
X213783390Y-147238095D02*
X213592914Y-147285714D01*
X213592914Y-147285714D02*
X213497676Y-147333333D01*
X213497676Y-147333333D02*
X213402438Y-147428571D01*
X213402438Y-147428571D02*
X213354819Y-147571428D01*
X213354819Y-147571428D02*
X213354819Y-147666666D01*
X213354819Y-147666666D02*
X213402438Y-147809523D01*
X213402438Y-147809523D02*
X213450057Y-147857142D01*
X213450057Y-148238095D02*
X213402438Y-148285714D01*
X213402438Y-148285714D02*
X213354819Y-148380952D01*
X213354819Y-148380952D02*
X213354819Y-148619047D01*
X213354819Y-148619047D02*
X213402438Y-148714285D01*
X213402438Y-148714285D02*
X213450057Y-148761904D01*
X213450057Y-148761904D02*
X213545295Y-148809523D01*
X213545295Y-148809523D02*
X213640533Y-148809523D01*
X213640533Y-148809523D02*
X213783390Y-148761904D01*
X213783390Y-148761904D02*
X214354819Y-148190476D01*
X214354819Y-148190476D02*
X214354819Y-148809523D01*
X213354819Y-149142857D02*
X213354819Y-149761904D01*
X213354819Y-149761904D02*
X213735771Y-149428571D01*
X213735771Y-149428571D02*
X213735771Y-149571428D01*
X213735771Y-149571428D02*
X213783390Y-149666666D01*
X213783390Y-149666666D02*
X213831009Y-149714285D01*
X213831009Y-149714285D02*
X213926247Y-149761904D01*
X213926247Y-149761904D02*
X214164342Y-149761904D01*
X214164342Y-149761904D02*
X214259580Y-149714285D01*
X214259580Y-149714285D02*
X214307200Y-149666666D01*
X214307200Y-149666666D02*
X214354819Y-149571428D01*
X214354819Y-149571428D02*
X214354819Y-149285714D01*
X214354819Y-149285714D02*
X214307200Y-149190476D01*
X214307200Y-149190476D02*
X214259580Y-149142857D01*
X212142857Y-154959580D02*
X212190476Y-155007200D01*
X212190476Y-155007200D02*
X212333333Y-155054819D01*
X212333333Y-155054819D02*
X212428571Y-155054819D01*
X212428571Y-155054819D02*
X212571428Y-155007200D01*
X212571428Y-155007200D02*
X212666666Y-154911961D01*
X212666666Y-154911961D02*
X212714285Y-154816723D01*
X212714285Y-154816723D02*
X212761904Y-154626247D01*
X212761904Y-154626247D02*
X212761904Y-154483390D01*
X212761904Y-154483390D02*
X212714285Y-154292914D01*
X212714285Y-154292914D02*
X212666666Y-154197676D01*
X212666666Y-154197676D02*
X212571428Y-154102438D01*
X212571428Y-154102438D02*
X212428571Y-154054819D01*
X212428571Y-154054819D02*
X212333333Y-154054819D01*
X212333333Y-154054819D02*
X212190476Y-154102438D01*
X212190476Y-154102438D02*
X212142857Y-154150057D01*
X211809523Y-154054819D02*
X211190476Y-154054819D01*
X211190476Y-154054819D02*
X211523809Y-154435771D01*
X211523809Y-154435771D02*
X211380952Y-154435771D01*
X211380952Y-154435771D02*
X211285714Y-154483390D01*
X211285714Y-154483390D02*
X211238095Y-154531009D01*
X211238095Y-154531009D02*
X211190476Y-154626247D01*
X211190476Y-154626247D02*
X211190476Y-154864342D01*
X211190476Y-154864342D02*
X211238095Y-154959580D01*
X211238095Y-154959580D02*
X211285714Y-155007200D01*
X211285714Y-155007200D02*
X211380952Y-155054819D01*
X211380952Y-155054819D02*
X211666666Y-155054819D01*
X211666666Y-155054819D02*
X211761904Y-155007200D01*
X211761904Y-155007200D02*
X211809523Y-154959580D01*
X210571428Y-154054819D02*
X210476190Y-154054819D01*
X210476190Y-154054819D02*
X210380952Y-154102438D01*
X210380952Y-154102438D02*
X210333333Y-154150057D01*
X210333333Y-154150057D02*
X210285714Y-154245295D01*
X210285714Y-154245295D02*
X210238095Y-154435771D01*
X210238095Y-154435771D02*
X210238095Y-154673866D01*
X210238095Y-154673866D02*
X210285714Y-154864342D01*
X210285714Y-154864342D02*
X210333333Y-154959580D01*
X210333333Y-154959580D02*
X210380952Y-155007200D01*
X210380952Y-155007200D02*
X210476190Y-155054819D01*
X210476190Y-155054819D02*
X210571428Y-155054819D01*
X210571428Y-155054819D02*
X210666666Y-155007200D01*
X210666666Y-155007200D02*
X210714285Y-154959580D01*
X210714285Y-154959580D02*
X210761904Y-154864342D01*
X210761904Y-154864342D02*
X210809523Y-154673866D01*
X210809523Y-154673866D02*
X210809523Y-154435771D01*
X210809523Y-154435771D02*
X210761904Y-154245295D01*
X210761904Y-154245295D02*
X210714285Y-154150057D01*
X210714285Y-154150057D02*
X210666666Y-154102438D01*
X210666666Y-154102438D02*
X210571428Y-154054819D01*
X215859580Y-147857142D02*
X215907200Y-147809523D01*
X215907200Y-147809523D02*
X215954819Y-147666666D01*
X215954819Y-147666666D02*
X215954819Y-147571428D01*
X215954819Y-147571428D02*
X215907200Y-147428571D01*
X215907200Y-147428571D02*
X215811961Y-147333333D01*
X215811961Y-147333333D02*
X215716723Y-147285714D01*
X215716723Y-147285714D02*
X215526247Y-147238095D01*
X215526247Y-147238095D02*
X215383390Y-147238095D01*
X215383390Y-147238095D02*
X215192914Y-147285714D01*
X215192914Y-147285714D02*
X215097676Y-147333333D01*
X215097676Y-147333333D02*
X215002438Y-147428571D01*
X215002438Y-147428571D02*
X214954819Y-147571428D01*
X214954819Y-147571428D02*
X214954819Y-147666666D01*
X214954819Y-147666666D02*
X215002438Y-147809523D01*
X215002438Y-147809523D02*
X215050057Y-147857142D01*
X214954819Y-148761904D02*
X214954819Y-148285714D01*
X214954819Y-148285714D02*
X215431009Y-148238095D01*
X215431009Y-148238095D02*
X215383390Y-148285714D01*
X215383390Y-148285714D02*
X215335771Y-148380952D01*
X215335771Y-148380952D02*
X215335771Y-148619047D01*
X215335771Y-148619047D02*
X215383390Y-148714285D01*
X215383390Y-148714285D02*
X215431009Y-148761904D01*
X215431009Y-148761904D02*
X215526247Y-148809523D01*
X215526247Y-148809523D02*
X215764342Y-148809523D01*
X215764342Y-148809523D02*
X215859580Y-148761904D01*
X215859580Y-148761904D02*
X215907200Y-148714285D01*
X215907200Y-148714285D02*
X215954819Y-148619047D01*
X215954819Y-148619047D02*
X215954819Y-148380952D01*
X215954819Y-148380952D02*
X215907200Y-148285714D01*
X215907200Y-148285714D02*
X215859580Y-148238095D01*
X214954819Y-149142857D02*
X214954819Y-149761904D01*
X214954819Y-149761904D02*
X215335771Y-149428571D01*
X215335771Y-149428571D02*
X215335771Y-149571428D01*
X215335771Y-149571428D02*
X215383390Y-149666666D01*
X215383390Y-149666666D02*
X215431009Y-149714285D01*
X215431009Y-149714285D02*
X215526247Y-149761904D01*
X215526247Y-149761904D02*
X215764342Y-149761904D01*
X215764342Y-149761904D02*
X215859580Y-149714285D01*
X215859580Y-149714285D02*
X215907200Y-149666666D01*
X215907200Y-149666666D02*
X215954819Y-149571428D01*
X215954819Y-149571428D02*
X215954819Y-149285714D01*
X215954819Y-149285714D02*
X215907200Y-149190476D01*
X215907200Y-149190476D02*
X215859580Y-149142857D01*
X220159580Y-160757142D02*
X220207200Y-160709523D01*
X220207200Y-160709523D02*
X220254819Y-160566666D01*
X220254819Y-160566666D02*
X220254819Y-160471428D01*
X220254819Y-160471428D02*
X220207200Y-160328571D01*
X220207200Y-160328571D02*
X220111961Y-160233333D01*
X220111961Y-160233333D02*
X220016723Y-160185714D01*
X220016723Y-160185714D02*
X219826247Y-160138095D01*
X219826247Y-160138095D02*
X219683390Y-160138095D01*
X219683390Y-160138095D02*
X219492914Y-160185714D01*
X219492914Y-160185714D02*
X219397676Y-160233333D01*
X219397676Y-160233333D02*
X219302438Y-160328571D01*
X219302438Y-160328571D02*
X219254819Y-160471428D01*
X219254819Y-160471428D02*
X219254819Y-160566666D01*
X219254819Y-160566666D02*
X219302438Y-160709523D01*
X219302438Y-160709523D02*
X219350057Y-160757142D01*
X219588152Y-161614285D02*
X220254819Y-161614285D01*
X219207200Y-161376190D02*
X219921485Y-161138095D01*
X219921485Y-161138095D02*
X219921485Y-161757142D01*
X219254819Y-162042857D02*
X219254819Y-162661904D01*
X219254819Y-162661904D02*
X219635771Y-162328571D01*
X219635771Y-162328571D02*
X219635771Y-162471428D01*
X219635771Y-162471428D02*
X219683390Y-162566666D01*
X219683390Y-162566666D02*
X219731009Y-162614285D01*
X219731009Y-162614285D02*
X219826247Y-162661904D01*
X219826247Y-162661904D02*
X220064342Y-162661904D01*
X220064342Y-162661904D02*
X220159580Y-162614285D01*
X220159580Y-162614285D02*
X220207200Y-162566666D01*
X220207200Y-162566666D02*
X220254819Y-162471428D01*
X220254819Y-162471428D02*
X220254819Y-162185714D01*
X220254819Y-162185714D02*
X220207200Y-162090476D01*
X220207200Y-162090476D02*
X220159580Y-162042857D01*
D11*
%TO.C,C55*%
X208640580Y-147290000D02*
X208359420Y-147290000D01*
X208640580Y-148310000D02*
X208359420Y-148310000D01*
%TO.C,C26*%
X214359420Y-139490000D02*
X214640580Y-139490000D01*
X214359420Y-140510000D02*
X214640580Y-140510000D01*
%TO.C,C48*%
X227790000Y-145640580D02*
X227790000Y-145359420D01*
X228810000Y-145640580D02*
X228810000Y-145359420D01*
%TO.C,R14*%
X253129500Y-143738742D02*
X253129500Y-144213258D01*
X254174500Y-143738742D02*
X254174500Y-144213258D01*
%TO.C,C25*%
X211840000Y-145640580D02*
X211840000Y-145359420D01*
X212860000Y-145640580D02*
X212860000Y-145359420D01*
%TO.C,C56*%
X208640580Y-150590000D02*
X208359420Y-150590000D01*
X208640580Y-151610000D02*
X208359420Y-151610000D01*
%TO.C,C40*%
X213140000Y-164359420D02*
X213140000Y-164640580D01*
X214160000Y-164359420D02*
X214160000Y-164640580D01*
%TO.C,C49*%
X226190000Y-145640580D02*
X226190000Y-145359420D01*
X227210000Y-145640580D02*
X227210000Y-145359420D01*
%TO.C,C20*%
X227359420Y-157490000D02*
X227640580Y-157490000D01*
X227359420Y-158510000D02*
X227640580Y-158510000D01*
%TO.C,C57*%
X208640580Y-152290000D02*
X208359420Y-152290000D01*
X208640580Y-153310000D02*
X208359420Y-153310000D01*
%TO.C,R18*%
X197597500Y-148555742D02*
X197597500Y-149030258D01*
X198642500Y-148555742D02*
X198642500Y-149030258D01*
D12*
%TO.C,J2*%
X76650000Y-147800000D02*
X96570000Y-147800000D01*
X76650000Y-207200000D02*
X76650000Y-147800000D01*
X96570000Y-207200000D02*
X76650000Y-207200000D01*
X96700000Y-139050000D02*
X96700000Y-215950000D01*
X96700000Y-215950000D02*
X114550000Y-215950000D01*
X98700000Y-215950000D02*
X98700000Y-139050000D01*
X114550000Y-139050000D02*
X96700000Y-139050000D01*
X114550000Y-215950000D02*
X114550000Y-139050000D01*
D13*
X115454000Y-199500000D02*
G75*
G02*
X115054000Y-199500000I-200000J0D01*
G01*
X115054000Y-199500000D02*
G75*
G02*
X115454000Y-199500000I200000J0D01*
G01*
D11*
%TO.C,C19*%
X217790000Y-164359420D02*
X217790000Y-164640580D01*
X218810000Y-164359420D02*
X218810000Y-164640580D01*
%TO.C,C28*%
X201293000Y-144258420D02*
X201293000Y-144539580D01*
X202313000Y-144258420D02*
X202313000Y-144539580D01*
%TO.C,L4*%
X202402221Y-141603000D02*
X202727779Y-141603000D01*
X202402221Y-142623000D02*
X202727779Y-142623000D01*
%TO.C,R12*%
X195533500Y-148555742D02*
X195533500Y-149030258D01*
X196578500Y-148555742D02*
X196578500Y-149030258D01*
%TO.C,C42*%
X216240000Y-164359420D02*
X216240000Y-164640580D01*
X217260000Y-164359420D02*
X217260000Y-164640580D01*
%TO.C,L6*%
X233475279Y-167490000D02*
X233149721Y-167490000D01*
X233475279Y-168510000D02*
X233149721Y-168510000D01*
%TO.C,C36*%
X205992000Y-137854580D02*
X205992000Y-137573420D01*
X207012000Y-137854580D02*
X207012000Y-137573420D01*
%TO.C,C24*%
X210115580Y-139490000D02*
X209834420Y-139490000D01*
X210115580Y-140510000D02*
X209834420Y-140510000D01*
%TO.C,U9*%
X220944000Y-137414000D02*
X220944000Y-136764000D01*
X220944000Y-137414000D02*
X220944000Y-138064000D01*
X224064000Y-137414000D02*
X224064000Y-136764000D01*
X224064000Y-137414000D02*
X224064000Y-139089000D01*
%TO.C,C32*%
X208640580Y-155690000D02*
X208359420Y-155690000D01*
X208640580Y-156710000D02*
X208359420Y-156710000D01*
%TO.C,C35*%
X204468000Y-137854580D02*
X204468000Y-137573420D01*
X205488000Y-137854580D02*
X205488000Y-137573420D01*
%TO.C,C27*%
X208640580Y-145740000D02*
X208359420Y-145740000D01*
X208640580Y-146760000D02*
X208359420Y-146760000D01*
%TO.C,C39*%
X211590000Y-164359420D02*
X211590000Y-164640580D01*
X212610000Y-164359420D02*
X212610000Y-164640580D01*
%TO.C,C29*%
X227640580Y-160740000D02*
X227359420Y-160740000D01*
X227640580Y-161760000D02*
X227359420Y-161760000D01*
%TO.C,C21*%
X227359420Y-149870000D02*
X227640580Y-149870000D01*
X227359420Y-150890000D02*
X227640580Y-150890000D01*
%TO.C,R17*%
X197597500Y-145455742D02*
X197597500Y-145930258D01*
X198642500Y-145455742D02*
X198642500Y-145930258D01*
%TO.C,C46*%
X227359420Y-151394000D02*
X227640580Y-151394000D01*
X227359420Y-152414000D02*
X227640580Y-152414000D01*
%TO.C,C18*%
X214688000Y-164359420D02*
X214688000Y-164640580D01*
X215708000Y-164359420D02*
X215708000Y-164640580D01*
%TO.C,C47*%
X227359420Y-148340000D02*
X227640580Y-148340000D01*
X227359420Y-149360000D02*
X227640580Y-149360000D01*
%TO.C,C31*%
X224240000Y-164640580D02*
X224240000Y-164359420D01*
X225260000Y-164640580D02*
X225260000Y-164359420D01*
%TO.C,C33*%
X202817000Y-144258420D02*
X202817000Y-144539580D01*
X203837000Y-144258420D02*
X203837000Y-144539580D01*
%TO.C,R13*%
X253129500Y-147261258D02*
X253129500Y-146786742D01*
X254174500Y-147261258D02*
X254174500Y-146786742D01*
%TO.C,C58*%
X208640580Y-157390000D02*
X208359420Y-157390000D01*
X208640580Y-158410000D02*
X208359420Y-158410000D01*
%TO.C,R16*%
X237407742Y-141680500D02*
X237882258Y-141680500D01*
X237407742Y-142725500D02*
X237882258Y-142725500D01*
%TO.C,L5*%
X205577221Y-139490000D02*
X205902779Y-139490000D01*
X205577221Y-140510000D02*
X205902779Y-140510000D01*
%TO.C,C59*%
X208640580Y-161240000D02*
X208359420Y-161240000D01*
X208640580Y-162260000D02*
X208359420Y-162260000D01*
%TO.C,C37*%
X208640580Y-164340000D02*
X208359420Y-164340000D01*
X208640580Y-165360000D02*
X208359420Y-165360000D01*
%TO.C,C54*%
X210290000Y-145640580D02*
X210290000Y-145359420D01*
X211310000Y-145640580D02*
X211310000Y-145359420D01*
%TO.C,C41*%
X232002500Y-165840580D02*
X232002500Y-165559420D01*
X233022500Y-165840580D02*
X233022500Y-165559420D01*
%TO.C,C22*%
X227640580Y-152918000D02*
X227359420Y-152918000D01*
X227640580Y-153938000D02*
X227359420Y-153938000D01*
%TO.C,C38*%
X233602500Y-165840580D02*
X233602500Y-165559420D01*
X234622500Y-165840580D02*
X234622500Y-165559420D01*
%TO.C,C52*%
X216490000Y-145640580D02*
X216490000Y-145359420D01*
X217510000Y-145640580D02*
X217510000Y-145359420D01*
%TO.C,C51*%
X219740000Y-145640580D02*
X219740000Y-145359420D01*
X220760000Y-145640580D02*
X220760000Y-145359420D01*
%TO.C,C34*%
X208640580Y-162790000D02*
X208359420Y-162790000D01*
X208640580Y-163810000D02*
X208359420Y-163810000D01*
%TO.C,C45*%
X227359420Y-154442000D02*
X227640580Y-154442000D01*
X227359420Y-155462000D02*
X227640580Y-155462000D01*
%TO.C,C50*%
X223240000Y-145640580D02*
X223240000Y-145359420D01*
X224260000Y-145640580D02*
X224260000Y-145359420D01*
%TO.C,R19*%
X219381500Y-137176742D02*
X219381500Y-137651258D01*
X220426500Y-137176742D02*
X220426500Y-137651258D01*
%TO.C,C63*%
X224594000Y-137554580D02*
X224594000Y-137273420D01*
X225614000Y-137554580D02*
X225614000Y-137273420D01*
%TO.C,R11*%
X195533500Y-145455742D02*
X195533500Y-145930258D01*
X196578500Y-145455742D02*
X196578500Y-145930258D01*
%TO.C,C44*%
X227359420Y-155966000D02*
X227640580Y-155966000D01*
X227359420Y-156986000D02*
X227640580Y-156986000D01*
%TO.C,C23*%
X213390000Y-145640580D02*
X213390000Y-145359420D01*
X214410000Y-145640580D02*
X214410000Y-145359420D01*
%TO.C,C30*%
X208640580Y-153990000D02*
X208359420Y-153990000D01*
X208640580Y-155010000D02*
X208359420Y-155010000D01*
%TO.C,C53*%
X214940000Y-145640580D02*
X214940000Y-145359420D01*
X215960000Y-145640580D02*
X215960000Y-145359420D01*
%TO.C,C43*%
X219340000Y-164359420D02*
X219340000Y-164640580D01*
X220360000Y-164359420D02*
X220360000Y-164640580D01*
%TD*%
D14*
X188820000Y-121876000D03*
X131182000Y-224943000D03*
X120482000Y-224943000D03*
X133342000Y-220623000D03*
X130342000Y-220623000D03*
X127342000Y-220623000D03*
X124342000Y-220623000D03*
X121342000Y-220623000D03*
X118342000Y-220623000D03*
X133342000Y-217623000D03*
X130342000Y-217623000D03*
X127342000Y-217623000D03*
X124342000Y-217623000D03*
X121342000Y-217623000D03*
X118342000Y-217623000D03*
X236375000Y-146775000D03*
X236375000Y-144235000D03*
X238915000Y-146775000D03*
X238915000Y-144235000D03*
X241455000Y-146775000D03*
X241455000Y-144235000D03*
X243995000Y-146775000D03*
X243995000Y-144235000D03*
X246535000Y-146775000D03*
X246535000Y-144235000D03*
X249075000Y-146775000D03*
X249075000Y-144235000D03*
X251615000Y-146775000D03*
X251615000Y-144235000D03*
X188820000Y-126956000D03*
X198980000Y-103080000D03*
X327625000Y-170000000D03*
X328613515Y-167613515D03*
X328613515Y-172386485D03*
X331000000Y-166625000D03*
X331000000Y-170000000D03*
X331000000Y-173375000D03*
X333386485Y-167613515D03*
X333386485Y-172386485D03*
X334375000Y-170000000D03*
X319479500Y-129027500D03*
X319479500Y-121407500D03*
X319479500Y-139187500D03*
X311859500Y-139187500D03*
X173542500Y-95553000D03*
X173542500Y-98093000D03*
X173542500Y-100633000D03*
D15*
X214699999Y-158300001D03*
X215799999Y-158300001D03*
X216900000Y-158300001D03*
X218000000Y-158300001D03*
X219099998Y-158300001D03*
X220199998Y-158300001D03*
X221299998Y-158300001D03*
X214699999Y-157200001D03*
X215799999Y-157200001D03*
X216900000Y-157200001D03*
X218000000Y-157200001D03*
X219099998Y-157200001D03*
X220199998Y-157200001D03*
X221299998Y-157200001D03*
X214699999Y-156100000D03*
X215799999Y-156100000D03*
X216900000Y-156100000D03*
X218000000Y-156100000D03*
X219099998Y-156100000D03*
X220199998Y-156100000D03*
X221299998Y-156100000D03*
X214699999Y-155000000D03*
X215799999Y-155000000D03*
X216900000Y-155000000D03*
X218000000Y-155000000D03*
X219099998Y-155000000D03*
X220199998Y-155000000D03*
X221299998Y-155000000D03*
X214699999Y-153900002D03*
X215799999Y-153900002D03*
X216900000Y-153900002D03*
X218000000Y-153900002D03*
X219099998Y-153900002D03*
X220199998Y-153900002D03*
X221299998Y-153900002D03*
X214699999Y-152800002D03*
X215799999Y-152800002D03*
X216900000Y-152800002D03*
X218000000Y-152800002D03*
X219099998Y-152800002D03*
X220199998Y-152800002D03*
X221299998Y-152800002D03*
X214699999Y-151700002D03*
X215799999Y-151700002D03*
X216900000Y-151700002D03*
X218000000Y-151700002D03*
X219099998Y-151700002D03*
X220199998Y-151700002D03*
X221299998Y-151700002D03*
D14*
X332179500Y-129027500D03*
X332179500Y-121407500D03*
X332179500Y-139187500D03*
X324559500Y-139187500D03*
X254882000Y-224928000D03*
X244182000Y-224928000D03*
X257042000Y-220608000D03*
X254042000Y-220608000D03*
X251042000Y-220608000D03*
X248042000Y-220608000D03*
X245042000Y-220608000D03*
X242042000Y-220608000D03*
X257042000Y-217608000D03*
X254042000Y-217608000D03*
X251042000Y-217608000D03*
X248042000Y-217608000D03*
X245042000Y-217608000D03*
X242042000Y-217608000D03*
X263000000Y-145000000D03*
X264766000Y-178772000D03*
X200000000Y-85000000D03*
X331000000Y-225000000D03*
X174000000Y-137000000D03*
X236398000Y-139063000D03*
X236398000Y-136523000D03*
X236398000Y-133983000D03*
X236398000Y-131443000D03*
X236398000Y-128903000D03*
X299920000Y-85067000D03*
X304620000Y-85067000D03*
X297760000Y-89387000D03*
X300760000Y-89387000D03*
X303760000Y-89387000D03*
X306760000Y-89387000D03*
X297760000Y-92387000D03*
X300760000Y-92387000D03*
X303760000Y-92387000D03*
X306760000Y-92387000D03*
X105000000Y-225000000D03*
X215882000Y-224928000D03*
X205182000Y-224928000D03*
X218042000Y-220608000D03*
X215042000Y-220608000D03*
X212042000Y-220608000D03*
X209042000Y-220608000D03*
X206042000Y-220608000D03*
X203042000Y-220608000D03*
X218042000Y-217608000D03*
X215042000Y-217608000D03*
X212042000Y-217608000D03*
X209042000Y-217608000D03*
X206042000Y-217608000D03*
X203042000Y-217608000D03*
X331000000Y-85000000D03*
X105000000Y-85000000D03*
X188820000Y-116796000D03*
X291882000Y-224928000D03*
X281182000Y-224928000D03*
X294042000Y-220608000D03*
X291042000Y-220608000D03*
X288042000Y-220608000D03*
X285042000Y-220608000D03*
X282042000Y-220608000D03*
X279042000Y-220608000D03*
X294042000Y-217608000D03*
X291042000Y-217608000D03*
X288042000Y-217608000D03*
X285042000Y-217608000D03*
X282042000Y-217608000D03*
X279042000Y-217608000D03*
X268245000Y-85091000D03*
X275945000Y-85091000D03*
X266085000Y-89411000D03*
X269085000Y-89411000D03*
X272085000Y-89411000D03*
X275085000Y-89411000D03*
X278085000Y-89411000D03*
X266085000Y-92411000D03*
X269085000Y-92411000D03*
X272085000Y-92411000D03*
X275085000Y-92411000D03*
X278085000Y-92411000D03*
X198980000Y-108160000D03*
X184042500Y-95646000D03*
X184042500Y-98186000D03*
X184042500Y-100726000D03*
X108000000Y-206000000D03*
X108000000Y-149000000D03*
X112500000Y-199500000D03*
X112500000Y-195500000D03*
X112500000Y-191500000D03*
X112500000Y-187500000D03*
X112500000Y-183500000D03*
X112500000Y-179500000D03*
X112500000Y-175500000D03*
X112500000Y-171500000D03*
X112500000Y-167500000D03*
X112500000Y-163500000D03*
X112500000Y-159500000D03*
X112500000Y-155500000D03*
X108500000Y-197500000D03*
X108500000Y-193500000D03*
X108500000Y-189500000D03*
X108500000Y-185500000D03*
X108500000Y-181500000D03*
X108500000Y-177500000D03*
X108500000Y-173500000D03*
X108500000Y-169500000D03*
X108500000Y-165500000D03*
X108500000Y-161500000D03*
X108500000Y-157500000D03*
X104500000Y-199500000D03*
X104500000Y-195500000D03*
X104500000Y-191500000D03*
X104500000Y-187500000D03*
X104500000Y-183500000D03*
X104500000Y-179500000D03*
X104500000Y-175500000D03*
X104500000Y-171500000D03*
X104500000Y-167500000D03*
X104500000Y-163500000D03*
X104500000Y-159500000D03*
X104500000Y-155500000D03*
M02*
