M48
; DRILL file {KiCad 8.0.4} date 2024-11-12T22:32:30+0300
; FORMAT={-:-/ absolute / metric / decimal}
; #@! TF.CreationDate,2024-11-12T22:32:30+03:00
; #@! TF.GenerationSoftware,Kicad,Pcbnew,8.0.4
; #@! TF.FileFunction,MixedPlating,1,6
FMAT,2
METRIC
; #@! TA.AperFunction,Plated,PTH,ViaDrill
T1C0.200
; #@! TA.AperFunction,Plated,PTH,ComponentDrill
T2C0.203
; #@! TA.AperFunction,Plated,PTH,ViaDrill
T3C0.400
; #@! TA.AperFunction,Plated,PTH,ComponentDrill
T4C0.600
; #@! TA.AperFunction,Plated,PTH,ComponentDrill
T5C1.000
; #@! TA.AperFunction,Plated,PTH,ComponentDrill
T6C1.020
; #@! TA.AperFunction,Plated,PTH,ComponentDrill
T7C1.200
; #@! TA.AperFunction,Plated,PTH,ComponentDrill
T8C1.750
; #@! TA.AperFunction,Plated,PTH,ComponentDrill
T9C2.000
; #@! TA.AperFunction,Plated,PTH,ComponentDrill
T10C4.500
; #@! TA.AperFunction,NonPlated,NPTH,ComponentDrill
T11C2.850
; #@! TA.AperFunction,NonPlated,NPTH,ComponentDrill
T12C3.000
; #@! TA.AperFunction,NonPlated,NPTH,ComponentDrill
T13C4.500
%
G90
G05
T1
X121.375Y-213.593
X125.439Y-213.517
X127.81Y-207.212
X131.874Y-207.136
X135.642Y-217.808
X136.41Y-213.612
X136.642Y-217.808
X138.862Y-148.466
X139.116Y-157.102
X140.474Y-213.536
X142.61Y-207.212
X146.674Y-207.136
X148.26Y-135.004
X168.58Y-171.326
X174.93Y-163.706
X177.47Y-162.436
X180.242Y-176.208
X182.804Y-157.356
X183.82Y-156.34
X196.048Y-206.422
X196.056Y-143.893
X196.056Y-150.593
X196.242Y-167.408
X197.242Y-158.608
X198.12Y-143.893
X198.12Y-150.593
X199.042Y-157.211
X199.842Y-148.008
X200.042Y-157.208
X200.242Y-208.408
X200.457Y-145.672
X200.642Y-157.75
X200.787Y-142.113
X201.042Y-158.3
X201.554Y-158.8
X201.6Y-164.75
X201.646Y-146.181
X201.969Y-159.3
X202.0Y-164.1
X202.042Y-148.008
X202.048Y-206.422
X202.385Y-159.8
X202.498Y-163.552
X202.5Y-162.0
X202.511Y-162.789
X202.777Y-148.073
X202.8Y-160.3
X203.327Y-146.177
X203.66Y-154.661
X203.9Y-147.2
X203.962Y-139.954
X204.724Y-142.113
X204.978Y-136.017
X205.359Y-142.113
X206.112Y-206.346
X206.5Y-146.25
X206.5Y-147.0
X206.5Y-151.1
X206.5Y-153.4
X206.5Y-154.5
X206.5Y-156.4
X206.5Y-157.5
X206.5Y-161.75
X206.5Y-162.5
X206.502Y-136.017
X206.68Y-164.722
X207.696Y-169.421
X208.0Y-140.0
X208.0Y-166.5
X208.733Y-166.488
X209.95Y-143.5
X210.75Y-141.0
X210.9Y-143.65
X212.0Y-143.45
X212.25Y-166.5
X213.299Y-141.0
X213.448Y-206.222
X213.45Y-143.5
X214.0Y-166.5
X214.3Y-143.5
X215.0Y-166.5
X215.25Y-143.5
X216.332Y-169.04
X216.4Y-140.0
X216.5Y-166.5
X216.6Y-143.5
X217.5Y-166.5
X217.512Y-206.146
X219.448Y-206.222
X219.75Y-166.5
X219.904Y-135.414
X220.25Y-143.5
X222.555Y-166.373
X223.19Y-166.373
X223.512Y-206.146
X223.75Y-143.5
X223.825Y-166.373
X224.2Y-169.0
X224.75Y-166.5
X225.0Y-169.0
X225.104Y-135.314
X225.104Y-139.314
X225.442Y-206.208
X227.35Y-143.5
X228.442Y-174.008
X228.778Y-162.182
X228.778Y-162.817
X228.778Y-163.452
X229.5Y-144.25
X229.5Y-147.75
X229.5Y-150.25
X229.5Y-151.25
X229.5Y-152.5
X229.5Y-154.5
X229.5Y-157.0
X229.5Y-158.0
X229.5Y-161.25
X229.642Y-206.208
X230.442Y-176.008
X231.448Y-206.222
X231.9Y-160.9
X231.9Y-161.674
X235.442Y-215.158
X235.512Y-206.146
X236.642Y-215.208
X239.2Y-141.45
X243.042Y-206.008
X245.922Y-174.858
X247.042Y-206.008
X249.048Y-206.022
X253.112Y-205.946
X254.65Y-144.8
X254.65Y-146.2
X255.042Y-206.008
X259.042Y-206.008
X261.048Y-206.03
X265.112Y-205.954
X267.242Y-217.408
X269.242Y-217.408
X272.442Y-206.008
X276.442Y-206.008
X278.448Y-206.084
X282.512Y-206.008
T2
X214.7Y-151.7
X214.7Y-152.8
X214.7Y-153.9
X214.7Y-155.0
X214.7Y-156.1
X214.7Y-157.2
X214.7Y-158.3
X215.8Y-151.7
X215.8Y-152.8
X215.8Y-153.9
X215.8Y-155.0
X215.8Y-156.1
X215.8Y-157.2
X215.8Y-158.3
X216.9Y-151.7
X216.9Y-152.8
X216.9Y-153.9
X216.9Y-155.0
X216.9Y-156.1
X216.9Y-157.2
X216.9Y-158.3
X218.0Y-151.7
X218.0Y-152.8
X218.0Y-153.9
X218.0Y-155.0
X218.0Y-156.1
X218.0Y-157.2
X218.0Y-158.3
X219.1Y-151.7
X219.1Y-152.8
X219.1Y-153.9
X219.1Y-155.0
X219.1Y-156.1
X219.1Y-157.2
X219.1Y-158.3
X220.2Y-151.7
X220.2Y-152.8
X220.2Y-153.9
X220.2Y-155.0
X220.2Y-156.1
X220.2Y-157.2
X220.2Y-158.3
X221.3Y-151.7
X221.3Y-152.8
X221.3Y-153.9
X221.3Y-155.0
X221.3Y-156.1
X221.3Y-157.2
X221.3Y-158.3
T3
X101.6Y-115.758
X101.6Y-117.028
X101.6Y-118.298
X101.6Y-119.568
X101.6Y-120.838
X101.6Y-122.108
X101.6Y-123.378
X101.6Y-124.648
X101.6Y-125.918
X101.6Y-127.188
X102.87Y-125.918
X102.87Y-127.188
X104.14Y-91.628
X104.14Y-92.898
X104.14Y-94.168
X104.14Y-95.438
X104.14Y-96.708
X104.14Y-97.978
X104.14Y-99.248
X104.14Y-100.518
X104.14Y-101.788
X104.14Y-103.058
X104.14Y-104.328
X104.14Y-105.598
X104.14Y-107.884
X104.14Y-109.154
X104.14Y-110.424
X104.14Y-111.694
X104.14Y-112.964
X104.14Y-125.918
X104.14Y-127.188
X105.41Y-91.628
X105.41Y-92.898
X105.41Y-94.168
X105.41Y-95.438
X105.41Y-96.708
X105.41Y-97.978
X105.41Y-99.248
X105.41Y-100.518
X105.41Y-101.788
X105.41Y-103.058
X105.41Y-104.328
X105.41Y-105.598
X105.41Y-125.918
X105.41Y-127.188
X106.68Y-91.628
X106.68Y-92.898
X106.68Y-125.918
X106.68Y-127.188
X107.5Y-143.25
X107.95Y-91.628
X107.95Y-92.898
X107.95Y-107.884
X107.95Y-109.154
X107.95Y-110.424
X107.95Y-111.694
X107.95Y-112.964
X107.95Y-125.918
X107.95Y-127.188
X109.22Y-91.628
X109.22Y-92.898
X109.22Y-125.918
X109.22Y-127.188
X110.49Y-91.628
X110.49Y-92.898
X110.49Y-125.918
X110.49Y-127.188
X111.76Y-81.722
X111.76Y-82.992
X111.76Y-90.358
X111.76Y-91.628
X111.76Y-92.898
X111.76Y-125.918
X111.76Y-127.188
X112.522Y-110.805
X113.03Y-81.722
X113.03Y-82.992
X113.03Y-90.358
X113.03Y-91.628
X113.03Y-92.898
X113.03Y-125.918
X113.03Y-127.188
X114.3Y-81.722
X114.3Y-82.992
X114.3Y-90.358
X114.3Y-91.628
X114.3Y-92.898
X114.3Y-125.918
X114.3Y-127.188
X114.3Y-128.458
X114.3Y-129.728
X114.3Y-130.998
X114.3Y-132.268
X114.3Y-133.538
X114.3Y-134.808
X114.3Y-136.078
X114.3Y-137.348
X115.394Y-208.43
X115.394Y-211.986
X115.57Y-81.722
X115.57Y-82.992
X115.57Y-90.358
X115.57Y-91.628
X115.57Y-92.898
X115.57Y-115.758
X115.57Y-117.028
X115.57Y-118.298
X115.57Y-119.568
X115.57Y-120.838
X115.57Y-122.108
X115.57Y-123.378
X115.57Y-124.648
X115.57Y-125.918
X115.57Y-127.188
X115.57Y-128.458
X115.57Y-129.728
X115.57Y-130.998
X115.57Y-132.268
X115.57Y-133.538
X115.57Y-134.808
X115.57Y-136.078
X115.57Y-137.348
X116.156Y-206.906
X116.421Y-203.242
X116.84Y-115.758
X116.84Y-117.028
X117.426Y-216.05
X118.364Y-94.422
X118.364Y-95.946
X118.364Y-99.248
X118.364Y-101.026
X118.364Y-104.582
X118.442Y-210.208
X118.453Y-203.242
X118.618Y-149.86
X118.618Y-158.496
X118.618Y-167.132
X118.872Y-106.995
X118.872Y-108.265
X118.872Y-109.535
X118.872Y-110.805
X118.872Y-112.075
X119.304Y-184.534
X119.458Y-216.05
X119.558Y-173.612
X119.558Y-180.216
X119.558Y-186.82
X119.558Y-193.424
X119.634Y-94.422
X119.634Y-95.946
X119.634Y-99.248
X119.634Y-101.026
X119.634Y-104.582
X120.142Y-106.995
X120.142Y-112.075
X120.904Y-94.422
X120.904Y-95.946
X120.904Y-99.248
X120.904Y-101.026
X120.904Y-104.582
X121.412Y-106.995
X121.412Y-112.075
X122.174Y-94.422
X122.174Y-95.946
X122.174Y-99.248
X122.174Y-101.026
X122.174Y-104.582
X122.442Y-196.008
X122.682Y-106.995
X122.682Y-112.075
X123.407Y-199.369
X123.952Y-115.25
X123.952Y-116.52
X124.46Y-81.722
X124.46Y-82.992
X124.46Y-90.358
X124.46Y-91.628
X124.968Y-112.202
X125.185Y-199.369
X125.222Y-115.25
X125.222Y-116.52
X125.73Y-81.722
X125.73Y-82.992
X125.73Y-90.358
X125.73Y-91.628
X125.984Y-118.298
X125.984Y-119.568
X125.984Y-120.838
X125.984Y-122.108
X125.984Y-123.378
X125.984Y-124.648
X125.984Y-125.918
X125.984Y-127.188
X125.984Y-128.458
X125.984Y-129.728
X125.984Y-130.998
X125.984Y-132.268
X125.984Y-133.538
X125.984Y-134.808
X125.984Y-136.078
X125.984Y-137.348
X126.238Y-112.202
X126.746Y-93.406
X126.746Y-94.676
X126.746Y-95.946
X126.746Y-97.216
X126.746Y-98.486
X126.746Y-99.756
X126.746Y-101.026
X127.0Y-81.722
X127.0Y-82.992
X127.0Y-90.358
X127.0Y-91.628
X127.0Y-106.741
X127.254Y-118.298
X127.254Y-119.568
X127.254Y-120.838
X127.254Y-122.108
X127.254Y-123.378
X127.254Y-124.648
X127.254Y-125.918
X127.254Y-127.188
X127.254Y-128.458
X127.254Y-129.728
X127.254Y-130.998
X127.254Y-132.268
X127.254Y-133.538
X127.254Y-134.808
X127.254Y-136.078
X127.254Y-137.348
X127.508Y-112.202
X128.016Y-93.406
X128.778Y-107.122
X128.778Y-108.392
X128.778Y-109.662
X128.778Y-110.932
X128.778Y-112.202
X129.286Y-93.406
X129.464Y-171.58
X129.464Y-173.866
X129.464Y-177.93
X129.464Y-180.47
X129.464Y-184.534
X129.464Y-186.82
X129.464Y-191.138
X129.464Y-193.678
X130.302Y-104.328
X130.556Y-93.406
X131.572Y-106.614
X131.572Y-107.884
X131.826Y-93.406
X132.08Y-136.906
X132.461Y-118.044
X132.537Y-122.359
X132.842Y-106.614
X132.842Y-107.884
X133.096Y-93.406
X133.35Y-82.484
X133.35Y-85.786
X133.35Y-87.564
X133.35Y-90.866
X134.061Y-118.295
X134.112Y-106.614
X134.112Y-107.884
X134.112Y-112.964
X134.151Y-114.322
X134.366Y-93.406
X134.62Y-82.484
X134.62Y-85.786
X134.62Y-87.564
X134.62Y-90.866
X135.042Y-196.608
X135.128Y-145.288
X135.128Y-153.924
X135.128Y-162.56
X135.382Y-106.614
X135.382Y-107.884
X135.636Y-93.406
X135.636Y-94.676
X135.636Y-95.946
X135.636Y-97.216
X135.636Y-98.486
X135.636Y-99.756
X135.636Y-101.026
X135.636Y-114.488
X135.636Y-115.758
X135.636Y-117.028
X135.636Y-118.298
X135.89Y-82.484
X135.89Y-85.786
X135.89Y-87.564
X135.89Y-90.866
X136.779Y-114.488
X136.779Y-115.758
X136.779Y-117.028
X136.779Y-118.298
X137.16Y-82.484
X137.16Y-85.786
X137.16Y-87.564
X137.16Y-90.866
X137.16Y-133.35
X137.16Y-149.352
X137.16Y-157.988
X137.16Y-166.624
X137.5Y-126.5
X138.442Y-199.388
X138.789Y-112.097
X139.065Y-107.757
X139.395Y-121.724
X139.446Y-137.16
X139.497Y-143.767
X139.497Y-152.403
X139.497Y-160.023
X139.5Y-126.5
X139.7Y-93.66
X139.7Y-94.93
X139.954Y-135.89
X140.22Y-199.388
X140.538Y-121.724
X140.97Y-93.66
X140.97Y-94.93
X141.478Y-149.86
X141.478Y-158.496
X141.478Y-163.576
X141.5Y-126.5
X141.681Y-111.313
X141.732Y-135.89
X141.91Y-182.756
X142.24Y-93.66
X142.24Y-94.93
X142.418Y-171.58
X142.418Y-178.184
X142.418Y-184.788
X142.418Y-189.106
X142.418Y-191.392
X143.5Y-126.5
X143.51Y-93.66
X143.51Y-94.93
X144.018Y-110.17
X144.78Y-93.66
X144.78Y-94.93
X145.085Y-132.083
X145.085Y-134.115
X145.5Y-126.5
X145.923Y-114.488
X145.923Y-115.758
X145.923Y-117.028
X145.923Y-118.298
X146.05Y-93.66
X146.05Y-94.93
X146.05Y-108.9
X146.304Y-160.274
X147.066Y-114.488
X147.066Y-115.758
X147.066Y-117.028
X147.066Y-118.298
X147.32Y-93.66
X147.32Y-94.93
X147.752Y-119.692
X147.752Y-127.511
X147.828Y-106.106
X147.828Y-107.376
X148.512Y-219.738
X148.59Y-93.66
X148.59Y-94.93
X149.098Y-106.106
X149.098Y-107.376
X149.86Y-93.66
X149.86Y-94.93
X150.368Y-106.106
X150.368Y-107.376
X150.817Y-215.643
X151.13Y-80.96
X151.13Y-82.23
X151.13Y-83.5
X151.13Y-84.77
X151.13Y-86.04
X151.13Y-87.31
X151.13Y-88.58
X151.13Y-89.85
X151.13Y-91.12
X151.13Y-92.39
X151.13Y-93.66
X151.13Y-94.93
X151.638Y-106.106
X151.638Y-107.376
X152.07Y-176.66
X152.324Y-168.278
X152.324Y-171.58
X152.324Y-178.438
X152.324Y-182.756
X152.324Y-184.788
X152.324Y-189.106
X152.324Y-191.392
X152.4Y-80.96
X152.4Y-82.23
X152.4Y-83.5
X152.4Y-84.77
X152.4Y-86.04
X152.4Y-87.31
X152.4Y-88.58
X152.4Y-89.85
X152.4Y-91.12
X152.4Y-92.39
X152.4Y-93.66
X152.4Y-94.93
X152.4Y-115.316
X152.908Y-106.106
X152.908Y-107.376
X152.908Y-126.238
X153.642Y-221.008
X153.67Y-93.66
X153.67Y-94.93
X154.178Y-106.106
X154.178Y-107.376
X154.217Y-215.643
X154.94Y-93.66
X154.94Y-94.93
X155.448Y-106.106
X155.448Y-107.376
X156.21Y-93.66
X156.21Y-94.93
X156.464Y-116.586
X156.464Y-118.364
X156.718Y-106.106
X156.718Y-107.376
X157.48Y-93.66
X157.48Y-94.93
X157.48Y-119.888
X157.988Y-106.106
X157.988Y-107.376
X157.988Y-145.288
X157.988Y-153.924
X158.242Y-161.544
X158.442Y-200.408
X158.496Y-122.428
X158.75Y-93.66
X158.75Y-94.93
X159.182Y-125.225
X159.182Y-127.384
X159.258Y-106.106
X159.258Y-107.376
X159.442Y-222.408
X160.02Y-149.352
X160.02Y-157.988
X160.267Y-209.373
X160.274Y-96.2
X160.274Y-97.47
X160.274Y-104.074
X160.274Y-105.344
X161.544Y-96.2
X161.544Y-97.47
X161.544Y-104.074
X161.544Y-105.344
X161.867Y-209.373
X162.642Y-222.408
X162.814Y-96.2
X162.814Y-97.47
X162.814Y-104.074
X162.814Y-105.344
X162.817Y-217.443
X162.902Y-203.408
X164.084Y-96.2
X164.084Y-97.47
X164.084Y-104.074
X164.084Y-105.344
X166.017Y-223.843
X166.067Y-209.973
X166.217Y-220.643
X166.432Y-203.408
X167.132Y-115.214
X167.132Y-116.484
X167.132Y-117.754
X167.132Y-119.024
X167.132Y-206.608
X169.242Y-218.408
X171.45Y-102.645
X171.45Y-105.185
X171.45Y-107.725
X171.45Y-110.265
X171.642Y-201.808
X171.817Y-215.443
X172.017Y-226.043
X172.21Y-116.394
X172.267Y-212.253
X173.482Y-102.645
X173.482Y-110.265
X173.482Y-117.348
X174.267Y-210.973
X174.442Y-224.808
X174.842Y-201.808
X175.017Y-215.443
X176.022Y-119.888
X176.628Y-126.194
X176.844Y-105.713
X177.217Y-226.043
X177.267Y-212.253
X178.054Y-119.888
X179.13Y-88.441
X179.13Y-90.473
X180.217Y-222.643
X180.267Y-208.773
X180.267Y-212.008
X180.417Y-219.443
X180.572Y-205.678
X180.594Y-119.888
X181.356Y-125.222
X181.356Y-126.492
X181.864Y-102.645
X181.864Y-105.185
X181.864Y-107.725
X181.864Y-110.265
X182.6Y-123.95
X182.626Y-125.222
X182.626Y-126.492
X183.417Y-226.243
X183.432Y-212.008
X183.896Y-102.645
X183.896Y-110.265
X183.896Y-123.952
X183.896Y-125.222
X183.896Y-126.492
X184.617Y-220.043
X184.667Y-206.173
X184.853Y-181.289
X184.853Y-182.813
X184.853Y-184.337
X186.217Y-206.223
X186.217Y-220.043
X187.344Y-105.806
X187.901Y-183.575
X189.63Y-88.534
X189.63Y-90.566
X190.695Y-189.798
X190.949Y-179.511
X190.949Y-187.639
X194.442Y-147.008
X194.442Y-148.955
X195.775Y-173.288
X196.442Y-138.008
X196.81Y-195.246
X197.142Y-136.608
X198.08Y-192.618
X198.188Y-175.828
X198.188Y-190.052
X198.696Y-185.48
X198.976Y-133.332
X201.008Y-133.332
X202.302Y-192.693
X203.6Y-130.3
X204.08Y-192.693
X205.88Y-192.618
X206.229Y-88.519
X206.229Y-90.297
X206.229Y-92.075
X206.229Y-99.695
X206.229Y-101.473
X206.229Y-103.251
X206.87Y-207.348
X206.87Y-208.872
X207.5Y-134.0
X207.794Y-214.16
X208.007Y-85.471
X208.007Y-96.647
X208.648Y-205.57
X209.5Y-126.5
X209.73Y-199.054
X210.68Y-208.618
X210.693Y-138.684
X211.63Y-198.89
X211.65Y-177.225
X211.65Y-178.495
X211.65Y-181.035
X211.65Y-186.115
X211.65Y-188.655
X212.92Y-184.845
X213.174Y-178.495
X213.174Y-181.035
X214.2Y-138.6
X214.952Y-179.765
X214.952Y-182.305
X215.5Y-126.5
X215.754Y-88.138
X215.754Y-92.202
X215.754Y-99.314
X215.754Y-103.378
X215.968Y-181.162
X217.042Y-199.208
X217.2Y-134.1
X219.056Y-88.392
X219.056Y-99.568
X219.702Y-192.493
X221.1Y-130.2
X221.48Y-192.493
X221.596Y-92.456
X221.596Y-103.632
X223.28Y-192.418
X223.444Y-83.188
X223.444Y-94.618
X224.136Y-89.408
X224.136Y-100.584
X225.66Y-92.456
X225.66Y-103.632
X227.68Y-192.418
X229.724Y-88.646
X229.724Y-90.424
X229.724Y-92.202
X229.724Y-99.822
X229.724Y-101.6
X229.724Y-103.378
X230.81Y-100.714
X231.0Y-167.7
X231.702Y-192.493
X232.334Y-105.032
X233.48Y-192.493
X234.296Y-101.346
X235.28Y-192.418
X235.636Y-86.617
X235.966Y-168.148
X236.242Y-165.808
X236.324Y-213.218
X236.47Y-207.348
X236.47Y-208.872
X236.474Y-163.83
X236.652Y-95.634
X236.99Y-93.804
X238.248Y-205.57
X238.768Y-90.757
X239.33Y-198.923
X239.776Y-160.658
X240.25Y-154.3
X240.28Y-208.618
X240.546Y-93.804
X241.23Y-199.008
X241.408Y-100.076
X241.642Y-213.208
X242.17Y-104.14
X242.932Y-100.076
X243.848Y-85.09
X244.018Y-86.744
X244.356Y-89.995
X244.356Y-91.772
X244.356Y-93.55
X245.218Y-99.06
X245.618Y-158.372
X246.126Y-149.484
X246.126Y-153.284
X246.558Y-131.448
X246.558Y-133.988
X246.558Y-136.528
X246.558Y-139.068
X246.888Y-168.656
X246.888Y-170.18
X246.888Y-171.704
X247.042Y-199.008
X247.396Y-157.48
X248.666Y-156.464
X248.971Y-102.238
X249.302Y-192.293
X249.682Y-176.022
X249.733Y-104.651
X250.19Y-155.448
X250.444Y-165.1
X250.806Y-89.662
X250.806Y-91.694
X251.08Y-192.293
X251.46Y-175.006
X251.714Y-165.1
X252.88Y-192.218
X253.222Y-170.158
X254.686Y-166.358
X255.524Y-163.322
X256.54Y-175.006
X257.048Y-162.306
X257.283Y-100.076
X257.48Y-192.218
X257.556Y-165.1
X258.064Y-170.18
X258.572Y-175.768
X259.188Y-89.662
X259.823Y-93.472
X259.823Y-95.25
X261.112Y-168.91
X261.112Y-171.45
X261.302Y-192.302
X261.982Y-102.743
X262.744Y-106.934
X262.744Y-108.966
X263.08Y-192.302
X264.88Y-192.218
X265.538Y-124.714
X265.792Y-118.11
X265.87Y-207.41
X265.87Y-208.934
X265.88Y-213.218
X266.046Y-101.219
X266.7Y-169.215
X267.424Y-165.862
X267.424Y-167.386
X267.57Y-124.714
X267.648Y-205.632
X267.716Y-174.549
X268.224Y-168.402
X268.586Y-110.236
X268.68Y-198.608
X268.84Y-106.934
X268.84Y-108.966
X268.91Y-137.163
X268.91Y-138.56
X269.68Y-208.68
X269.856Y-117.348
X269.856Y-118.872
X270.11Y-110.236
X270.68Y-198.608
X270.872Y-121.158
X271.042Y-213.208
X276.442Y-199.408
X277.222Y-106.934
X277.222Y-108.966
X277.603Y-101.346
X278.702Y-192.368
X280.016Y-124.714
X280.27Y-118.11
X280.48Y-192.368
X281.286Y-101.346
X282.048Y-124.714
X282.28Y-192.418
X283.064Y-110.236
X283.318Y-106.934
X283.318Y-108.966
X284.207Y-122.428
X284.334Y-117.348
X284.334Y-118.872
X284.588Y-110.236
X294.447Y-205.385
X296.098Y-197.928
X296.098Y-199.96
X296.098Y-208.56
X296.225Y-180.728
X296.225Y-182.76
X296.225Y-189.128
X296.225Y-191.16
X296.352Y-173.728
X296.352Y-175.76
X296.606Y-166.038
X296.606Y-168.07
X297.688Y-128.712
X300.162Y-170.102
X300.162Y-177.792
X300.162Y-184.792
X300.162Y-193.192
X300.162Y-201.992
X300.162Y-210.592
X300.914Y-133.226
X300.914Y-135.258
X301.686Y-170.864
X301.686Y-178.554
X301.686Y-185.808
X301.686Y-194.208
X301.686Y-203.008
X301.686Y-211.608
X302.26Y-130.236
X302.692Y-146.356
X302.709Y-144.713
X303.464Y-168.07
X303.464Y-175.76
X303.464Y-182.76
X303.464Y-191.16
X303.464Y-199.96
X303.464Y-208.56
X303.471Y-148.142
X303.598Y-156.524
X305.054Y-128.458
X305.242Y-170.864
X305.242Y-178.554
X305.242Y-185.808
X305.242Y-194.208
X305.242Y-203.008
X305.242Y-211.608
X305.376Y-156.524
X306.011Y-143.189
X306.375Y-131.321
X306.832Y-128.458
X307.274Y-167.054
X307.274Y-169.086
X307.274Y-174.744
X307.274Y-176.776
X308.29Y-187.078
X308.29Y-195.478
X308.29Y-204.278
X308.29Y-212.878
X308.544Y-170.864
X308.544Y-178.554
X308.798Y-165.022
X308.798Y-172.712
X309.814Y-185.808
X309.814Y-194.208
X309.814Y-203.008
X309.814Y-211.608
X310.134Y-142.161
X310.947Y-148.961
X311.341Y-166.495
X311.341Y-174.185
X311.592Y-182.76
X311.592Y-191.16
X311.592Y-199.96
X311.592Y-208.56
X312.725Y-148.707
X312.979Y-153.787
X313.36Y-155.451
X313.36Y-157.483
X313.37Y-185.808
X313.37Y-194.208
X313.37Y-203.008
X313.37Y-211.608
X313.69Y-140.637
X313.741Y-151.501
X315.265Y-151.501
X315.529Y-181.744
X315.529Y-190.144
X315.529Y-199.071
X315.529Y-207.544
X315.722Y-94.168
X315.722Y-95.184
X315.773Y-145.151
X316.672Y-200.976
X316.672Y-209.576
X316.926Y-183.776
X316.926Y-192.176
X316.992Y-152.146
X317.297Y-145.151
X317.434Y-181.744
X317.434Y-190.144
X317.561Y-198.944
X317.561Y-207.544
X319.583Y-148.961
X320.242Y-166.008
X320.242Y-167.608
X320.242Y-169.008
X320.242Y-170.608
X320.242Y-173.608
X320.242Y-175.208
X320.242Y-176.608
X320.242Y-178.208
X322.834Y-142.174
X324.612Y-149.032
X326.39Y-140.65
X326.39Y-148.778
X326.644Y-153.858
X327.076Y-155.578
X327.076Y-157.61
X327.406Y-151.572
X328.93Y-151.572
X329.438Y-145.222
X330.708Y-152.654
X330.962Y-145.222
X333.248Y-149.032
T4
X327.625Y-170.0
X328.614Y-167.614
X328.614Y-172.386
X331.0Y-166.625
X331.0Y-173.375
X333.386Y-167.614
X333.386Y-172.386
X334.375Y-170.0
T5
X173.542Y-95.553
X173.542Y-98.093
X173.542Y-100.633
X184.042Y-95.646
X184.042Y-98.186
X184.042Y-100.726
X236.375Y-144.235
X236.375Y-146.775
X236.398Y-128.903
X236.398Y-131.443
X236.398Y-133.983
X236.398Y-136.523
X236.398Y-139.063
X238.915Y-144.235
X238.915Y-146.775
X241.455Y-144.235
X241.455Y-146.775
X243.995Y-144.235
X243.995Y-146.775
X246.535Y-144.235
X246.535Y-146.775
X249.075Y-144.235
X249.075Y-146.775
X251.615Y-144.235
X251.615Y-146.775
X311.859Y-139.188
X319.479Y-139.188
X324.559Y-139.188
X332.179Y-139.188
T6
X118.342Y-217.623
X118.342Y-220.623
X121.342Y-217.623
X121.342Y-220.623
X124.342Y-217.623
X124.342Y-220.623
X127.342Y-217.623
X127.342Y-220.623
X130.342Y-217.623
X130.342Y-220.623
X133.342Y-217.623
X133.342Y-220.623
X203.042Y-217.608
X203.042Y-220.608
X206.042Y-217.608
X206.042Y-220.608
X209.042Y-217.608
X209.042Y-220.608
X212.042Y-217.608
X212.042Y-220.608
X215.042Y-217.608
X215.042Y-220.608
X218.042Y-217.608
X218.042Y-220.608
X242.042Y-217.608
X242.042Y-220.608
X245.042Y-217.608
X245.042Y-220.608
X248.042Y-217.608
X248.042Y-220.608
X251.042Y-217.608
X251.042Y-220.608
X254.042Y-217.608
X254.042Y-220.608
X257.042Y-217.608
X257.042Y-220.608
X266.085Y-89.411
X266.085Y-92.411
X269.085Y-89.411
X269.085Y-92.411
X272.085Y-89.411
X272.085Y-92.411
X275.085Y-89.411
X275.085Y-92.411
X278.085Y-89.411
X278.085Y-92.411
X279.042Y-217.608
X279.042Y-220.608
X282.042Y-217.608
X282.042Y-220.608
X285.042Y-217.608
X285.042Y-220.608
X288.042Y-217.608
X288.042Y-220.608
X291.042Y-217.608
X291.042Y-220.608
X294.042Y-217.608
X294.042Y-220.608
X297.76Y-89.387
X297.76Y-92.387
X300.76Y-89.387
X300.76Y-92.387
X303.76Y-89.387
X303.76Y-92.387
X306.76Y-89.387
X306.76Y-92.387
T7
X319.479Y-121.407
X319.479Y-129.028
X332.179Y-121.407
X332.179Y-129.028
T8
X104.5Y-155.5
X104.5Y-159.5
X104.5Y-163.5
X104.5Y-167.5
X104.5Y-171.5
X104.5Y-175.5
X104.5Y-179.5
X104.5Y-183.5
X104.5Y-187.5
X104.5Y-191.5
X104.5Y-195.5
X104.5Y-199.5
X108.5Y-157.5
X108.5Y-161.5
X108.5Y-165.5
X108.5Y-169.5
X108.5Y-173.5
X108.5Y-177.5
X108.5Y-181.5
X108.5Y-185.5
X108.5Y-189.5
X108.5Y-193.5
X108.5Y-197.5
X112.5Y-155.5
X112.5Y-159.5
X112.5Y-163.5
X112.5Y-167.5
X112.5Y-171.5
X112.5Y-175.5
X112.5Y-179.5
X112.5Y-183.5
X112.5Y-187.5
X112.5Y-191.5
X112.5Y-195.5
X112.5Y-199.5
T9
X188.82Y-116.796
X188.82Y-121.876
X188.82Y-126.956
X198.98Y-103.08
X198.98Y-108.16
X264.766Y-178.772
T10
X331.0Y-170.0
T11
X108.0Y-149.0
X108.0Y-206.0
T12
X120.482Y-224.943
X131.182Y-224.943
X205.182Y-224.928
X215.882Y-224.928
X244.182Y-224.928
X254.882Y-224.928
X268.245Y-85.091
X275.945Y-85.091
X281.182Y-224.928
X291.882Y-224.928
X299.92Y-85.067
X304.62Y-85.067
T13
X105.0Y-85.0
X105.0Y-225.0
X174.0Y-137.0
X200.0Y-85.0
X263.0Y-145.0
X331.0Y-85.0
X331.0Y-225.0
M30
