%TF.GenerationSoftware,KiCad,Pcbnew,8.0.4*%
%TF.CreationDate,2024-11-12T22:32:30+03:00*%
%TF.ProjectId,EVD80_ControlBoard,45564438-305f-4436-9f6e-74726f6c426f,rev?*%
%TF.SameCoordinates,Original*%
%TF.FileFunction,Profile,NP*%
%FSLAX46Y46*%
G04 Gerber Fmt 4.6, Leading zero omitted, Abs format (unit mm)*
G04 Created by KiCad (PCBNEW 8.0.4) date 2024-11-12 22:32:30*
%MOMM*%
%LPD*%
G01*
G04 APERTURE LIST*
%TA.AperFunction,Profile*%
%ADD10C,0.100000*%
%TD*%
%ADD11C,0.350000*%
%ADD12C,0.203200*%
G04 APERTURE END LIST*
D10*
X105000000Y-80000000D02*
X331000000Y-80000000D01*
X336000000Y-225000000D02*
G75*
G02*
X331000000Y-230000000I-5000000J0D01*
G01*
X105000000Y-230000000D02*
G75*
G02*
X100000000Y-225000000I0J5000000D01*
G01*
X105000000Y-230000000D02*
X331000000Y-230000000D01*
X100000000Y-85000000D02*
G75*
G02*
X105000000Y-80000000I5000000J0D01*
G01*
X331000000Y-80000000D02*
G75*
G02*
X336000000Y-85000000I0J-5000000D01*
G01*
X336000000Y-85000000D02*
X336000000Y-225000000D01*
X100000000Y-85000000D02*
X100000000Y-225000000D01*
D11*
X188820000Y-121876000D03*
X131182000Y-224943000D03*
X120482000Y-224943000D03*
X133342000Y-220623000D03*
X130342000Y-220623000D03*
X127342000Y-220623000D03*
X124342000Y-220623000D03*
X121342000Y-220623000D03*
X118342000Y-220623000D03*
X133342000Y-217623000D03*
X130342000Y-217623000D03*
X127342000Y-217623000D03*
X124342000Y-217623000D03*
X121342000Y-217623000D03*
X118342000Y-217623000D03*
X236375000Y-146775000D03*
X236375000Y-144235000D03*
X238915000Y-146775000D03*
X238915000Y-144235000D03*
X241455000Y-146775000D03*
X241455000Y-144235000D03*
X243995000Y-146775000D03*
X243995000Y-144235000D03*
X246535000Y-146775000D03*
X246535000Y-144235000D03*
X249075000Y-146775000D03*
X249075000Y-144235000D03*
X251615000Y-146775000D03*
X251615000Y-144235000D03*
X188820000Y-126956000D03*
X198980000Y-103080000D03*
X327625000Y-170000000D03*
X328613515Y-167613515D03*
X328613515Y-172386485D03*
X331000000Y-166625000D03*
X331000000Y-170000000D03*
X331000000Y-173375000D03*
X333386485Y-167613515D03*
X333386485Y-172386485D03*
X334375000Y-170000000D03*
X319479500Y-129027500D03*
X319479500Y-121407500D03*
X319479500Y-139187500D03*
X311859500Y-139187500D03*
X173542500Y-95553000D03*
X173542500Y-98093000D03*
X173542500Y-100633000D03*
D12*
X214699999Y-158300001D03*
X215799999Y-158300001D03*
X216900000Y-158300001D03*
X218000000Y-158300001D03*
X219099998Y-158300001D03*
X220199998Y-158300001D03*
X221299998Y-158300001D03*
X214699999Y-157200001D03*
X215799999Y-157200001D03*
X216900000Y-157200001D03*
X218000000Y-157200001D03*
X219099998Y-157200001D03*
X220199998Y-157200001D03*
X221299998Y-157200001D03*
X214699999Y-156100000D03*
X215799999Y-156100000D03*
X216900000Y-156100000D03*
X218000000Y-156100000D03*
X219099998Y-156100000D03*
X220199998Y-156100000D03*
X221299998Y-156100000D03*
X214699999Y-155000000D03*
X215799999Y-155000000D03*
X216900000Y-155000000D03*
X218000000Y-155000000D03*
X219099998Y-155000000D03*
X220199998Y-155000000D03*
X221299998Y-155000000D03*
X214699999Y-153900002D03*
X215799999Y-153900002D03*
X216900000Y-153900002D03*
X218000000Y-153900002D03*
X219099998Y-153900002D03*
X220199998Y-153900002D03*
X221299998Y-153900002D03*
X214699999Y-152800002D03*
X215799999Y-152800002D03*
X216900000Y-152800002D03*
X218000000Y-152800002D03*
X219099998Y-152800002D03*
X220199998Y-152800002D03*
X221299998Y-152800002D03*
X214699999Y-151700002D03*
X215799999Y-151700002D03*
X216900000Y-151700002D03*
X218000000Y-151700002D03*
X219099998Y-151700002D03*
X220199998Y-151700002D03*
X221299998Y-151700002D03*
D11*
X332179500Y-129027500D03*
X332179500Y-121407500D03*
X332179500Y-139187500D03*
X324559500Y-139187500D03*
X254882000Y-224928000D03*
X244182000Y-224928000D03*
X257042000Y-220608000D03*
X254042000Y-220608000D03*
X251042000Y-220608000D03*
X248042000Y-220608000D03*
X245042000Y-220608000D03*
X242042000Y-220608000D03*
X257042000Y-217608000D03*
X254042000Y-217608000D03*
X251042000Y-217608000D03*
X248042000Y-217608000D03*
X245042000Y-217608000D03*
X242042000Y-217608000D03*
X263000000Y-145000000D03*
X264766000Y-178772000D03*
X200000000Y-85000000D03*
X331000000Y-225000000D03*
X174000000Y-137000000D03*
X236398000Y-139063000D03*
X236398000Y-136523000D03*
X236398000Y-133983000D03*
X236398000Y-131443000D03*
X236398000Y-128903000D03*
X299920000Y-85067000D03*
X304620000Y-85067000D03*
X297760000Y-89387000D03*
X300760000Y-89387000D03*
X303760000Y-89387000D03*
X306760000Y-89387000D03*
X297760000Y-92387000D03*
X300760000Y-92387000D03*
X303760000Y-92387000D03*
X306760000Y-92387000D03*
X105000000Y-225000000D03*
X215882000Y-224928000D03*
X205182000Y-224928000D03*
X218042000Y-220608000D03*
X215042000Y-220608000D03*
X212042000Y-220608000D03*
X209042000Y-220608000D03*
X206042000Y-220608000D03*
X203042000Y-220608000D03*
X218042000Y-217608000D03*
X215042000Y-217608000D03*
X212042000Y-217608000D03*
X209042000Y-217608000D03*
X206042000Y-217608000D03*
X203042000Y-217608000D03*
X331000000Y-85000000D03*
X105000000Y-85000000D03*
X188820000Y-116796000D03*
X291882000Y-224928000D03*
X281182000Y-224928000D03*
X294042000Y-220608000D03*
X291042000Y-220608000D03*
X288042000Y-220608000D03*
X285042000Y-220608000D03*
X282042000Y-220608000D03*
X279042000Y-220608000D03*
X294042000Y-217608000D03*
X291042000Y-217608000D03*
X288042000Y-217608000D03*
X285042000Y-217608000D03*
X282042000Y-217608000D03*
X279042000Y-217608000D03*
X268245000Y-85091000D03*
X275945000Y-85091000D03*
X266085000Y-89411000D03*
X269085000Y-89411000D03*
X272085000Y-89411000D03*
X275085000Y-89411000D03*
X278085000Y-89411000D03*
X266085000Y-92411000D03*
X269085000Y-92411000D03*
X272085000Y-92411000D03*
X275085000Y-92411000D03*
X278085000Y-92411000D03*
X198980000Y-108160000D03*
X184042500Y-95646000D03*
X184042500Y-98186000D03*
X184042500Y-100726000D03*
X108000000Y-206000000D03*
X108000000Y-149000000D03*
X112500000Y-199500000D03*
X112500000Y-195500000D03*
X112500000Y-191500000D03*
X112500000Y-187500000D03*
X112500000Y-183500000D03*
X112500000Y-179500000D03*
X112500000Y-175500000D03*
X112500000Y-171500000D03*
X112500000Y-167500000D03*
X112500000Y-163500000D03*
X112500000Y-159500000D03*
X112500000Y-155500000D03*
X108500000Y-197500000D03*
X108500000Y-193500000D03*
X108500000Y-189500000D03*
X108500000Y-185500000D03*
X108500000Y-181500000D03*
X108500000Y-177500000D03*
X108500000Y-173500000D03*
X108500000Y-169500000D03*
X108500000Y-165500000D03*
X108500000Y-161500000D03*
X108500000Y-157500000D03*
X104500000Y-199500000D03*
X104500000Y-195500000D03*
X104500000Y-191500000D03*
X104500000Y-187500000D03*
X104500000Y-183500000D03*
X104500000Y-179500000D03*
X104500000Y-175500000D03*
X104500000Y-171500000D03*
X104500000Y-167500000D03*
X104500000Y-163500000D03*
X104500000Y-159500000D03*
X104500000Y-155500000D03*
M02*
