M48
METRIC,TZ
T1C2.850
T2C3.000
T3C4.500
%
G90
G05
T1
X108000Y-149000
X108000Y-206000
T2
X120482Y-224943
X131182Y-224943
X205182Y-224928
X215882Y-224928
X244182Y-224928
X254882Y-224928
X268245Y-85091
X275945Y-85091
X281182Y-224928
X291882Y-224928
X299920Y-85067
X304620Y-85067
T3
X105000Y-85000
X105000Y-225000
X174000Y-137000
X200000Y-85000
X263000Y-145000
X331000Y-85000
X331000Y-225000
M30
