M48
METRIC,TZ
T1C0.200
T2C0.203
T3C0.400
T4C0.600
T5C1.000
T6C1.020
T7C1.200
T8C1.750
T9C2.000
T10C4.500
%
G90
G05
T1
X121375Y-213593
X125439Y-213517
X127810Y-207212
X131874Y-207136
X135642Y-217808
X136410Y-213612
X136642Y-217808
X138862Y-148466
X139116Y-157102
X140474Y-213536
X142610Y-207212
X146674Y-207136
X148260Y-135004
X168580Y-171326
X174930Y-163706
X177470Y-162436
X180242Y-176208
X182804Y-157356
X183820Y-156340
X196048Y-206422
X196056Y-143893
X196056Y-150593
X196242Y-167408
X197242Y-158608
X198120Y-143893
X198120Y-150593
X199042Y-157211
X199842Y-148008
X200042Y-157208
X200242Y-208408
X200457Y-145672
X200642Y-157750
X200787Y-142113
X201042Y-158300
X201554Y-158800
X201600Y-164750
X201646Y-146181
X201969Y-159300
X202000Y-164100
X202042Y-148008
X202048Y-206422
X202385Y-159800
X202498Y-163552
X202500Y-162000
X202511Y-162789
X202777Y-148073
X202800Y-160300
X203327Y-146177
X203660Y-154661
X203900Y-147200
X203962Y-139954
X204724Y-142113
X204978Y-136017
X205359Y-142113
X206112Y-206346
X206500Y-146250
X206500Y-147000
X206500Y-151100
X206500Y-153400
X206500Y-154500
X206500Y-156400
X206500Y-157500
X206500Y-161750
X206500Y-162500
X206502Y-136017
X206680Y-164722
X207696Y-169421
X208000Y-140000
X208000Y-166500
X208733Y-166488
X209950Y-143500
X210750Y-141000
X210900Y-143650
X212000Y-143450
X212250Y-166500
X213299Y-141000
X213448Y-206222
X213450Y-143500
X214000Y-166500
X214300Y-143500
X215000Y-166500
X215250Y-143500
X216332Y-169040
X216400Y-140000
X216500Y-166500
X216600Y-143500
X217500Y-166500
X217512Y-206146
X219448Y-206222
X219750Y-166500
X219904Y-135414
X220250Y-143500
X222555Y-166373
X223190Y-166373
X223512Y-206146
X223750Y-143500
X223825Y-166373
X224200Y-169000
X224750Y-166500
X225000Y-169000
X225104Y-135314
X225104Y-139314
X225442Y-206208
X227350Y-143500
X228442Y-174008
X228778Y-162182
X228778Y-162817
X228778Y-163452
X229500Y-144250
X229500Y-147750
X229500Y-150250
X229500Y-151250
X229500Y-152500
X229500Y-154500
X229500Y-157000
X229500Y-158000
X229500Y-161250
X229642Y-206208
X230442Y-176008
X231448Y-206222
X231900Y-160900
X231900Y-161674
X235442Y-215158
X235512Y-206146
X236642Y-215208
X239200Y-141450
X243042Y-206008
X245922Y-174858
X247042Y-206008
X249048Y-206022
X253112Y-205946
X254650Y-144800
X254650Y-146200
X255042Y-206008
X259042Y-206008
X261048Y-206031
X265112Y-205955
X267242Y-217408
X269242Y-217408
X272442Y-206008
X276442Y-206008
X278448Y-206084
X282512Y-206009
T2
X214700Y-151700
X214700Y-152800
X214700Y-153900
X214700Y-155000
X214700Y-156100
X214700Y-157200
X214700Y-158300
X215800Y-151700
X215800Y-152800
X215800Y-153900
X215800Y-155000
X215800Y-156100
X215800Y-157200
X215800Y-158300
X216900Y-151700
X216900Y-152800
X216900Y-153900
X216900Y-155000
X216900Y-156100
X216900Y-157200
X216900Y-158300
X218000Y-151700
X218000Y-152800
X218000Y-153900
X218000Y-155000
X218000Y-156100
X218000Y-157200
X218000Y-158300
X219100Y-151700
X219100Y-152800
X219100Y-153900
X219100Y-155000
X219100Y-156100
X219100Y-157200
X219100Y-158300
X220200Y-151700
X220200Y-152800
X220200Y-153900
X220200Y-155000
X220200Y-156100
X220200Y-157200
X220200Y-158300
X221300Y-151700
X221300Y-152800
X221300Y-153900
X221300Y-155000
X221300Y-156100
X221300Y-157200
X221300Y-158300
T3
X101600Y-115758
X101600Y-117028
X101600Y-118298
X101600Y-119568
X101600Y-120838
X101600Y-122108
X101600Y-123378
X101600Y-124648
X101600Y-125918
X101600Y-127188
X102870Y-125918
X102870Y-127188
X104140Y-91628
X104140Y-92898
X104140Y-94168
X104140Y-95438
X104140Y-96708
X104140Y-97978
X104140Y-99248
X104140Y-100518
X104140Y-101788
X104140Y-103058
X104140Y-104328
X104140Y-105598
X104140Y-107884
X104140Y-109154
X104140Y-110424
X104140Y-111694
X104140Y-112964
X104140Y-125918
X104140Y-127188
X105410Y-91628
X105410Y-92898
X105410Y-94168
X105410Y-95438
X105410Y-96708
X105410Y-97978
X105410Y-99248
X105410Y-100518
X105410Y-101788
X105410Y-103058
X105410Y-104328
X105410Y-105598
X105410Y-125918
X105410Y-127188
X106680Y-91628
X106680Y-92898
X106680Y-125918
X106680Y-127188
X107500Y-143250
X107950Y-91628
X107950Y-92898
X107950Y-107884
X107950Y-109154
X107950Y-110424
X107950Y-111694
X107950Y-112964
X107950Y-125918
X107950Y-127188
X109220Y-91628
X109220Y-92898
X109220Y-125918
X109220Y-127188
X110490Y-91628
X110490Y-92898
X110490Y-125918
X110490Y-127188
X111760Y-81722
X111760Y-82992
X111760Y-90358
X111760Y-91628
X111760Y-92898
X111760Y-125918
X111760Y-127188
X112522Y-110805
X113030Y-81722
X113030Y-82992
X113030Y-90358
X113030Y-91628
X113030Y-92898
X113030Y-125918
X113030Y-127188
X114300Y-81722
X114300Y-82992
X114300Y-90358
X114300Y-91628
X114300Y-92898
X114300Y-125918
X114300Y-127188
X114300Y-128458
X114300Y-129728
X114300Y-130998
X114300Y-132268
X114300Y-133538
X114300Y-134808
X114300Y-136078
X114300Y-137348
X115394Y-208430
X115394Y-211986
X115570Y-81722
X115570Y-82992
X115570Y-90358
X115570Y-91628
X115570Y-92898
X115570Y-115758
X115570Y-117028
X115570Y-118298
X115570Y-119568
X115570Y-120838
X115570Y-122108
X115570Y-123378
X115570Y-124648
X115570Y-125918
X115570Y-127188
X115570Y-128458
X115570Y-129728
X115570Y-130998
X115570Y-132268
X115570Y-133538
X115570Y-134808
X115570Y-136078
X115570Y-137348
X116156Y-206906
X116421Y-203242
X116840Y-115758
X116840Y-117028
X117426Y-216050
X118364Y-94422
X118364Y-95946
X118364Y-99248
X118364Y-101026
X118364Y-104582
X118442Y-210208
X118453Y-203242
X118618Y-149860
X118618Y-158496
X118618Y-167132
X118872Y-106995
X118872Y-108265
X118872Y-109535
X118872Y-110805
X118872Y-112075
X119304Y-184534
X119458Y-216050
X119558Y-173612
X119558Y-180216
X119558Y-186820
X119558Y-193424
X119634Y-94422
X119634Y-95946
X119634Y-99248
X119634Y-101026
X119634Y-104582
X120142Y-106995
X120142Y-112075
X120904Y-94422
X120904Y-95946
X120904Y-99248
X120904Y-101026
X120904Y-104582
X121412Y-106995
X121412Y-112075
X122174Y-94422
X122174Y-95946
X122174Y-99248
X122174Y-101026
X122174Y-104582
X122442Y-196008
X122682Y-106995
X122682Y-112075
X123407Y-199369
X123952Y-115250
X123952Y-116520
X124460Y-81722
X124460Y-82992
X124460Y-90358
X124460Y-91628
X124968Y-112202
X125185Y-199369
X125222Y-115250
X125222Y-116520
X125730Y-81722
X125730Y-82992
X125730Y-90358
X125730Y-91628
X125984Y-118298
X125984Y-119568
X125984Y-120838
X125984Y-122108
X125984Y-123378
X125984Y-124648
X125984Y-125918
X125984Y-127188
X125984Y-128458
X125984Y-129728
X125984Y-130998
X125984Y-132268
X125984Y-133538
X125984Y-134808
X125984Y-136078
X125984Y-137348
X126238Y-112202
X126746Y-93406
X126746Y-94676
X126746Y-95946
X126746Y-97216
X126746Y-98486
X126746Y-99756
X126746Y-101026
X127000Y-81722
X127000Y-82992
X127000Y-90358
X127000Y-91628
X127000Y-106741
X127254Y-118298
X127254Y-119568
X127254Y-120838
X127254Y-122108
X127254Y-123378
X127254Y-124648
X127254Y-125918
X127254Y-127188
X127254Y-128458
X127254Y-129728
X127254Y-130998
X127254Y-132268
X127254Y-133538
X127254Y-134808
X127254Y-136078
X127254Y-137348
X127508Y-112202
X128016Y-93406
X128778Y-107122
X128778Y-108392
X128778Y-109662
X128778Y-110932
X128778Y-112202
X129286Y-93406
X129464Y-171580
X129464Y-173866
X129464Y-177930
X129464Y-180470
X129464Y-184534
X129464Y-186820
X129464Y-191138
X129464Y-193678
X130302Y-104328
X130556Y-93406
X131572Y-106614
X131572Y-107884
X131826Y-93406
X132080Y-136906
X132461Y-118044
X132537Y-122359
X132842Y-106614
X132842Y-107884
X133096Y-93406
X133350Y-82484
X133350Y-85786
X133350Y-87564
X133350Y-90866
X134061Y-118295
X134112Y-106614
X134112Y-107884
X134112Y-112964
X134151Y-114322
X134366Y-93406
X134620Y-82484
X134620Y-85786
X134620Y-87564
X134620Y-90866
X135042Y-196608
X135128Y-145288
X135128Y-153924
X135128Y-162560
X135382Y-106614
X135382Y-107884
X135636Y-93406
X135636Y-94676
X135636Y-95946
X135636Y-97216
X135636Y-98486
X135636Y-99756
X135636Y-101026
X135636Y-114488
X135636Y-115758
X135636Y-117028
X135636Y-118298
X135890Y-82484
X135890Y-85786
X135890Y-87564
X135890Y-90866
X136779Y-114488
X136779Y-115758
X136779Y-117028
X136779Y-118298
X137160Y-82484
X137160Y-85786
X137160Y-87564
X137160Y-90866
X137160Y-133350
X137160Y-149352
X137160Y-157988
X137160Y-166624
X137500Y-126500
X138442Y-199388
X138789Y-112097
X139065Y-107757
X139395Y-121724
X139446Y-137160
X139497Y-143767
X139497Y-152403
X139497Y-160023
X139500Y-126500
X139700Y-93660
X139700Y-94930
X139954Y-135890
X140220Y-199388
X140538Y-121724
X140970Y-93660
X140970Y-94930
X141478Y-149860
X141478Y-158496
X141478Y-163576
X141500Y-126500
X141681Y-111313
X141732Y-135890
X141910Y-182756
X142240Y-93660
X142240Y-94930
X142418Y-171580
X142418Y-178184
X142418Y-184788
X142418Y-189106
X142418Y-191392
X143500Y-126500
X143510Y-93660
X143510Y-94930
X144018Y-110170
X144780Y-93660
X144780Y-94930
X145085Y-132083
X145085Y-134115
X145500Y-126500
X145923Y-114488
X145923Y-115758
X145923Y-117028
X145923Y-118298
X146050Y-93660
X146050Y-94930
X146050Y-108900
X146304Y-160274
X147066Y-114488
X147066Y-115758
X147066Y-117028
X147066Y-118298
X147320Y-93660
X147320Y-94930
X147752Y-119692
X147752Y-127511
X147828Y-106106
X147828Y-107376
X148512Y-219738
X148590Y-93660
X148590Y-94930
X149098Y-106106
X149098Y-107376
X149860Y-93660
X149860Y-94930
X150368Y-106106
X150368Y-107376
X150817Y-215643
X151130Y-80960
X151130Y-82230
X151130Y-83500
X151130Y-84770
X151130Y-86040
X151130Y-87310
X151130Y-88580
X151130Y-89850
X151130Y-91120
X151130Y-92390
X151130Y-93660
X151130Y-94930
X151638Y-106106
X151638Y-107376
X152070Y-176660
X152324Y-168278
X152324Y-171580
X152324Y-178438
X152324Y-182756
X152324Y-184788
X152324Y-189106
X152324Y-191392
X152400Y-80960
X152400Y-82230
X152400Y-83500
X152400Y-84770
X152400Y-86040
X152400Y-87310
X152400Y-88580
X152400Y-89850
X152400Y-91120
X152400Y-92390
X152400Y-93660
X152400Y-94930
X152400Y-115316
X152908Y-106106
X152908Y-107376
X152908Y-126238
X153642Y-221008
X153670Y-93660
X153670Y-94930
X154178Y-106106
X154178Y-107376
X154217Y-215643
X154940Y-93660
X154940Y-94930
X155448Y-106106
X155448Y-107376
X156210Y-93660
X156210Y-94930
X156464Y-116586
X156464Y-118364
X156718Y-106106
X156718Y-107376
X157480Y-93660
X157480Y-94930
X157480Y-119888
X157988Y-106106
X157988Y-107376
X157988Y-145288
X157988Y-153924
X158242Y-161544
X158442Y-200408
X158496Y-122428
X158750Y-93660
X158750Y-94930
X159182Y-125225
X159182Y-127384
X159258Y-106106
X159258Y-107376
X159442Y-222408
X160020Y-149352
X160020Y-157988
X160267Y-209373
X160274Y-96200
X160274Y-97470
X160274Y-104074
X160274Y-105344
X161544Y-96200
X161544Y-97470
X161544Y-104074
X161544Y-105344
X161867Y-209373
X162642Y-222408
X162814Y-96200
X162814Y-97470
X162814Y-104074
X162814Y-105344
X162817Y-217443
X162902Y-203408
X164084Y-96200
X164084Y-97470
X164084Y-104074
X164084Y-105344
X166017Y-223843
X166067Y-209973
X166217Y-220643
X166432Y-203408
X167132Y-115214
X167132Y-116484
X167132Y-117754
X167132Y-119024
X167132Y-206608
X169242Y-218408
X171450Y-102645
X171450Y-105185
X171450Y-107725
X171450Y-110265
X171642Y-201808
X171817Y-215443
X172017Y-226043
X172210Y-116394
X172267Y-212253
X173482Y-102645
X173482Y-110265
X173482Y-117348
X174267Y-210973
X174442Y-224808
X174842Y-201808
X175017Y-215443
X176022Y-119888
X176628Y-126194
X176844Y-105713
X177217Y-226043
X177267Y-212253
X178054Y-119888
X179131Y-88441
X179131Y-90473
X180217Y-222643
X180267Y-208773
X180267Y-212008
X180417Y-219443
X180572Y-205678
X180594Y-119888
X181356Y-125222
X181356Y-126492
X181864Y-102645
X181864Y-105185
X181864Y-107725
X181864Y-110265
X182600Y-123950
X182626Y-125222
X182626Y-126492
X183417Y-226243
X183432Y-212008
X183896Y-102645
X183896Y-110265
X183896Y-123952
X183896Y-125222
X183896Y-126492
X184617Y-220043
X184667Y-206173
X184853Y-181289
X184853Y-182813
X184853Y-184337
X186217Y-206223
X186217Y-220043
X187344Y-105806
X187901Y-183575
X189631Y-88534
X189631Y-90566
X190695Y-189798
X190949Y-179511
X190949Y-187639
X194442Y-147008
X194442Y-148955
X195775Y-173288
X196442Y-138008
X196810Y-195246
X197142Y-136608
X198080Y-192618
X198188Y-175828
X198188Y-190052
X198696Y-185480
X198976Y-133332
X201008Y-133332
X202302Y-192693
X203600Y-130300
X204080Y-192693
X205880Y-192618
X206229Y-88519
X206229Y-90297
X206229Y-92075
X206229Y-99695
X206229Y-101473
X206229Y-103251
X206870Y-207348
X206870Y-208872
X207500Y-134000
X207794Y-214160
X208007Y-85471
X208007Y-96647
X208648Y-205570
X209500Y-126500
X209730Y-199054
X210680Y-208618
X210693Y-138684
X211630Y-198890
X211650Y-177225
X211650Y-178495
X211650Y-181035
X211650Y-186115
X211650Y-188655
X212920Y-184845
X213174Y-178495
X213174Y-181035
X214200Y-138600
X214952Y-179765
X214952Y-182305
X215500Y-126500
X215754Y-88138
X215754Y-92202
X215754Y-99314
X215754Y-103378
X215968Y-181162
X217042Y-199208
X217200Y-134100
X219056Y-88392
X219056Y-99568
X219702Y-192493
X221100Y-130200
X221480Y-192493
X221596Y-92456
X221596Y-103632
X223280Y-192418
X223444Y-83188
X223444Y-94618
X224136Y-89408
X224136Y-100584
X225660Y-92456
X225660Y-103632
X227680Y-192418
X229724Y-88646
X229724Y-90424
X229724Y-92202
X229724Y-99822
X229724Y-101600
X229724Y-103378
X230810Y-100714
X231000Y-167700
X231702Y-192493
X232334Y-105032
X233480Y-192493
X234296Y-101346
X235280Y-192418
X235636Y-86617
X235966Y-168148
X236242Y-165808
X236324Y-213218
X236470Y-207348
X236470Y-208872
X236474Y-163830
X236652Y-95634
X236990Y-93804
X238248Y-205570
X238768Y-90757
X239330Y-198923
X239776Y-160658
X240250Y-154300
X240280Y-208618
X240546Y-93804
X241230Y-199008
X241408Y-100076
X241642Y-213208
X242170Y-104140
X242932Y-100076
X243848Y-85090
X244018Y-86744
X244356Y-89995
X244356Y-91773
X244356Y-93551
X245218Y-99060
X245618Y-158372
X246126Y-149484
X246126Y-153284
X246558Y-131448
X246558Y-133988
X246558Y-136528
X246558Y-139068
X246888Y-168656
X246888Y-170180
X246888Y-171704
X247042Y-199008
X247396Y-157480
X248666Y-156464
X248971Y-102238
X249302Y-192293
X249682Y-176022
X249733Y-104651
X250190Y-155448
X250444Y-165100
X250806Y-89662
X250806Y-91694
X251080Y-192293
X251460Y-175006
X251714Y-165100
X252880Y-192218
X253222Y-170158
X254686Y-166358
X255524Y-163322
X256540Y-175006
X257048Y-162306
X257283Y-100076
X257480Y-192218
X257556Y-165100
X258064Y-170180
X258572Y-175768
X259188Y-89662
X259823Y-93472
X259823Y-95250
X261112Y-168910
X261112Y-171450
X261302Y-192302
X261982Y-102743
X262744Y-106934
X262744Y-108966
X263080Y-192302
X264880Y-192218
X265538Y-124714
X265792Y-118110
X265870Y-207411
X265870Y-208934
X265880Y-213218
X266046Y-101219
X266700Y-169215
X267424Y-165862
X267424Y-167386
X267570Y-124714
X267648Y-205633
X267716Y-174549
X268224Y-168402
X268586Y-110236
X268680Y-198608
X268840Y-106934
X268840Y-108966
X268910Y-137163
X268910Y-138560
X269680Y-208681
X269856Y-117348
X269856Y-118872
X270110Y-110236
X270680Y-198608
X270872Y-121158
X271042Y-213208
X276442Y-199408
X277222Y-106934
X277222Y-108966
X277603Y-101346
X278702Y-192369
X280016Y-124714
X280270Y-118110
X280480Y-192369
X281286Y-101346
X282048Y-124714
X282280Y-192418
X283064Y-110236
X283318Y-106934
X283318Y-108966
X284207Y-122428
X284334Y-117348
X284334Y-118872
X284588Y-110236
X294447Y-205385
X296098Y-197928
X296098Y-199960
X296098Y-208560
X296225Y-180728
X296225Y-182760
X296225Y-189128
X296225Y-191160
X296352Y-173728
X296352Y-175760
X296606Y-166038
X296606Y-168070
X297688Y-128712
X300162Y-170102
X300162Y-177792
X300162Y-184792
X300162Y-193192
X300162Y-201992
X300162Y-210592
X300914Y-133226
X300914Y-135258
X301686Y-170864
X301686Y-178554
X301686Y-185808
X301686Y-194208
X301686Y-203008
X301686Y-211608
X302260Y-130236
X302692Y-146356
X302709Y-144713
X303464Y-168070
X303464Y-175760
X303464Y-182760
X303464Y-191160
X303464Y-199960
X303464Y-208560
X303471Y-148142
X303598Y-156524
X305054Y-128458
X305242Y-170864
X305242Y-178554
X305242Y-185808
X305242Y-194208
X305242Y-203008
X305242Y-211608
X305376Y-156524
X306011Y-143189
X306375Y-131321
X306832Y-128458
X307274Y-167054
X307274Y-169086
X307274Y-174744
X307274Y-176776
X308290Y-187078
X308290Y-195478
X308290Y-204278
X308290Y-212878
X308544Y-170864
X308544Y-178554
X308798Y-165022
X308798Y-172712
X309814Y-185808
X309814Y-194208
X309814Y-203008
X309814Y-211608
X310134Y-142161
X310947Y-148961
X311341Y-166495
X311341Y-174185
X311592Y-182760
X311592Y-191160
X311592Y-199960
X311592Y-208560
X312725Y-148707
X312979Y-153787
X313360Y-155451
X313360Y-157483
X313370Y-185808
X313370Y-194208
X313370Y-203008
X313370Y-211608
X313690Y-140637
X313741Y-151501
X315265Y-151501
X315529Y-181744
X315529Y-190144
X315529Y-199071
X315529Y-207544
X315722Y-94168
X315722Y-95184
X315773Y-145151
X316672Y-200976
X316672Y-209576
X316926Y-183776
X316926Y-192176
X316992Y-152146
X317297Y-145151
X317434Y-181744
X317434Y-190144
X317561Y-198944
X317561Y-207544
X319583Y-148961
X320242Y-166008
X320242Y-167608
X320242Y-169008
X320242Y-170608
X320242Y-173608
X320242Y-175208
X320242Y-176608
X320242Y-178208
X322834Y-142174
X324612Y-149032
X326390Y-140650
X326390Y-148778
X326644Y-153858
X327076Y-155578
X327076Y-157610
X327406Y-151572
X328930Y-151572
X329438Y-145222
X330708Y-152654
X330962Y-145222
X333248Y-149032
T4
X327625Y-170000
X328614Y-167614
X328614Y-172386
X331000Y-166625
X331000Y-173375
X333386Y-167614
X333386Y-172386
X334375Y-170000
T5
X173543Y-95553
X173543Y-98093
X173543Y-100633
X184043Y-95646
X184043Y-98186
X184043Y-100726
X236375Y-144235
X236375Y-146775
X236398Y-128903
X236398Y-131443
X236398Y-133983
X236398Y-136523
X236398Y-139063
X238915Y-144235
X238915Y-146775
X241455Y-144235
X241455Y-146775
X243995Y-144235
X243995Y-146775
X246535Y-144235
X246535Y-146775
X249075Y-144235
X249075Y-146775
X251615Y-144235
X251615Y-146775
X311860Y-139188
X319480Y-139188
X324559Y-139188
X332180Y-139188
T6
X118342Y-217623
X118342Y-220623
X121342Y-217623
X121342Y-220623
X124342Y-217623
X124342Y-220623
X127342Y-217623
X127342Y-220623
X130342Y-217623
X130342Y-220623
X133342Y-217623
X133342Y-220623
X203042Y-217608
X203042Y-220608
X206042Y-217608
X206042Y-220608
X209042Y-217608
X209042Y-220608
X212042Y-217608
X212042Y-220608
X215042Y-217608
X215042Y-220608
X218042Y-217608
X218042Y-220608
X242042Y-217608
X242042Y-220608
X245042Y-217608
X245042Y-220608
X248042Y-217608
X248042Y-220608
X251042Y-217608
X251042Y-220608
X254042Y-217608
X254042Y-220608
X257042Y-217608
X257042Y-220608
X266085Y-89411
X266085Y-92411
X269085Y-89411
X269085Y-92411
X272085Y-89411
X272085Y-92411
X275085Y-89411
X275085Y-92411
X278085Y-89411
X278085Y-92411
X279042Y-217608
X279042Y-220608
X282042Y-217608
X282042Y-220608
X285042Y-217608
X285042Y-220608
X288042Y-217608
X288042Y-220608
X291042Y-217608
X291042Y-220608
X294042Y-217608
X294042Y-220608
X297760Y-89387
X297760Y-92387
X300760Y-89387
X300760Y-92387
X303760Y-89387
X303760Y-92387
X306760Y-89387
X306760Y-92387
T7
X319480Y-121408
X319480Y-129028
X332180Y-121408
X332180Y-129028
T8
X104500Y-155500
X104500Y-159500
X104500Y-163500
X104500Y-167500
X104500Y-171500
X104500Y-175500
X104500Y-179500
X104500Y-183500
X104500Y-187500
X104500Y-191500
X104500Y-195500
X104500Y-199500
X108500Y-157500
X108500Y-161500
X108500Y-165500
X108500Y-169500
X108500Y-173500
X108500Y-177500
X108500Y-181500
X108500Y-185500
X108500Y-189500
X108500Y-193500
X108500Y-197500
X112500Y-155500
X112500Y-159500
X112500Y-163500
X112500Y-167500
X112500Y-171500
X112500Y-175500
X112500Y-179500
X112500Y-183500
X112500Y-187500
X112500Y-191500
X112500Y-195500
X112500Y-199500
T9
X188820Y-116796
X188820Y-121876
X188820Y-126956
X198980Y-103080
X198980Y-108160
X264766Y-178772
T10
X331000Y-170000
M30
