%TF.GenerationSoftware,KiCad,Pcbnew,8.0.4*%
%TF.CreationDate,2024-11-14T11:07:33+03:00*%
%TF.ProjectId,EVD80_ControlBoard,45564438-305f-4436-9f6e-74726f6c426f,rev?*%
%TF.SameCoordinates,Original*%
%TF.FileFunction,Paste,Bot*%
%TF.FilePolarity,Positive*%
%FSLAX46Y46*%
G04 Gerber Fmt 4.6, Leading zero omitted, Abs format (unit mm)*
G04 Created by KiCad (PCBNEW 8.0.4) date 2024-11-14 11:07:33*
%MOMM*%
%LPD*%
G01*
G04 APERTURE LIST*
G04 Aperture macros list*
%AMRoundRect*
0 Rectangle with rounded corners*
0 $1 Rounding radius*
0 $2 $3 $4 $5 $6 $7 $8 $9 X,Y pos of 4 corners*
0 Add a 4 corners polygon primitive as box body*
4,1,4,$2,$3,$4,$5,$6,$7,$8,$9,$2,$3,0*
0 Add four circle primitives for the rounded corners*
1,1,$1+$1,$2,$3*
1,1,$1+$1,$4,$5*
1,1,$1+$1,$6,$7*
1,1,$1+$1,$8,$9*
0 Add four rect primitives between the rounded corners*
20,1,$1+$1,$2,$3,$4,$5,0*
20,1,$1+$1,$4,$5,$6,$7,0*
20,1,$1+$1,$6,$7,$8,$9,0*
20,1,$1+$1,$8,$9,$2,$3,0*%
G04 Aperture macros list end*
%ADD10RoundRect,0.225000X0.225000X0.250000X-0.225000X0.250000X-0.225000X-0.250000X0.225000X-0.250000X0*%
%ADD11RoundRect,0.225000X-0.225000X-0.250000X0.225000X-0.250000X0.225000X0.250000X-0.225000X0.250000X0*%
%ADD12RoundRect,0.225000X0.250000X-0.225000X0.250000X0.225000X-0.250000X0.225000X-0.250000X-0.225000X0*%
%ADD13RoundRect,0.200000X-0.275000X0.200000X-0.275000X-0.200000X0.275000X-0.200000X0.275000X0.200000X0*%
%ADD14RoundRect,0.225000X-0.250000X0.225000X-0.250000X-0.225000X0.250000X-0.225000X0.250000X0.225000X0*%
%ADD15RoundRect,0.218750X-0.218750X-0.256250X0.218750X-0.256250X0.218750X0.256250X-0.218750X0.256250X0*%
%ADD16RoundRect,0.218750X0.218750X0.256250X-0.218750X0.256250X-0.218750X-0.256250X0.218750X-0.256250X0*%
%ADD17RoundRect,0.150000X0.150000X-0.587500X0.150000X0.587500X-0.150000X0.587500X-0.150000X-0.587500X0*%
%ADD18RoundRect,0.200000X0.275000X-0.200000X0.275000X0.200000X-0.275000X0.200000X-0.275000X-0.200000X0*%
%ADD19RoundRect,0.200000X-0.200000X-0.275000X0.200000X-0.275000X0.200000X0.275000X-0.200000X0.275000X0*%
G04 APERTURE END LIST*
D10*
%TO.C,C55*%
X209275000Y-147800000D03*
X207725000Y-147800000D03*
%TD*%
D11*
%TO.C,C26*%
X213725000Y-140000000D03*
X215275000Y-140000000D03*
%TD*%
D12*
%TO.C,C48*%
X228300000Y-146275000D03*
X228300000Y-144725000D03*
%TD*%
D13*
%TO.C,R14*%
X253652000Y-143151000D03*
X253652000Y-144801000D03*
%TD*%
D12*
%TO.C,C25*%
X212350000Y-146275000D03*
X212350000Y-144725000D03*
%TD*%
D10*
%TO.C,C56*%
X209275000Y-151100000D03*
X207725000Y-151100000D03*
%TD*%
D14*
%TO.C,C40*%
X213650000Y-163725000D03*
X213650000Y-165275000D03*
%TD*%
D12*
%TO.C,C49*%
X226700000Y-146275000D03*
X226700000Y-144725000D03*
%TD*%
D11*
%TO.C,C20*%
X226725000Y-158000000D03*
X228275000Y-158000000D03*
%TD*%
D10*
%TO.C,C57*%
X209275000Y-152800000D03*
X207725000Y-152800000D03*
%TD*%
D13*
%TO.C,R18*%
X198120000Y-147968000D03*
X198120000Y-149618000D03*
%TD*%
D14*
%TO.C,C19*%
X218300000Y-163725000D03*
X218300000Y-165275000D03*
%TD*%
%TO.C,C28*%
X201803000Y-143624000D03*
X201803000Y-145174000D03*
%TD*%
D15*
%TO.C,L4*%
X201777500Y-142113000D03*
X203352500Y-142113000D03*
%TD*%
D13*
%TO.C,R12*%
X196056000Y-147968000D03*
X196056000Y-149618000D03*
%TD*%
D14*
%TO.C,C42*%
X216750000Y-163725000D03*
X216750000Y-165275000D03*
%TD*%
D16*
%TO.C,L6*%
X234100000Y-168000000D03*
X232525000Y-168000000D03*
%TD*%
D12*
%TO.C,C36*%
X206502000Y-138489000D03*
X206502000Y-136939000D03*
%TD*%
D10*
%TO.C,C24*%
X210750000Y-140000000D03*
X209200000Y-140000000D03*
%TD*%
D17*
%TO.C,U9*%
X223454000Y-138351500D03*
X221554000Y-138351500D03*
X222504000Y-136476500D03*
%TD*%
D10*
%TO.C,C32*%
X209275000Y-156200000D03*
X207725000Y-156200000D03*
%TD*%
D12*
%TO.C,C35*%
X204978000Y-138489000D03*
X204978000Y-136939000D03*
%TD*%
D10*
%TO.C,C27*%
X209275000Y-146250000D03*
X207725000Y-146250000D03*
%TD*%
D14*
%TO.C,C39*%
X212100000Y-163725000D03*
X212100000Y-165275000D03*
%TD*%
D10*
%TO.C,C29*%
X228275000Y-161250000D03*
X226725000Y-161250000D03*
%TD*%
D11*
%TO.C,C21*%
X226725000Y-150380000D03*
X228275000Y-150380000D03*
%TD*%
D13*
%TO.C,R17*%
X198120000Y-144868000D03*
X198120000Y-146518000D03*
%TD*%
D11*
%TO.C,C46*%
X226725000Y-151904000D03*
X228275000Y-151904000D03*
%TD*%
D14*
%TO.C,C18*%
X215198000Y-163725000D03*
X215198000Y-165275000D03*
%TD*%
D11*
%TO.C,C47*%
X226725000Y-148850000D03*
X228275000Y-148850000D03*
%TD*%
D12*
%TO.C,C31*%
X224750000Y-165275000D03*
X224750000Y-163725000D03*
%TD*%
D14*
%TO.C,C33*%
X203327000Y-143624000D03*
X203327000Y-145174000D03*
%TD*%
D18*
%TO.C,R13*%
X253652000Y-147849000D03*
X253652000Y-146199000D03*
%TD*%
D10*
%TO.C,C58*%
X209275000Y-157900000D03*
X207725000Y-157900000D03*
%TD*%
D19*
%TO.C,R16*%
X236820000Y-142203000D03*
X238470000Y-142203000D03*
%TD*%
D15*
%TO.C,L5*%
X204952500Y-140000000D03*
X206527500Y-140000000D03*
%TD*%
D10*
%TO.C,C59*%
X209275000Y-161750000D03*
X207725000Y-161750000D03*
%TD*%
%TO.C,C37*%
X209275000Y-164850000D03*
X207725000Y-164850000D03*
%TD*%
D12*
%TO.C,C54*%
X210800000Y-146275000D03*
X210800000Y-144725000D03*
%TD*%
%TO.C,C41*%
X232512500Y-166475000D03*
X232512500Y-164925000D03*
%TD*%
D10*
%TO.C,C22*%
X228275000Y-153428000D03*
X226725000Y-153428000D03*
%TD*%
D12*
%TO.C,C38*%
X234112500Y-166475000D03*
X234112500Y-164925000D03*
%TD*%
%TO.C,C52*%
X217000000Y-146275000D03*
X217000000Y-144725000D03*
%TD*%
%TO.C,C51*%
X220250000Y-146275000D03*
X220250000Y-144725000D03*
%TD*%
D10*
%TO.C,C34*%
X209275000Y-163300000D03*
X207725000Y-163300000D03*
%TD*%
D11*
%TO.C,C45*%
X226725000Y-154952000D03*
X228275000Y-154952000D03*
%TD*%
D12*
%TO.C,C50*%
X223750000Y-146275000D03*
X223750000Y-144725000D03*
%TD*%
D13*
%TO.C,R19*%
X219904000Y-136589000D03*
X219904000Y-138239000D03*
%TD*%
D12*
%TO.C,C63*%
X225104000Y-138189000D03*
X225104000Y-136639000D03*
%TD*%
D13*
%TO.C,R11*%
X196056000Y-144868000D03*
X196056000Y-146518000D03*
%TD*%
D11*
%TO.C,C44*%
X226725000Y-156476000D03*
X228275000Y-156476000D03*
%TD*%
D12*
%TO.C,C23*%
X213900000Y-146275000D03*
X213900000Y-144725000D03*
%TD*%
D10*
%TO.C,C30*%
X209275000Y-154500000D03*
X207725000Y-154500000D03*
%TD*%
D12*
%TO.C,C53*%
X215450000Y-146275000D03*
X215450000Y-144725000D03*
%TD*%
D14*
%TO.C,C43*%
X219850000Y-163725000D03*
X219850000Y-165275000D03*
%TD*%
M02*
