%TF.GenerationSoftware,KiCad,Pcbnew,(6.0.9)*%
%TF.CreationDate,2023-05-11T15:11:40+03:00*%
%TF.ProjectId,EVD80_ControlBoard,45564438-305f-4436-9f6e-74726f6c426f,rev?*%
%TF.SameCoordinates,Original*%
%TF.FileFunction,Legend,Bot*%
%TF.FilePolarity,Positive*%
%FSLAX46Y46*%
G04 Gerber Fmt 4.6, Leading zero omitted, Abs format (unit mm)*
G04 Created by KiCad (PCBNEW (6.0.9)) date 2023-05-11 15:11:40*
%MOMM*%
%LPD*%
G01*
G04 APERTURE LIST*
%ADD10C,0.150000*%
%ADD11C,0.120000*%
%ADD12C,0.127000*%
%ADD13C,0.400000*%
G04 APERTURE END LIST*
D10*
%TO.C,C55*%
X206242857Y-148257142D02*
X206290476Y-148304761D01*
X206433333Y-148352380D01*
X206528571Y-148352380D01*
X206671428Y-148304761D01*
X206766666Y-148209523D01*
X206814285Y-148114285D01*
X206861904Y-147923809D01*
X206861904Y-147780952D01*
X206814285Y-147590476D01*
X206766666Y-147495238D01*
X206671428Y-147400000D01*
X206528571Y-147352380D01*
X206433333Y-147352380D01*
X206290476Y-147400000D01*
X206242857Y-147447619D01*
X205338095Y-147352380D02*
X205814285Y-147352380D01*
X205861904Y-147828571D01*
X205814285Y-147780952D01*
X205719047Y-147733333D01*
X205480952Y-147733333D01*
X205385714Y-147780952D01*
X205338095Y-147828571D01*
X205290476Y-147923809D01*
X205290476Y-148161904D01*
X205338095Y-148257142D01*
X205385714Y-148304761D01*
X205480952Y-148352380D01*
X205719047Y-148352380D01*
X205814285Y-148304761D01*
X205861904Y-148257142D01*
X204385714Y-147352380D02*
X204861904Y-147352380D01*
X204909523Y-147828571D01*
X204861904Y-147780952D01*
X204766666Y-147733333D01*
X204528571Y-147733333D01*
X204433333Y-147780952D01*
X204385714Y-147828571D01*
X204338095Y-147923809D01*
X204338095Y-148161904D01*
X204385714Y-148257142D01*
X204433333Y-148304761D01*
X204528571Y-148352380D01*
X204766666Y-148352380D01*
X204861904Y-148304761D01*
X204909523Y-148257142D01*
%TO.C,C26*%
X215142857Y-141787142D02*
X215190476Y-141834761D01*
X215333333Y-141882380D01*
X215428571Y-141882380D01*
X215571428Y-141834761D01*
X215666666Y-141739523D01*
X215714285Y-141644285D01*
X215761904Y-141453809D01*
X215761904Y-141310952D01*
X215714285Y-141120476D01*
X215666666Y-141025238D01*
X215571428Y-140930000D01*
X215428571Y-140882380D01*
X215333333Y-140882380D01*
X215190476Y-140930000D01*
X215142857Y-140977619D01*
X214761904Y-140977619D02*
X214714285Y-140930000D01*
X214619047Y-140882380D01*
X214380952Y-140882380D01*
X214285714Y-140930000D01*
X214238095Y-140977619D01*
X214190476Y-141072857D01*
X214190476Y-141168095D01*
X214238095Y-141310952D01*
X214809523Y-141882380D01*
X214190476Y-141882380D01*
X213333333Y-140882380D02*
X213523809Y-140882380D01*
X213619047Y-140930000D01*
X213666666Y-140977619D01*
X213761904Y-141120476D01*
X213809523Y-141310952D01*
X213809523Y-141691904D01*
X213761904Y-141787142D01*
X213714285Y-141834761D01*
X213619047Y-141882380D01*
X213428571Y-141882380D01*
X213333333Y-141834761D01*
X213285714Y-141787142D01*
X213238095Y-141691904D01*
X213238095Y-141453809D01*
X213285714Y-141358571D01*
X213333333Y-141310952D01*
X213428571Y-141263333D01*
X213619047Y-141263333D01*
X213714285Y-141310952D01*
X213761904Y-141358571D01*
X213809523Y-141453809D01*
%TO.C,C48*%
X228657142Y-141857142D02*
X228704761Y-141809523D01*
X228752380Y-141666666D01*
X228752380Y-141571428D01*
X228704761Y-141428571D01*
X228609523Y-141333333D01*
X228514285Y-141285714D01*
X228323809Y-141238095D01*
X228180952Y-141238095D01*
X227990476Y-141285714D01*
X227895238Y-141333333D01*
X227800000Y-141428571D01*
X227752380Y-141571428D01*
X227752380Y-141666666D01*
X227800000Y-141809523D01*
X227847619Y-141857142D01*
X228085714Y-142714285D02*
X228752380Y-142714285D01*
X227704761Y-142476190D02*
X228419047Y-142238095D01*
X228419047Y-142857142D01*
X228180952Y-143380952D02*
X228133333Y-143285714D01*
X228085714Y-143238095D01*
X227990476Y-143190476D01*
X227942857Y-143190476D01*
X227847619Y-143238095D01*
X227800000Y-143285714D01*
X227752380Y-143380952D01*
X227752380Y-143571428D01*
X227800000Y-143666666D01*
X227847619Y-143714285D01*
X227942857Y-143761904D01*
X227990476Y-143761904D01*
X228085714Y-143714285D01*
X228133333Y-143666666D01*
X228180952Y-143571428D01*
X228180952Y-143380952D01*
X228228571Y-143285714D01*
X228276190Y-143238095D01*
X228371428Y-143190476D01*
X228561904Y-143190476D01*
X228657142Y-143238095D01*
X228704761Y-143285714D01*
X228752380Y-143380952D01*
X228752380Y-143571428D01*
X228704761Y-143666666D01*
X228657142Y-143714285D01*
X228561904Y-143761904D01*
X228371428Y-143761904D01*
X228276190Y-143714285D01*
X228228571Y-143666666D01*
X228180952Y-143571428D01*
%TO.C,R14*%
X255552380Y-143333142D02*
X255076190Y-142999809D01*
X255552380Y-142761714D02*
X254552380Y-142761714D01*
X254552380Y-143142666D01*
X254600000Y-143237904D01*
X254647619Y-143285523D01*
X254742857Y-143333142D01*
X254885714Y-143333142D01*
X254980952Y-143285523D01*
X255028571Y-143237904D01*
X255076190Y-143142666D01*
X255076190Y-142761714D01*
X255552380Y-144285523D02*
X255552380Y-143714095D01*
X255552380Y-143999809D02*
X254552380Y-143999809D01*
X254695238Y-143904571D01*
X254790476Y-143809333D01*
X254838095Y-143714095D01*
X254885714Y-145142666D02*
X255552380Y-145142666D01*
X254504761Y-144904571D02*
X255219047Y-144666476D01*
X255219047Y-145285523D01*
%TO.C,C25*%
X212757142Y-147957142D02*
X212804761Y-147909523D01*
X212852380Y-147766666D01*
X212852380Y-147671428D01*
X212804761Y-147528571D01*
X212709523Y-147433333D01*
X212614285Y-147385714D01*
X212423809Y-147338095D01*
X212280952Y-147338095D01*
X212090476Y-147385714D01*
X211995238Y-147433333D01*
X211900000Y-147528571D01*
X211852380Y-147671428D01*
X211852380Y-147766666D01*
X211900000Y-147909523D01*
X211947619Y-147957142D01*
X211947619Y-148338095D02*
X211900000Y-148385714D01*
X211852380Y-148480952D01*
X211852380Y-148719047D01*
X211900000Y-148814285D01*
X211947619Y-148861904D01*
X212042857Y-148909523D01*
X212138095Y-148909523D01*
X212280952Y-148861904D01*
X212852380Y-148290476D01*
X212852380Y-148909523D01*
X211852380Y-149814285D02*
X211852380Y-149338095D01*
X212328571Y-149290476D01*
X212280952Y-149338095D01*
X212233333Y-149433333D01*
X212233333Y-149671428D01*
X212280952Y-149766666D01*
X212328571Y-149814285D01*
X212423809Y-149861904D01*
X212661904Y-149861904D01*
X212757142Y-149814285D01*
X212804761Y-149766666D01*
X212852380Y-149671428D01*
X212852380Y-149433333D01*
X212804761Y-149338095D01*
X212757142Y-149290476D01*
%TO.C,C56*%
X212142857Y-151557142D02*
X212190476Y-151604761D01*
X212333333Y-151652380D01*
X212428571Y-151652380D01*
X212571428Y-151604761D01*
X212666666Y-151509523D01*
X212714285Y-151414285D01*
X212761904Y-151223809D01*
X212761904Y-151080952D01*
X212714285Y-150890476D01*
X212666666Y-150795238D01*
X212571428Y-150700000D01*
X212428571Y-150652380D01*
X212333333Y-150652380D01*
X212190476Y-150700000D01*
X212142857Y-150747619D01*
X211238095Y-150652380D02*
X211714285Y-150652380D01*
X211761904Y-151128571D01*
X211714285Y-151080952D01*
X211619047Y-151033333D01*
X211380952Y-151033333D01*
X211285714Y-151080952D01*
X211238095Y-151128571D01*
X211190476Y-151223809D01*
X211190476Y-151461904D01*
X211238095Y-151557142D01*
X211285714Y-151604761D01*
X211380952Y-151652380D01*
X211619047Y-151652380D01*
X211714285Y-151604761D01*
X211761904Y-151557142D01*
X210333333Y-150652380D02*
X210523809Y-150652380D01*
X210619047Y-150700000D01*
X210666666Y-150747619D01*
X210761904Y-150890476D01*
X210809523Y-151080952D01*
X210809523Y-151461904D01*
X210761904Y-151557142D01*
X210714285Y-151604761D01*
X210619047Y-151652380D01*
X210428571Y-151652380D01*
X210333333Y-151604761D01*
X210285714Y-151557142D01*
X210238095Y-151461904D01*
X210238095Y-151223809D01*
X210285714Y-151128571D01*
X210333333Y-151080952D01*
X210428571Y-151033333D01*
X210619047Y-151033333D01*
X210714285Y-151080952D01*
X210761904Y-151128571D01*
X210809523Y-151223809D01*
%TO.C,C40*%
X214057142Y-160757142D02*
X214104761Y-160709523D01*
X214152380Y-160566666D01*
X214152380Y-160471428D01*
X214104761Y-160328571D01*
X214009523Y-160233333D01*
X213914285Y-160185714D01*
X213723809Y-160138095D01*
X213580952Y-160138095D01*
X213390476Y-160185714D01*
X213295238Y-160233333D01*
X213200000Y-160328571D01*
X213152380Y-160471428D01*
X213152380Y-160566666D01*
X213200000Y-160709523D01*
X213247619Y-160757142D01*
X213485714Y-161614285D02*
X214152380Y-161614285D01*
X213104761Y-161376190D02*
X213819047Y-161138095D01*
X213819047Y-161757142D01*
X213152380Y-162328571D02*
X213152380Y-162423809D01*
X213200000Y-162519047D01*
X213247619Y-162566666D01*
X213342857Y-162614285D01*
X213533333Y-162661904D01*
X213771428Y-162661904D01*
X213961904Y-162614285D01*
X214057142Y-162566666D01*
X214104761Y-162519047D01*
X214152380Y-162423809D01*
X214152380Y-162328571D01*
X214104761Y-162233333D01*
X214057142Y-162185714D01*
X213961904Y-162138095D01*
X213771428Y-162090476D01*
X213533333Y-162090476D01*
X213342857Y-162138095D01*
X213247619Y-162185714D01*
X213200000Y-162233333D01*
X213152380Y-162328571D01*
%TO.C,C197*%
X217578142Y-221514952D02*
X217625761Y-221467333D01*
X217673380Y-221324476D01*
X217673380Y-221229238D01*
X217625761Y-221086380D01*
X217530523Y-220991142D01*
X217435285Y-220943523D01*
X217244809Y-220895904D01*
X217101952Y-220895904D01*
X216911476Y-220943523D01*
X216816238Y-220991142D01*
X216721000Y-221086380D01*
X216673380Y-221229238D01*
X216673380Y-221324476D01*
X216721000Y-221467333D01*
X216768619Y-221514952D01*
X217673380Y-222467333D02*
X217673380Y-221895904D01*
X217673380Y-222181619D02*
X216673380Y-222181619D01*
X216816238Y-222086380D01*
X216911476Y-221991142D01*
X216959095Y-221895904D01*
X217673380Y-222943523D02*
X217673380Y-223134000D01*
X217625761Y-223229238D01*
X217578142Y-223276857D01*
X217435285Y-223372095D01*
X217244809Y-223419714D01*
X216863857Y-223419714D01*
X216768619Y-223372095D01*
X216721000Y-223324476D01*
X216673380Y-223229238D01*
X216673380Y-223038761D01*
X216721000Y-222943523D01*
X216768619Y-222895904D01*
X216863857Y-222848285D01*
X217101952Y-222848285D01*
X217197190Y-222895904D01*
X217244809Y-222943523D01*
X217292428Y-223038761D01*
X217292428Y-223229238D01*
X217244809Y-223324476D01*
X217197190Y-223372095D01*
X217101952Y-223419714D01*
X216673380Y-223753047D02*
X216673380Y-224419714D01*
X217673380Y-223991142D01*
%TO.C,C49*%
X227057142Y-141857142D02*
X227104761Y-141809523D01*
X227152380Y-141666666D01*
X227152380Y-141571428D01*
X227104761Y-141428571D01*
X227009523Y-141333333D01*
X226914285Y-141285714D01*
X226723809Y-141238095D01*
X226580952Y-141238095D01*
X226390476Y-141285714D01*
X226295238Y-141333333D01*
X226200000Y-141428571D01*
X226152380Y-141571428D01*
X226152380Y-141666666D01*
X226200000Y-141809523D01*
X226247619Y-141857142D01*
X226485714Y-142714285D02*
X227152380Y-142714285D01*
X226104761Y-142476190D02*
X226819047Y-142238095D01*
X226819047Y-142857142D01*
X227152380Y-143285714D02*
X227152380Y-143476190D01*
X227104761Y-143571428D01*
X227057142Y-143619047D01*
X226914285Y-143714285D01*
X226723809Y-143761904D01*
X226342857Y-143761904D01*
X226247619Y-143714285D01*
X226200000Y-143666666D01*
X226152380Y-143571428D01*
X226152380Y-143380952D01*
X226200000Y-143285714D01*
X226247619Y-143238095D01*
X226342857Y-143190476D01*
X226580952Y-143190476D01*
X226676190Y-143238095D01*
X226723809Y-143285714D01*
X226771428Y-143380952D01*
X226771428Y-143571428D01*
X226723809Y-143666666D01*
X226676190Y-143714285D01*
X226580952Y-143761904D01*
%TO.C,C20*%
X225142857Y-158357142D02*
X225190476Y-158404761D01*
X225333333Y-158452380D01*
X225428571Y-158452380D01*
X225571428Y-158404761D01*
X225666666Y-158309523D01*
X225714285Y-158214285D01*
X225761904Y-158023809D01*
X225761904Y-157880952D01*
X225714285Y-157690476D01*
X225666666Y-157595238D01*
X225571428Y-157500000D01*
X225428571Y-157452380D01*
X225333333Y-157452380D01*
X225190476Y-157500000D01*
X225142857Y-157547619D01*
X224761904Y-157547619D02*
X224714285Y-157500000D01*
X224619047Y-157452380D01*
X224380952Y-157452380D01*
X224285714Y-157500000D01*
X224238095Y-157547619D01*
X224190476Y-157642857D01*
X224190476Y-157738095D01*
X224238095Y-157880952D01*
X224809523Y-158452380D01*
X224190476Y-158452380D01*
X223571428Y-157452380D02*
X223476190Y-157452380D01*
X223380952Y-157500000D01*
X223333333Y-157547619D01*
X223285714Y-157642857D01*
X223238095Y-157833333D01*
X223238095Y-158071428D01*
X223285714Y-158261904D01*
X223333333Y-158357142D01*
X223380952Y-158404761D01*
X223476190Y-158452380D01*
X223571428Y-158452380D01*
X223666666Y-158404761D01*
X223714285Y-158357142D01*
X223761904Y-158261904D01*
X223809523Y-158071428D01*
X223809523Y-157833333D01*
X223761904Y-157642857D01*
X223714285Y-157547619D01*
X223666666Y-157500000D01*
X223571428Y-157452380D01*
%TO.C,C198*%
X217578142Y-225705952D02*
X217625761Y-225658333D01*
X217673380Y-225515476D01*
X217673380Y-225420238D01*
X217625761Y-225277380D01*
X217530523Y-225182142D01*
X217435285Y-225134523D01*
X217244809Y-225086904D01*
X217101952Y-225086904D01*
X216911476Y-225134523D01*
X216816238Y-225182142D01*
X216721000Y-225277380D01*
X216673380Y-225420238D01*
X216673380Y-225515476D01*
X216721000Y-225658333D01*
X216768619Y-225705952D01*
X217673380Y-226658333D02*
X217673380Y-226086904D01*
X217673380Y-226372619D02*
X216673380Y-226372619D01*
X216816238Y-226277380D01*
X216911476Y-226182142D01*
X216959095Y-226086904D01*
X217673380Y-227134523D02*
X217673380Y-227325000D01*
X217625761Y-227420238D01*
X217578142Y-227467857D01*
X217435285Y-227563095D01*
X217244809Y-227610714D01*
X216863857Y-227610714D01*
X216768619Y-227563095D01*
X216721000Y-227515476D01*
X216673380Y-227420238D01*
X216673380Y-227229761D01*
X216721000Y-227134523D01*
X216768619Y-227086904D01*
X216863857Y-227039285D01*
X217101952Y-227039285D01*
X217197190Y-227086904D01*
X217244809Y-227134523D01*
X217292428Y-227229761D01*
X217292428Y-227420238D01*
X217244809Y-227515476D01*
X217197190Y-227563095D01*
X217101952Y-227610714D01*
X217101952Y-228182142D02*
X217054333Y-228086904D01*
X217006714Y-228039285D01*
X216911476Y-227991666D01*
X216863857Y-227991666D01*
X216768619Y-228039285D01*
X216721000Y-228086904D01*
X216673380Y-228182142D01*
X216673380Y-228372619D01*
X216721000Y-228467857D01*
X216768619Y-228515476D01*
X216863857Y-228563095D01*
X216911476Y-228563095D01*
X217006714Y-228515476D01*
X217054333Y-228467857D01*
X217101952Y-228372619D01*
X217101952Y-228182142D01*
X217149571Y-228086904D01*
X217197190Y-228039285D01*
X217292428Y-227991666D01*
X217482904Y-227991666D01*
X217578142Y-228039285D01*
X217625761Y-228086904D01*
X217673380Y-228182142D01*
X217673380Y-228372619D01*
X217625761Y-228467857D01*
X217578142Y-228515476D01*
X217482904Y-228563095D01*
X217292428Y-228563095D01*
X217197190Y-228515476D01*
X217149571Y-228467857D01*
X217101952Y-228372619D01*
%TO.C,C57*%
X212142857Y-153257142D02*
X212190476Y-153304761D01*
X212333333Y-153352380D01*
X212428571Y-153352380D01*
X212571428Y-153304761D01*
X212666666Y-153209523D01*
X212714285Y-153114285D01*
X212761904Y-152923809D01*
X212761904Y-152780952D01*
X212714285Y-152590476D01*
X212666666Y-152495238D01*
X212571428Y-152400000D01*
X212428571Y-152352380D01*
X212333333Y-152352380D01*
X212190476Y-152400000D01*
X212142857Y-152447619D01*
X211238095Y-152352380D02*
X211714285Y-152352380D01*
X211761904Y-152828571D01*
X211714285Y-152780952D01*
X211619047Y-152733333D01*
X211380952Y-152733333D01*
X211285714Y-152780952D01*
X211238095Y-152828571D01*
X211190476Y-152923809D01*
X211190476Y-153161904D01*
X211238095Y-153257142D01*
X211285714Y-153304761D01*
X211380952Y-153352380D01*
X211619047Y-153352380D01*
X211714285Y-153304761D01*
X211761904Y-153257142D01*
X210857142Y-152352380D02*
X210190476Y-152352380D01*
X210619047Y-153352380D01*
%TO.C,R18*%
X198623380Y-151379142D02*
X198147190Y-151045809D01*
X198623380Y-150807714D02*
X197623380Y-150807714D01*
X197623380Y-151188666D01*
X197671000Y-151283904D01*
X197718619Y-151331523D01*
X197813857Y-151379142D01*
X197956714Y-151379142D01*
X198051952Y-151331523D01*
X198099571Y-151283904D01*
X198147190Y-151188666D01*
X198147190Y-150807714D01*
X198623380Y-152331523D02*
X198623380Y-151760095D01*
X198623380Y-152045809D02*
X197623380Y-152045809D01*
X197766238Y-151950571D01*
X197861476Y-151855333D01*
X197909095Y-151760095D01*
X198051952Y-152902952D02*
X198004333Y-152807714D01*
X197956714Y-152760095D01*
X197861476Y-152712476D01*
X197813857Y-152712476D01*
X197718619Y-152760095D01*
X197671000Y-152807714D01*
X197623380Y-152902952D01*
X197623380Y-153093428D01*
X197671000Y-153188666D01*
X197718619Y-153236285D01*
X197813857Y-153283904D01*
X197861476Y-153283904D01*
X197956714Y-153236285D01*
X198004333Y-153188666D01*
X198051952Y-153093428D01*
X198051952Y-152902952D01*
X198099571Y-152807714D01*
X198147190Y-152760095D01*
X198242428Y-152712476D01*
X198432904Y-152712476D01*
X198528142Y-152760095D01*
X198575761Y-152807714D01*
X198623380Y-152902952D01*
X198623380Y-153093428D01*
X198575761Y-153188666D01*
X198528142Y-153236285D01*
X198432904Y-153283904D01*
X198242428Y-153283904D01*
X198147190Y-153236285D01*
X198099571Y-153188666D01*
X198051952Y-153093428D01*
%TO.C,J2*%
X109001448Y-210354762D02*
X109001448Y-212500724D01*
X109144512Y-212929916D01*
X109430640Y-213216044D01*
X109859833Y-213359108D01*
X110145961Y-213359108D01*
X107713871Y-210640891D02*
X107570807Y-210497827D01*
X107284679Y-210354762D01*
X106569359Y-210354762D01*
X106283230Y-210497827D01*
X106140166Y-210640891D01*
X105997102Y-210927019D01*
X105997102Y-211213147D01*
X106140166Y-211642339D01*
X107856935Y-213359108D01*
X105997102Y-213359108D01*
%TO.C,C19*%
X218657142Y-160757142D02*
X218704761Y-160709523D01*
X218752380Y-160566666D01*
X218752380Y-160471428D01*
X218704761Y-160328571D01*
X218609523Y-160233333D01*
X218514285Y-160185714D01*
X218323809Y-160138095D01*
X218180952Y-160138095D01*
X217990476Y-160185714D01*
X217895238Y-160233333D01*
X217800000Y-160328571D01*
X217752380Y-160471428D01*
X217752380Y-160566666D01*
X217800000Y-160709523D01*
X217847619Y-160757142D01*
X218752380Y-161709523D02*
X218752380Y-161138095D01*
X218752380Y-161423809D02*
X217752380Y-161423809D01*
X217895238Y-161328571D01*
X217990476Y-161233333D01*
X218038095Y-161138095D01*
X218752380Y-162185714D02*
X218752380Y-162376190D01*
X218704761Y-162471428D01*
X218657142Y-162519047D01*
X218514285Y-162614285D01*
X218323809Y-162661904D01*
X217942857Y-162661904D01*
X217847619Y-162614285D01*
X217800000Y-162566666D01*
X217752380Y-162471428D01*
X217752380Y-162280952D01*
X217800000Y-162185714D01*
X217847619Y-162138095D01*
X217942857Y-162090476D01*
X218180952Y-162090476D01*
X218276190Y-162138095D01*
X218323809Y-162185714D01*
X218371428Y-162280952D01*
X218371428Y-162471428D01*
X218323809Y-162566666D01*
X218276190Y-162614285D01*
X218180952Y-162661904D01*
%TO.C,C28*%
X202211142Y-146934142D02*
X202258761Y-146886523D01*
X202306380Y-146743666D01*
X202306380Y-146648428D01*
X202258761Y-146505571D01*
X202163523Y-146410333D01*
X202068285Y-146362714D01*
X201877809Y-146315095D01*
X201734952Y-146315095D01*
X201544476Y-146362714D01*
X201449238Y-146410333D01*
X201354000Y-146505571D01*
X201306380Y-146648428D01*
X201306380Y-146743666D01*
X201354000Y-146886523D01*
X201401619Y-146934142D01*
X201401619Y-147315095D02*
X201354000Y-147362714D01*
X201306380Y-147457952D01*
X201306380Y-147696047D01*
X201354000Y-147791285D01*
X201401619Y-147838904D01*
X201496857Y-147886523D01*
X201592095Y-147886523D01*
X201734952Y-147838904D01*
X202306380Y-147267476D01*
X202306380Y-147886523D01*
X201734952Y-148457952D02*
X201687333Y-148362714D01*
X201639714Y-148315095D01*
X201544476Y-148267476D01*
X201496857Y-148267476D01*
X201401619Y-148315095D01*
X201354000Y-148362714D01*
X201306380Y-148457952D01*
X201306380Y-148648428D01*
X201354000Y-148743666D01*
X201401619Y-148791285D01*
X201496857Y-148838904D01*
X201544476Y-148838904D01*
X201639714Y-148791285D01*
X201687333Y-148743666D01*
X201734952Y-148648428D01*
X201734952Y-148457952D01*
X201782571Y-148362714D01*
X201830190Y-148315095D01*
X201925428Y-148267476D01*
X202115904Y-148267476D01*
X202211142Y-148315095D01*
X202258761Y-148362714D01*
X202306380Y-148457952D01*
X202306380Y-148648428D01*
X202258761Y-148743666D01*
X202211142Y-148791285D01*
X202115904Y-148838904D01*
X201925428Y-148838904D01*
X201830190Y-148791285D01*
X201782571Y-148743666D01*
X201734952Y-148648428D01*
%TO.C,L4*%
X202731666Y-141171380D02*
X203207857Y-141171380D01*
X203207857Y-140171380D01*
X201969761Y-140504714D02*
X201969761Y-141171380D01*
X202207857Y-140123761D02*
X202445952Y-140838047D01*
X201826904Y-140838047D01*
%TO.C,R12*%
X196591380Y-151379142D02*
X196115190Y-151045809D01*
X196591380Y-150807714D02*
X195591380Y-150807714D01*
X195591380Y-151188666D01*
X195639000Y-151283904D01*
X195686619Y-151331523D01*
X195781857Y-151379142D01*
X195924714Y-151379142D01*
X196019952Y-151331523D01*
X196067571Y-151283904D01*
X196115190Y-151188666D01*
X196115190Y-150807714D01*
X196591380Y-152331523D02*
X196591380Y-151760095D01*
X196591380Y-152045809D02*
X195591380Y-152045809D01*
X195734238Y-151950571D01*
X195829476Y-151855333D01*
X195877095Y-151760095D01*
X195686619Y-152712476D02*
X195639000Y-152760095D01*
X195591380Y-152855333D01*
X195591380Y-153093428D01*
X195639000Y-153188666D01*
X195686619Y-153236285D01*
X195781857Y-153283904D01*
X195877095Y-153283904D01*
X196019952Y-153236285D01*
X196591380Y-152664857D01*
X196591380Y-153283904D01*
%TO.C,C42*%
X217157142Y-160757142D02*
X217204761Y-160709523D01*
X217252380Y-160566666D01*
X217252380Y-160471428D01*
X217204761Y-160328571D01*
X217109523Y-160233333D01*
X217014285Y-160185714D01*
X216823809Y-160138095D01*
X216680952Y-160138095D01*
X216490476Y-160185714D01*
X216395238Y-160233333D01*
X216300000Y-160328571D01*
X216252380Y-160471428D01*
X216252380Y-160566666D01*
X216300000Y-160709523D01*
X216347619Y-160757142D01*
X216585714Y-161614285D02*
X217252380Y-161614285D01*
X216204761Y-161376190D02*
X216919047Y-161138095D01*
X216919047Y-161757142D01*
X216347619Y-162090476D02*
X216300000Y-162138095D01*
X216252380Y-162233333D01*
X216252380Y-162471428D01*
X216300000Y-162566666D01*
X216347619Y-162614285D01*
X216442857Y-162661904D01*
X216538095Y-162661904D01*
X216680952Y-162614285D01*
X217252380Y-162042857D01*
X217252380Y-162661904D01*
%TO.C,L6*%
X233479166Y-170124380D02*
X233955357Y-170124380D01*
X233955357Y-169124380D01*
X232717261Y-169124380D02*
X232907738Y-169124380D01*
X233002976Y-169172000D01*
X233050595Y-169219619D01*
X233145833Y-169362476D01*
X233193452Y-169552952D01*
X233193452Y-169933904D01*
X233145833Y-170029142D01*
X233098214Y-170076761D01*
X233002976Y-170124380D01*
X232812500Y-170124380D01*
X232717261Y-170076761D01*
X232669642Y-170029142D01*
X232622023Y-169933904D01*
X232622023Y-169695809D01*
X232669642Y-169600571D01*
X232717261Y-169552952D01*
X232812500Y-169505333D01*
X233002976Y-169505333D01*
X233098214Y-169552952D01*
X233145833Y-169600571D01*
X233193452Y-169695809D01*
%TO.C,C36*%
X206910142Y-133980142D02*
X206957761Y-133932523D01*
X207005380Y-133789666D01*
X207005380Y-133694428D01*
X206957761Y-133551571D01*
X206862523Y-133456333D01*
X206767285Y-133408714D01*
X206576809Y-133361095D01*
X206433952Y-133361095D01*
X206243476Y-133408714D01*
X206148238Y-133456333D01*
X206053000Y-133551571D01*
X206005380Y-133694428D01*
X206005380Y-133789666D01*
X206053000Y-133932523D01*
X206100619Y-133980142D01*
X206005380Y-134313476D02*
X206005380Y-134932523D01*
X206386333Y-134599190D01*
X206386333Y-134742047D01*
X206433952Y-134837285D01*
X206481571Y-134884904D01*
X206576809Y-134932523D01*
X206814904Y-134932523D01*
X206910142Y-134884904D01*
X206957761Y-134837285D01*
X207005380Y-134742047D01*
X207005380Y-134456333D01*
X206957761Y-134361095D01*
X206910142Y-134313476D01*
X206005380Y-135789666D02*
X206005380Y-135599190D01*
X206053000Y-135503952D01*
X206100619Y-135456333D01*
X206243476Y-135361095D01*
X206433952Y-135313476D01*
X206814904Y-135313476D01*
X206910142Y-135361095D01*
X206957761Y-135408714D01*
X207005380Y-135503952D01*
X207005380Y-135694428D01*
X206957761Y-135789666D01*
X206910142Y-135837285D01*
X206814904Y-135884904D01*
X206576809Y-135884904D01*
X206481571Y-135837285D01*
X206433952Y-135789666D01*
X206386333Y-135694428D01*
X206386333Y-135503952D01*
X206433952Y-135408714D01*
X206481571Y-135361095D01*
X206576809Y-135313476D01*
%TO.C,C24*%
X210642857Y-141857142D02*
X210690476Y-141904761D01*
X210833333Y-141952380D01*
X210928571Y-141952380D01*
X211071428Y-141904761D01*
X211166666Y-141809523D01*
X211214285Y-141714285D01*
X211261904Y-141523809D01*
X211261904Y-141380952D01*
X211214285Y-141190476D01*
X211166666Y-141095238D01*
X211071428Y-141000000D01*
X210928571Y-140952380D01*
X210833333Y-140952380D01*
X210690476Y-141000000D01*
X210642857Y-141047619D01*
X210261904Y-141047619D02*
X210214285Y-141000000D01*
X210119047Y-140952380D01*
X209880952Y-140952380D01*
X209785714Y-141000000D01*
X209738095Y-141047619D01*
X209690476Y-141142857D01*
X209690476Y-141238095D01*
X209738095Y-141380952D01*
X210309523Y-141952380D01*
X209690476Y-141952380D01*
X208833333Y-141285714D02*
X208833333Y-141952380D01*
X209071428Y-140904761D02*
X209309523Y-141619047D01*
X208690476Y-141619047D01*
%TO.C,U9*%
X223189904Y-134075380D02*
X223189904Y-134884904D01*
X223142285Y-134980142D01*
X223094666Y-135027761D01*
X222999428Y-135075380D01*
X222808952Y-135075380D01*
X222713714Y-135027761D01*
X222666095Y-134980142D01*
X222618476Y-134884904D01*
X222618476Y-134075380D01*
X222094666Y-135075380D02*
X221904190Y-135075380D01*
X221808952Y-135027761D01*
X221761333Y-134980142D01*
X221666095Y-134837285D01*
X221618476Y-134646809D01*
X221618476Y-134265857D01*
X221666095Y-134170619D01*
X221713714Y-134123000D01*
X221808952Y-134075380D01*
X221999428Y-134075380D01*
X222094666Y-134123000D01*
X222142285Y-134170619D01*
X222189904Y-134265857D01*
X222189904Y-134503952D01*
X222142285Y-134599190D01*
X222094666Y-134646809D01*
X221999428Y-134694428D01*
X221808952Y-134694428D01*
X221713714Y-134646809D01*
X221666095Y-134599190D01*
X221618476Y-134503952D01*
%TO.C,C32*%
X212142857Y-156657142D02*
X212190476Y-156704761D01*
X212333333Y-156752380D01*
X212428571Y-156752380D01*
X212571428Y-156704761D01*
X212666666Y-156609523D01*
X212714285Y-156514285D01*
X212761904Y-156323809D01*
X212761904Y-156180952D01*
X212714285Y-155990476D01*
X212666666Y-155895238D01*
X212571428Y-155800000D01*
X212428571Y-155752380D01*
X212333333Y-155752380D01*
X212190476Y-155800000D01*
X212142857Y-155847619D01*
X211809523Y-155752380D02*
X211190476Y-155752380D01*
X211523809Y-156133333D01*
X211380952Y-156133333D01*
X211285714Y-156180952D01*
X211238095Y-156228571D01*
X211190476Y-156323809D01*
X211190476Y-156561904D01*
X211238095Y-156657142D01*
X211285714Y-156704761D01*
X211380952Y-156752380D01*
X211666666Y-156752380D01*
X211761904Y-156704761D01*
X211809523Y-156657142D01*
X210809523Y-155847619D02*
X210761904Y-155800000D01*
X210666666Y-155752380D01*
X210428571Y-155752380D01*
X210333333Y-155800000D01*
X210285714Y-155847619D01*
X210238095Y-155942857D01*
X210238095Y-156038095D01*
X210285714Y-156180952D01*
X210857142Y-156752380D01*
X210238095Y-156752380D01*
%TO.C,C35*%
X205386142Y-133980142D02*
X205433761Y-133932523D01*
X205481380Y-133789666D01*
X205481380Y-133694428D01*
X205433761Y-133551571D01*
X205338523Y-133456333D01*
X205243285Y-133408714D01*
X205052809Y-133361095D01*
X204909952Y-133361095D01*
X204719476Y-133408714D01*
X204624238Y-133456333D01*
X204529000Y-133551571D01*
X204481380Y-133694428D01*
X204481380Y-133789666D01*
X204529000Y-133932523D01*
X204576619Y-133980142D01*
X204481380Y-134313476D02*
X204481380Y-134932523D01*
X204862333Y-134599190D01*
X204862333Y-134742047D01*
X204909952Y-134837285D01*
X204957571Y-134884904D01*
X205052809Y-134932523D01*
X205290904Y-134932523D01*
X205386142Y-134884904D01*
X205433761Y-134837285D01*
X205481380Y-134742047D01*
X205481380Y-134456333D01*
X205433761Y-134361095D01*
X205386142Y-134313476D01*
X204481380Y-135837285D02*
X204481380Y-135361095D01*
X204957571Y-135313476D01*
X204909952Y-135361095D01*
X204862333Y-135456333D01*
X204862333Y-135694428D01*
X204909952Y-135789666D01*
X204957571Y-135837285D01*
X205052809Y-135884904D01*
X205290904Y-135884904D01*
X205386142Y-135837285D01*
X205433761Y-135789666D01*
X205481380Y-135694428D01*
X205481380Y-135456333D01*
X205433761Y-135361095D01*
X205386142Y-135313476D01*
%TO.C,C27*%
X206242857Y-146657142D02*
X206290476Y-146704761D01*
X206433333Y-146752380D01*
X206528571Y-146752380D01*
X206671428Y-146704761D01*
X206766666Y-146609523D01*
X206814285Y-146514285D01*
X206861904Y-146323809D01*
X206861904Y-146180952D01*
X206814285Y-145990476D01*
X206766666Y-145895238D01*
X206671428Y-145800000D01*
X206528571Y-145752380D01*
X206433333Y-145752380D01*
X206290476Y-145800000D01*
X206242857Y-145847619D01*
X205861904Y-145847619D02*
X205814285Y-145800000D01*
X205719047Y-145752380D01*
X205480952Y-145752380D01*
X205385714Y-145800000D01*
X205338095Y-145847619D01*
X205290476Y-145942857D01*
X205290476Y-146038095D01*
X205338095Y-146180952D01*
X205909523Y-146752380D01*
X205290476Y-146752380D01*
X204957142Y-145752380D02*
X204290476Y-145752380D01*
X204719047Y-146752380D01*
%TO.C,C39*%
X212557142Y-160757142D02*
X212604761Y-160709523D01*
X212652380Y-160566666D01*
X212652380Y-160471428D01*
X212604761Y-160328571D01*
X212509523Y-160233333D01*
X212414285Y-160185714D01*
X212223809Y-160138095D01*
X212080952Y-160138095D01*
X211890476Y-160185714D01*
X211795238Y-160233333D01*
X211700000Y-160328571D01*
X211652380Y-160471428D01*
X211652380Y-160566666D01*
X211700000Y-160709523D01*
X211747619Y-160757142D01*
X211652380Y-161090476D02*
X211652380Y-161709523D01*
X212033333Y-161376190D01*
X212033333Y-161519047D01*
X212080952Y-161614285D01*
X212128571Y-161661904D01*
X212223809Y-161709523D01*
X212461904Y-161709523D01*
X212557142Y-161661904D01*
X212604761Y-161614285D01*
X212652380Y-161519047D01*
X212652380Y-161233333D01*
X212604761Y-161138095D01*
X212557142Y-161090476D01*
X212652380Y-162185714D02*
X212652380Y-162376190D01*
X212604761Y-162471428D01*
X212557142Y-162519047D01*
X212414285Y-162614285D01*
X212223809Y-162661904D01*
X211842857Y-162661904D01*
X211747619Y-162614285D01*
X211700000Y-162566666D01*
X211652380Y-162471428D01*
X211652380Y-162280952D01*
X211700000Y-162185714D01*
X211747619Y-162138095D01*
X211842857Y-162090476D01*
X212080952Y-162090476D01*
X212176190Y-162138095D01*
X212223809Y-162185714D01*
X212271428Y-162280952D01*
X212271428Y-162471428D01*
X212223809Y-162566666D01*
X212176190Y-162614285D01*
X212080952Y-162661904D01*
%TO.C,C29*%
X225142857Y-161657142D02*
X225190476Y-161704761D01*
X225333333Y-161752380D01*
X225428571Y-161752380D01*
X225571428Y-161704761D01*
X225666666Y-161609523D01*
X225714285Y-161514285D01*
X225761904Y-161323809D01*
X225761904Y-161180952D01*
X225714285Y-160990476D01*
X225666666Y-160895238D01*
X225571428Y-160800000D01*
X225428571Y-160752380D01*
X225333333Y-160752380D01*
X225190476Y-160800000D01*
X225142857Y-160847619D01*
X224761904Y-160847619D02*
X224714285Y-160800000D01*
X224619047Y-160752380D01*
X224380952Y-160752380D01*
X224285714Y-160800000D01*
X224238095Y-160847619D01*
X224190476Y-160942857D01*
X224190476Y-161038095D01*
X224238095Y-161180952D01*
X224809523Y-161752380D01*
X224190476Y-161752380D01*
X223714285Y-161752380D02*
X223523809Y-161752380D01*
X223428571Y-161704761D01*
X223380952Y-161657142D01*
X223285714Y-161514285D01*
X223238095Y-161323809D01*
X223238095Y-160942857D01*
X223285714Y-160847619D01*
X223333333Y-160800000D01*
X223428571Y-160752380D01*
X223619047Y-160752380D01*
X223714285Y-160800000D01*
X223761904Y-160847619D01*
X223809523Y-160942857D01*
X223809523Y-161180952D01*
X223761904Y-161276190D01*
X223714285Y-161323809D01*
X223619047Y-161371428D01*
X223428571Y-161371428D01*
X223333333Y-161323809D01*
X223285714Y-161276190D01*
X223238095Y-161180952D01*
%TO.C,C21*%
X225142857Y-150657142D02*
X225190476Y-150704761D01*
X225333333Y-150752380D01*
X225428571Y-150752380D01*
X225571428Y-150704761D01*
X225666666Y-150609523D01*
X225714285Y-150514285D01*
X225761904Y-150323809D01*
X225761904Y-150180952D01*
X225714285Y-149990476D01*
X225666666Y-149895238D01*
X225571428Y-149800000D01*
X225428571Y-149752380D01*
X225333333Y-149752380D01*
X225190476Y-149800000D01*
X225142857Y-149847619D01*
X224761904Y-149847619D02*
X224714285Y-149800000D01*
X224619047Y-149752380D01*
X224380952Y-149752380D01*
X224285714Y-149800000D01*
X224238095Y-149847619D01*
X224190476Y-149942857D01*
X224190476Y-150038095D01*
X224238095Y-150180952D01*
X224809523Y-150752380D01*
X224190476Y-150752380D01*
X223238095Y-150752380D02*
X223809523Y-150752380D01*
X223523809Y-150752380D02*
X223523809Y-149752380D01*
X223619047Y-149895238D01*
X223714285Y-149990476D01*
X223809523Y-150038095D01*
%TO.C,R17*%
X198623380Y-141727142D02*
X198147190Y-141393809D01*
X198623380Y-141155714D02*
X197623380Y-141155714D01*
X197623380Y-141536666D01*
X197671000Y-141631904D01*
X197718619Y-141679523D01*
X197813857Y-141727142D01*
X197956714Y-141727142D01*
X198051952Y-141679523D01*
X198099571Y-141631904D01*
X198147190Y-141536666D01*
X198147190Y-141155714D01*
X198623380Y-142679523D02*
X198623380Y-142108095D01*
X198623380Y-142393809D02*
X197623380Y-142393809D01*
X197766238Y-142298571D01*
X197861476Y-142203333D01*
X197909095Y-142108095D01*
X197623380Y-143012857D02*
X197623380Y-143679523D01*
X198623380Y-143250952D01*
%TO.C,C46*%
X225142857Y-152357142D02*
X225190476Y-152404761D01*
X225333333Y-152452380D01*
X225428571Y-152452380D01*
X225571428Y-152404761D01*
X225666666Y-152309523D01*
X225714285Y-152214285D01*
X225761904Y-152023809D01*
X225761904Y-151880952D01*
X225714285Y-151690476D01*
X225666666Y-151595238D01*
X225571428Y-151500000D01*
X225428571Y-151452380D01*
X225333333Y-151452380D01*
X225190476Y-151500000D01*
X225142857Y-151547619D01*
X224285714Y-151785714D02*
X224285714Y-152452380D01*
X224523809Y-151404761D02*
X224761904Y-152119047D01*
X224142857Y-152119047D01*
X223333333Y-151452380D02*
X223523809Y-151452380D01*
X223619047Y-151500000D01*
X223666666Y-151547619D01*
X223761904Y-151690476D01*
X223809523Y-151880952D01*
X223809523Y-152261904D01*
X223761904Y-152357142D01*
X223714285Y-152404761D01*
X223619047Y-152452380D01*
X223428571Y-152452380D01*
X223333333Y-152404761D01*
X223285714Y-152357142D01*
X223238095Y-152261904D01*
X223238095Y-152023809D01*
X223285714Y-151928571D01*
X223333333Y-151880952D01*
X223428571Y-151833333D01*
X223619047Y-151833333D01*
X223714285Y-151880952D01*
X223761904Y-151928571D01*
X223809523Y-152023809D01*
%TO.C,C18*%
X215557142Y-160757142D02*
X215604761Y-160709523D01*
X215652380Y-160566666D01*
X215652380Y-160471428D01*
X215604761Y-160328571D01*
X215509523Y-160233333D01*
X215414285Y-160185714D01*
X215223809Y-160138095D01*
X215080952Y-160138095D01*
X214890476Y-160185714D01*
X214795238Y-160233333D01*
X214700000Y-160328571D01*
X214652380Y-160471428D01*
X214652380Y-160566666D01*
X214700000Y-160709523D01*
X214747619Y-160757142D01*
X215652380Y-161709523D02*
X215652380Y-161138095D01*
X215652380Y-161423809D02*
X214652380Y-161423809D01*
X214795238Y-161328571D01*
X214890476Y-161233333D01*
X214938095Y-161138095D01*
X215080952Y-162280952D02*
X215033333Y-162185714D01*
X214985714Y-162138095D01*
X214890476Y-162090476D01*
X214842857Y-162090476D01*
X214747619Y-162138095D01*
X214700000Y-162185714D01*
X214652380Y-162280952D01*
X214652380Y-162471428D01*
X214700000Y-162566666D01*
X214747619Y-162614285D01*
X214842857Y-162661904D01*
X214890476Y-162661904D01*
X214985714Y-162614285D01*
X215033333Y-162566666D01*
X215080952Y-162471428D01*
X215080952Y-162280952D01*
X215128571Y-162185714D01*
X215176190Y-162138095D01*
X215271428Y-162090476D01*
X215461904Y-162090476D01*
X215557142Y-162138095D01*
X215604761Y-162185714D01*
X215652380Y-162280952D01*
X215652380Y-162471428D01*
X215604761Y-162566666D01*
X215557142Y-162614285D01*
X215461904Y-162661904D01*
X215271428Y-162661904D01*
X215176190Y-162614285D01*
X215128571Y-162566666D01*
X215080952Y-162471428D01*
%TO.C,C47*%
X225142857Y-149257142D02*
X225190476Y-149304761D01*
X225333333Y-149352380D01*
X225428571Y-149352380D01*
X225571428Y-149304761D01*
X225666666Y-149209523D01*
X225714285Y-149114285D01*
X225761904Y-148923809D01*
X225761904Y-148780952D01*
X225714285Y-148590476D01*
X225666666Y-148495238D01*
X225571428Y-148400000D01*
X225428571Y-148352380D01*
X225333333Y-148352380D01*
X225190476Y-148400000D01*
X225142857Y-148447619D01*
X224285714Y-148685714D02*
X224285714Y-149352380D01*
X224523809Y-148304761D02*
X224761904Y-149019047D01*
X224142857Y-149019047D01*
X223857142Y-148352380D02*
X223190476Y-148352380D01*
X223619047Y-149352380D01*
%TO.C,C31*%
X226537142Y-163857142D02*
X226584761Y-163809523D01*
X226632380Y-163666666D01*
X226632380Y-163571428D01*
X226584761Y-163428571D01*
X226489523Y-163333333D01*
X226394285Y-163285714D01*
X226203809Y-163238095D01*
X226060952Y-163238095D01*
X225870476Y-163285714D01*
X225775238Y-163333333D01*
X225680000Y-163428571D01*
X225632380Y-163571428D01*
X225632380Y-163666666D01*
X225680000Y-163809523D01*
X225727619Y-163857142D01*
X225632380Y-164190476D02*
X225632380Y-164809523D01*
X226013333Y-164476190D01*
X226013333Y-164619047D01*
X226060952Y-164714285D01*
X226108571Y-164761904D01*
X226203809Y-164809523D01*
X226441904Y-164809523D01*
X226537142Y-164761904D01*
X226584761Y-164714285D01*
X226632380Y-164619047D01*
X226632380Y-164333333D01*
X226584761Y-164238095D01*
X226537142Y-164190476D01*
X226632380Y-165761904D02*
X226632380Y-165190476D01*
X226632380Y-165476190D02*
X225632380Y-165476190D01*
X225775238Y-165380952D01*
X225870476Y-165285714D01*
X225918095Y-165190476D01*
%TO.C,C33*%
X203862142Y-146934142D02*
X203909761Y-146886523D01*
X203957380Y-146743666D01*
X203957380Y-146648428D01*
X203909761Y-146505571D01*
X203814523Y-146410333D01*
X203719285Y-146362714D01*
X203528809Y-146315095D01*
X203385952Y-146315095D01*
X203195476Y-146362714D01*
X203100238Y-146410333D01*
X203005000Y-146505571D01*
X202957380Y-146648428D01*
X202957380Y-146743666D01*
X203005000Y-146886523D01*
X203052619Y-146934142D01*
X202957380Y-147267476D02*
X202957380Y-147886523D01*
X203338333Y-147553190D01*
X203338333Y-147696047D01*
X203385952Y-147791285D01*
X203433571Y-147838904D01*
X203528809Y-147886523D01*
X203766904Y-147886523D01*
X203862142Y-147838904D01*
X203909761Y-147791285D01*
X203957380Y-147696047D01*
X203957380Y-147410333D01*
X203909761Y-147315095D01*
X203862142Y-147267476D01*
X202957380Y-148219857D02*
X202957380Y-148838904D01*
X203338333Y-148505571D01*
X203338333Y-148648428D01*
X203385952Y-148743666D01*
X203433571Y-148791285D01*
X203528809Y-148838904D01*
X203766904Y-148838904D01*
X203862142Y-148791285D01*
X203909761Y-148743666D01*
X203957380Y-148648428D01*
X203957380Y-148362714D01*
X203909761Y-148267476D01*
X203862142Y-148219857D01*
%TO.C,R13*%
X255534380Y-146381142D02*
X255058190Y-146047809D01*
X255534380Y-145809714D02*
X254534380Y-145809714D01*
X254534380Y-146190666D01*
X254582000Y-146285904D01*
X254629619Y-146333523D01*
X254724857Y-146381142D01*
X254867714Y-146381142D01*
X254962952Y-146333523D01*
X255010571Y-146285904D01*
X255058190Y-146190666D01*
X255058190Y-145809714D01*
X255534380Y-147333523D02*
X255534380Y-146762095D01*
X255534380Y-147047809D02*
X254534380Y-147047809D01*
X254677238Y-146952571D01*
X254772476Y-146857333D01*
X254820095Y-146762095D01*
X254534380Y-147666857D02*
X254534380Y-148285904D01*
X254915333Y-147952571D01*
X254915333Y-148095428D01*
X254962952Y-148190666D01*
X255010571Y-148238285D01*
X255105809Y-148285904D01*
X255343904Y-148285904D01*
X255439142Y-148238285D01*
X255486761Y-148190666D01*
X255534380Y-148095428D01*
X255534380Y-147809714D01*
X255486761Y-147714476D01*
X255439142Y-147666857D01*
%TO.C,C58*%
X212142857Y-158257142D02*
X212190476Y-158304761D01*
X212333333Y-158352380D01*
X212428571Y-158352380D01*
X212571428Y-158304761D01*
X212666666Y-158209523D01*
X212714285Y-158114285D01*
X212761904Y-157923809D01*
X212761904Y-157780952D01*
X212714285Y-157590476D01*
X212666666Y-157495238D01*
X212571428Y-157400000D01*
X212428571Y-157352380D01*
X212333333Y-157352380D01*
X212190476Y-157400000D01*
X212142857Y-157447619D01*
X211238095Y-157352380D02*
X211714285Y-157352380D01*
X211761904Y-157828571D01*
X211714285Y-157780952D01*
X211619047Y-157733333D01*
X211380952Y-157733333D01*
X211285714Y-157780952D01*
X211238095Y-157828571D01*
X211190476Y-157923809D01*
X211190476Y-158161904D01*
X211238095Y-158257142D01*
X211285714Y-158304761D01*
X211380952Y-158352380D01*
X211619047Y-158352380D01*
X211714285Y-158304761D01*
X211761904Y-158257142D01*
X210619047Y-157780952D02*
X210714285Y-157733333D01*
X210761904Y-157685714D01*
X210809523Y-157590476D01*
X210809523Y-157542857D01*
X210761904Y-157447619D01*
X210714285Y-157400000D01*
X210619047Y-157352380D01*
X210428571Y-157352380D01*
X210333333Y-157400000D01*
X210285714Y-157447619D01*
X210238095Y-157542857D01*
X210238095Y-157590476D01*
X210285714Y-157685714D01*
X210333333Y-157733333D01*
X210428571Y-157780952D01*
X210619047Y-157780952D01*
X210714285Y-157828571D01*
X210761904Y-157876190D01*
X210809523Y-157971428D01*
X210809523Y-158161904D01*
X210761904Y-158257142D01*
X210714285Y-158304761D01*
X210619047Y-158352380D01*
X210428571Y-158352380D01*
X210333333Y-158304761D01*
X210285714Y-158257142D01*
X210238095Y-158161904D01*
X210238095Y-157971428D01*
X210285714Y-157876190D01*
X210333333Y-157828571D01*
X210428571Y-157780952D01*
%TO.C,R16*%
X238287857Y-141252380D02*
X238621190Y-140776190D01*
X238859285Y-141252380D02*
X238859285Y-140252380D01*
X238478333Y-140252380D01*
X238383095Y-140300000D01*
X238335476Y-140347619D01*
X238287857Y-140442857D01*
X238287857Y-140585714D01*
X238335476Y-140680952D01*
X238383095Y-140728571D01*
X238478333Y-140776190D01*
X238859285Y-140776190D01*
X237335476Y-141252380D02*
X237906904Y-141252380D01*
X237621190Y-141252380D02*
X237621190Y-140252380D01*
X237716428Y-140395238D01*
X237811666Y-140490476D01*
X237906904Y-140538095D01*
X236478333Y-140252380D02*
X236668809Y-140252380D01*
X236764047Y-140300000D01*
X236811666Y-140347619D01*
X236906904Y-140490476D01*
X236954523Y-140680952D01*
X236954523Y-141061904D01*
X236906904Y-141157142D01*
X236859285Y-141204761D01*
X236764047Y-141252380D01*
X236573571Y-141252380D01*
X236478333Y-141204761D01*
X236430714Y-141157142D01*
X236383095Y-141061904D01*
X236383095Y-140823809D01*
X236430714Y-140728571D01*
X236478333Y-140680952D01*
X236573571Y-140633333D01*
X236764047Y-140633333D01*
X236859285Y-140680952D01*
X236906904Y-140728571D01*
X236954523Y-140823809D01*
%TO.C,L5*%
X205906666Y-141882380D02*
X206382857Y-141882380D01*
X206382857Y-140882380D01*
X205097142Y-140882380D02*
X205573333Y-140882380D01*
X205620952Y-141358571D01*
X205573333Y-141310952D01*
X205478095Y-141263333D01*
X205240000Y-141263333D01*
X205144761Y-141310952D01*
X205097142Y-141358571D01*
X205049523Y-141453809D01*
X205049523Y-141691904D01*
X205097142Y-141787142D01*
X205144761Y-141834761D01*
X205240000Y-141882380D01*
X205478095Y-141882380D01*
X205573333Y-141834761D01*
X205620952Y-141787142D01*
%TO.C,C59*%
X206142857Y-162057142D02*
X206190476Y-162104761D01*
X206333333Y-162152380D01*
X206428571Y-162152380D01*
X206571428Y-162104761D01*
X206666666Y-162009523D01*
X206714285Y-161914285D01*
X206761904Y-161723809D01*
X206761904Y-161580952D01*
X206714285Y-161390476D01*
X206666666Y-161295238D01*
X206571428Y-161200000D01*
X206428571Y-161152380D01*
X206333333Y-161152380D01*
X206190476Y-161200000D01*
X206142857Y-161247619D01*
X205238095Y-161152380D02*
X205714285Y-161152380D01*
X205761904Y-161628571D01*
X205714285Y-161580952D01*
X205619047Y-161533333D01*
X205380952Y-161533333D01*
X205285714Y-161580952D01*
X205238095Y-161628571D01*
X205190476Y-161723809D01*
X205190476Y-161961904D01*
X205238095Y-162057142D01*
X205285714Y-162104761D01*
X205380952Y-162152380D01*
X205619047Y-162152380D01*
X205714285Y-162104761D01*
X205761904Y-162057142D01*
X204714285Y-162152380D02*
X204523809Y-162152380D01*
X204428571Y-162104761D01*
X204380952Y-162057142D01*
X204285714Y-161914285D01*
X204238095Y-161723809D01*
X204238095Y-161342857D01*
X204285714Y-161247619D01*
X204333333Y-161200000D01*
X204428571Y-161152380D01*
X204619047Y-161152380D01*
X204714285Y-161200000D01*
X204761904Y-161247619D01*
X204809523Y-161342857D01*
X204809523Y-161580952D01*
X204761904Y-161676190D01*
X204714285Y-161723809D01*
X204619047Y-161771428D01*
X204428571Y-161771428D01*
X204333333Y-161723809D01*
X204285714Y-161676190D01*
X204238095Y-161580952D01*
%TO.C,C37*%
X206042857Y-165257142D02*
X206090476Y-165304761D01*
X206233333Y-165352380D01*
X206328571Y-165352380D01*
X206471428Y-165304761D01*
X206566666Y-165209523D01*
X206614285Y-165114285D01*
X206661904Y-164923809D01*
X206661904Y-164780952D01*
X206614285Y-164590476D01*
X206566666Y-164495238D01*
X206471428Y-164400000D01*
X206328571Y-164352380D01*
X206233333Y-164352380D01*
X206090476Y-164400000D01*
X206042857Y-164447619D01*
X205709523Y-164352380D02*
X205090476Y-164352380D01*
X205423809Y-164733333D01*
X205280952Y-164733333D01*
X205185714Y-164780952D01*
X205138095Y-164828571D01*
X205090476Y-164923809D01*
X205090476Y-165161904D01*
X205138095Y-165257142D01*
X205185714Y-165304761D01*
X205280952Y-165352380D01*
X205566666Y-165352380D01*
X205661904Y-165304761D01*
X205709523Y-165257142D01*
X204757142Y-164352380D02*
X204090476Y-164352380D01*
X204519047Y-165352380D01*
%TO.C,C54*%
X211157142Y-147857142D02*
X211204761Y-147809523D01*
X211252380Y-147666666D01*
X211252380Y-147571428D01*
X211204761Y-147428571D01*
X211109523Y-147333333D01*
X211014285Y-147285714D01*
X210823809Y-147238095D01*
X210680952Y-147238095D01*
X210490476Y-147285714D01*
X210395238Y-147333333D01*
X210300000Y-147428571D01*
X210252380Y-147571428D01*
X210252380Y-147666666D01*
X210300000Y-147809523D01*
X210347619Y-147857142D01*
X210252380Y-148761904D02*
X210252380Y-148285714D01*
X210728571Y-148238095D01*
X210680952Y-148285714D01*
X210633333Y-148380952D01*
X210633333Y-148619047D01*
X210680952Y-148714285D01*
X210728571Y-148761904D01*
X210823809Y-148809523D01*
X211061904Y-148809523D01*
X211157142Y-148761904D01*
X211204761Y-148714285D01*
X211252380Y-148619047D01*
X211252380Y-148380952D01*
X211204761Y-148285714D01*
X211157142Y-148238095D01*
X210585714Y-149666666D02*
X211252380Y-149666666D01*
X210204761Y-149428571D02*
X210919047Y-149190476D01*
X210919047Y-149809523D01*
%TO.C,C41*%
X233021142Y-161917142D02*
X233068761Y-161869523D01*
X233116380Y-161726666D01*
X233116380Y-161631428D01*
X233068761Y-161488571D01*
X232973523Y-161393333D01*
X232878285Y-161345714D01*
X232687809Y-161298095D01*
X232544952Y-161298095D01*
X232354476Y-161345714D01*
X232259238Y-161393333D01*
X232164000Y-161488571D01*
X232116380Y-161631428D01*
X232116380Y-161726666D01*
X232164000Y-161869523D01*
X232211619Y-161917142D01*
X232449714Y-162774285D02*
X233116380Y-162774285D01*
X232068761Y-162536190D02*
X232783047Y-162298095D01*
X232783047Y-162917142D01*
X233116380Y-163821904D02*
X233116380Y-163250476D01*
X233116380Y-163536190D02*
X232116380Y-163536190D01*
X232259238Y-163440952D01*
X232354476Y-163345714D01*
X232402095Y-163250476D01*
%TO.C,C22*%
X225142857Y-153757142D02*
X225190476Y-153804761D01*
X225333333Y-153852380D01*
X225428571Y-153852380D01*
X225571428Y-153804761D01*
X225666666Y-153709523D01*
X225714285Y-153614285D01*
X225761904Y-153423809D01*
X225761904Y-153280952D01*
X225714285Y-153090476D01*
X225666666Y-152995238D01*
X225571428Y-152900000D01*
X225428571Y-152852380D01*
X225333333Y-152852380D01*
X225190476Y-152900000D01*
X225142857Y-152947619D01*
X224761904Y-152947619D02*
X224714285Y-152900000D01*
X224619047Y-152852380D01*
X224380952Y-152852380D01*
X224285714Y-152900000D01*
X224238095Y-152947619D01*
X224190476Y-153042857D01*
X224190476Y-153138095D01*
X224238095Y-153280952D01*
X224809523Y-153852380D01*
X224190476Y-153852380D01*
X223809523Y-152947619D02*
X223761904Y-152900000D01*
X223666666Y-152852380D01*
X223428571Y-152852380D01*
X223333333Y-152900000D01*
X223285714Y-152947619D01*
X223238095Y-153042857D01*
X223238095Y-153138095D01*
X223285714Y-153280952D01*
X223857142Y-153852380D01*
X223238095Y-153852380D01*
%TO.C,C38*%
X234545142Y-161917142D02*
X234592761Y-161869523D01*
X234640380Y-161726666D01*
X234640380Y-161631428D01*
X234592761Y-161488571D01*
X234497523Y-161393333D01*
X234402285Y-161345714D01*
X234211809Y-161298095D01*
X234068952Y-161298095D01*
X233878476Y-161345714D01*
X233783238Y-161393333D01*
X233688000Y-161488571D01*
X233640380Y-161631428D01*
X233640380Y-161726666D01*
X233688000Y-161869523D01*
X233735619Y-161917142D01*
X233640380Y-162250476D02*
X233640380Y-162869523D01*
X234021333Y-162536190D01*
X234021333Y-162679047D01*
X234068952Y-162774285D01*
X234116571Y-162821904D01*
X234211809Y-162869523D01*
X234449904Y-162869523D01*
X234545142Y-162821904D01*
X234592761Y-162774285D01*
X234640380Y-162679047D01*
X234640380Y-162393333D01*
X234592761Y-162298095D01*
X234545142Y-162250476D01*
X234068952Y-163440952D02*
X234021333Y-163345714D01*
X233973714Y-163298095D01*
X233878476Y-163250476D01*
X233830857Y-163250476D01*
X233735619Y-163298095D01*
X233688000Y-163345714D01*
X233640380Y-163440952D01*
X233640380Y-163631428D01*
X233688000Y-163726666D01*
X233735619Y-163774285D01*
X233830857Y-163821904D01*
X233878476Y-163821904D01*
X233973714Y-163774285D01*
X234021333Y-163726666D01*
X234068952Y-163631428D01*
X234068952Y-163440952D01*
X234116571Y-163345714D01*
X234164190Y-163298095D01*
X234259428Y-163250476D01*
X234449904Y-163250476D01*
X234545142Y-163298095D01*
X234592761Y-163345714D01*
X234640380Y-163440952D01*
X234640380Y-163631428D01*
X234592761Y-163726666D01*
X234545142Y-163774285D01*
X234449904Y-163821904D01*
X234259428Y-163821904D01*
X234164190Y-163774285D01*
X234116571Y-163726666D01*
X234068952Y-163631428D01*
%TO.C,L11*%
X216588380Y-210431142D02*
X216588380Y-209954952D01*
X215588380Y-209954952D01*
X216588380Y-211288285D02*
X216588380Y-210716857D01*
X216588380Y-211002571D02*
X215588380Y-211002571D01*
X215731238Y-210907333D01*
X215826476Y-210812095D01*
X215874095Y-210716857D01*
X216588380Y-212240666D02*
X216588380Y-211669238D01*
X216588380Y-211954952D02*
X215588380Y-211954952D01*
X215731238Y-211859714D01*
X215826476Y-211764476D01*
X215874095Y-211669238D01*
%TO.C,C52*%
X217357142Y-147857142D02*
X217404761Y-147809523D01*
X217452380Y-147666666D01*
X217452380Y-147571428D01*
X217404761Y-147428571D01*
X217309523Y-147333333D01*
X217214285Y-147285714D01*
X217023809Y-147238095D01*
X216880952Y-147238095D01*
X216690476Y-147285714D01*
X216595238Y-147333333D01*
X216500000Y-147428571D01*
X216452380Y-147571428D01*
X216452380Y-147666666D01*
X216500000Y-147809523D01*
X216547619Y-147857142D01*
X216452380Y-148761904D02*
X216452380Y-148285714D01*
X216928571Y-148238095D01*
X216880952Y-148285714D01*
X216833333Y-148380952D01*
X216833333Y-148619047D01*
X216880952Y-148714285D01*
X216928571Y-148761904D01*
X217023809Y-148809523D01*
X217261904Y-148809523D01*
X217357142Y-148761904D01*
X217404761Y-148714285D01*
X217452380Y-148619047D01*
X217452380Y-148380952D01*
X217404761Y-148285714D01*
X217357142Y-148238095D01*
X216547619Y-149190476D02*
X216500000Y-149238095D01*
X216452380Y-149333333D01*
X216452380Y-149571428D01*
X216500000Y-149666666D01*
X216547619Y-149714285D01*
X216642857Y-149761904D01*
X216738095Y-149761904D01*
X216880952Y-149714285D01*
X217452380Y-149142857D01*
X217452380Y-149761904D01*
%TO.C,C51*%
X220657142Y-147857142D02*
X220704761Y-147809523D01*
X220752380Y-147666666D01*
X220752380Y-147571428D01*
X220704761Y-147428571D01*
X220609523Y-147333333D01*
X220514285Y-147285714D01*
X220323809Y-147238095D01*
X220180952Y-147238095D01*
X219990476Y-147285714D01*
X219895238Y-147333333D01*
X219800000Y-147428571D01*
X219752380Y-147571428D01*
X219752380Y-147666666D01*
X219800000Y-147809523D01*
X219847619Y-147857142D01*
X219752380Y-148761904D02*
X219752380Y-148285714D01*
X220228571Y-148238095D01*
X220180952Y-148285714D01*
X220133333Y-148380952D01*
X220133333Y-148619047D01*
X220180952Y-148714285D01*
X220228571Y-148761904D01*
X220323809Y-148809523D01*
X220561904Y-148809523D01*
X220657142Y-148761904D01*
X220704761Y-148714285D01*
X220752380Y-148619047D01*
X220752380Y-148380952D01*
X220704761Y-148285714D01*
X220657142Y-148238095D01*
X220752380Y-149761904D02*
X220752380Y-149190476D01*
X220752380Y-149476190D02*
X219752380Y-149476190D01*
X219895238Y-149380952D01*
X219990476Y-149285714D01*
X220038095Y-149190476D01*
%TO.C,C34*%
X206042857Y-163757142D02*
X206090476Y-163804761D01*
X206233333Y-163852380D01*
X206328571Y-163852380D01*
X206471428Y-163804761D01*
X206566666Y-163709523D01*
X206614285Y-163614285D01*
X206661904Y-163423809D01*
X206661904Y-163280952D01*
X206614285Y-163090476D01*
X206566666Y-162995238D01*
X206471428Y-162900000D01*
X206328571Y-162852380D01*
X206233333Y-162852380D01*
X206090476Y-162900000D01*
X206042857Y-162947619D01*
X205709523Y-162852380D02*
X205090476Y-162852380D01*
X205423809Y-163233333D01*
X205280952Y-163233333D01*
X205185714Y-163280952D01*
X205138095Y-163328571D01*
X205090476Y-163423809D01*
X205090476Y-163661904D01*
X205138095Y-163757142D01*
X205185714Y-163804761D01*
X205280952Y-163852380D01*
X205566666Y-163852380D01*
X205661904Y-163804761D01*
X205709523Y-163757142D01*
X204233333Y-163185714D02*
X204233333Y-163852380D01*
X204471428Y-162804761D02*
X204709523Y-163519047D01*
X204090476Y-163519047D01*
%TO.C,C45*%
X225142857Y-155457142D02*
X225190476Y-155504761D01*
X225333333Y-155552380D01*
X225428571Y-155552380D01*
X225571428Y-155504761D01*
X225666666Y-155409523D01*
X225714285Y-155314285D01*
X225761904Y-155123809D01*
X225761904Y-154980952D01*
X225714285Y-154790476D01*
X225666666Y-154695238D01*
X225571428Y-154600000D01*
X225428571Y-154552380D01*
X225333333Y-154552380D01*
X225190476Y-154600000D01*
X225142857Y-154647619D01*
X224285714Y-154885714D02*
X224285714Y-155552380D01*
X224523809Y-154504761D02*
X224761904Y-155219047D01*
X224142857Y-155219047D01*
X223285714Y-154552380D02*
X223761904Y-154552380D01*
X223809523Y-155028571D01*
X223761904Y-154980952D01*
X223666666Y-154933333D01*
X223428571Y-154933333D01*
X223333333Y-154980952D01*
X223285714Y-155028571D01*
X223238095Y-155123809D01*
X223238095Y-155361904D01*
X223285714Y-155457142D01*
X223333333Y-155504761D01*
X223428571Y-155552380D01*
X223666666Y-155552380D01*
X223761904Y-155504761D01*
X223809523Y-155457142D01*
%TO.C,C50*%
X224157142Y-141857142D02*
X224204761Y-141809523D01*
X224252380Y-141666666D01*
X224252380Y-141571428D01*
X224204761Y-141428571D01*
X224109523Y-141333333D01*
X224014285Y-141285714D01*
X223823809Y-141238095D01*
X223680952Y-141238095D01*
X223490476Y-141285714D01*
X223395238Y-141333333D01*
X223300000Y-141428571D01*
X223252380Y-141571428D01*
X223252380Y-141666666D01*
X223300000Y-141809523D01*
X223347619Y-141857142D01*
X223252380Y-142761904D02*
X223252380Y-142285714D01*
X223728571Y-142238095D01*
X223680952Y-142285714D01*
X223633333Y-142380952D01*
X223633333Y-142619047D01*
X223680952Y-142714285D01*
X223728571Y-142761904D01*
X223823809Y-142809523D01*
X224061904Y-142809523D01*
X224157142Y-142761904D01*
X224204761Y-142714285D01*
X224252380Y-142619047D01*
X224252380Y-142380952D01*
X224204761Y-142285714D01*
X224157142Y-142238095D01*
X223252380Y-143428571D02*
X223252380Y-143523809D01*
X223300000Y-143619047D01*
X223347619Y-143666666D01*
X223442857Y-143714285D01*
X223633333Y-143761904D01*
X223871428Y-143761904D01*
X224061904Y-143714285D01*
X224157142Y-143666666D01*
X224204761Y-143619047D01*
X224252380Y-143523809D01*
X224252380Y-143428571D01*
X224204761Y-143333333D01*
X224157142Y-143285714D01*
X224061904Y-143238095D01*
X223871428Y-143190476D01*
X223633333Y-143190476D01*
X223442857Y-143238095D01*
X223347619Y-143285714D01*
X223300000Y-143333333D01*
X223252380Y-143428571D01*
%TO.C,R19*%
X218926380Y-136771142D02*
X218450190Y-136437809D01*
X218926380Y-136199714D02*
X217926380Y-136199714D01*
X217926380Y-136580666D01*
X217974000Y-136675904D01*
X218021619Y-136723523D01*
X218116857Y-136771142D01*
X218259714Y-136771142D01*
X218354952Y-136723523D01*
X218402571Y-136675904D01*
X218450190Y-136580666D01*
X218450190Y-136199714D01*
X218926380Y-137723523D02*
X218926380Y-137152095D01*
X218926380Y-137437809D02*
X217926380Y-137437809D01*
X218069238Y-137342571D01*
X218164476Y-137247333D01*
X218212095Y-137152095D01*
X218926380Y-138199714D02*
X218926380Y-138390190D01*
X218878761Y-138485428D01*
X218831142Y-138533047D01*
X218688285Y-138628285D01*
X218497809Y-138675904D01*
X218116857Y-138675904D01*
X218021619Y-138628285D01*
X217974000Y-138580666D01*
X217926380Y-138485428D01*
X217926380Y-138294952D01*
X217974000Y-138199714D01*
X218021619Y-138152095D01*
X218116857Y-138104476D01*
X218354952Y-138104476D01*
X218450190Y-138152095D01*
X218497809Y-138199714D01*
X218545428Y-138294952D01*
X218545428Y-138485428D01*
X218497809Y-138580666D01*
X218450190Y-138628285D01*
X218354952Y-138675904D01*
%TO.C,C122*%
X220829047Y-205211142D02*
X220876666Y-205258761D01*
X221019523Y-205306380D01*
X221114761Y-205306380D01*
X221257619Y-205258761D01*
X221352857Y-205163523D01*
X221400476Y-205068285D01*
X221448095Y-204877809D01*
X221448095Y-204734952D01*
X221400476Y-204544476D01*
X221352857Y-204449238D01*
X221257619Y-204354000D01*
X221114761Y-204306380D01*
X221019523Y-204306380D01*
X220876666Y-204354000D01*
X220829047Y-204401619D01*
X219876666Y-205306380D02*
X220448095Y-205306380D01*
X220162380Y-205306380D02*
X220162380Y-204306380D01*
X220257619Y-204449238D01*
X220352857Y-204544476D01*
X220448095Y-204592095D01*
X219495714Y-204401619D02*
X219448095Y-204354000D01*
X219352857Y-204306380D01*
X219114761Y-204306380D01*
X219019523Y-204354000D01*
X218971904Y-204401619D01*
X218924285Y-204496857D01*
X218924285Y-204592095D01*
X218971904Y-204734952D01*
X219543333Y-205306380D01*
X218924285Y-205306380D01*
X218543333Y-204401619D02*
X218495714Y-204354000D01*
X218400476Y-204306380D01*
X218162380Y-204306380D01*
X218067142Y-204354000D01*
X218019523Y-204401619D01*
X217971904Y-204496857D01*
X217971904Y-204592095D01*
X218019523Y-204734952D01*
X218590952Y-205306380D01*
X217971904Y-205306380D01*
%TO.C,C63*%
X226891142Y-136771142D02*
X226938761Y-136723523D01*
X226986380Y-136580666D01*
X226986380Y-136485428D01*
X226938761Y-136342571D01*
X226843523Y-136247333D01*
X226748285Y-136199714D01*
X226557809Y-136152095D01*
X226414952Y-136152095D01*
X226224476Y-136199714D01*
X226129238Y-136247333D01*
X226034000Y-136342571D01*
X225986380Y-136485428D01*
X225986380Y-136580666D01*
X226034000Y-136723523D01*
X226081619Y-136771142D01*
X225986380Y-137628285D02*
X225986380Y-137437809D01*
X226034000Y-137342571D01*
X226081619Y-137294952D01*
X226224476Y-137199714D01*
X226414952Y-137152095D01*
X226795904Y-137152095D01*
X226891142Y-137199714D01*
X226938761Y-137247333D01*
X226986380Y-137342571D01*
X226986380Y-137533047D01*
X226938761Y-137628285D01*
X226891142Y-137675904D01*
X226795904Y-137723523D01*
X226557809Y-137723523D01*
X226462571Y-137675904D01*
X226414952Y-137628285D01*
X226367333Y-137533047D01*
X226367333Y-137342571D01*
X226414952Y-137247333D01*
X226462571Y-137199714D01*
X226557809Y-137152095D01*
X225986380Y-138056857D02*
X225986380Y-138675904D01*
X226367333Y-138342571D01*
X226367333Y-138485428D01*
X226414952Y-138580666D01*
X226462571Y-138628285D01*
X226557809Y-138675904D01*
X226795904Y-138675904D01*
X226891142Y-138628285D01*
X226938761Y-138580666D01*
X226986380Y-138485428D01*
X226986380Y-138199714D01*
X226938761Y-138104476D01*
X226891142Y-138056857D01*
%TO.C,R11*%
X196591380Y-141727142D02*
X196115190Y-141393809D01*
X196591380Y-141155714D02*
X195591380Y-141155714D01*
X195591380Y-141536666D01*
X195639000Y-141631904D01*
X195686619Y-141679523D01*
X195781857Y-141727142D01*
X195924714Y-141727142D01*
X196019952Y-141679523D01*
X196067571Y-141631904D01*
X196115190Y-141536666D01*
X196115190Y-141155714D01*
X196591380Y-142679523D02*
X196591380Y-142108095D01*
X196591380Y-142393809D02*
X195591380Y-142393809D01*
X195734238Y-142298571D01*
X195829476Y-142203333D01*
X195877095Y-142108095D01*
X196591380Y-143631904D02*
X196591380Y-143060476D01*
X196591380Y-143346190D02*
X195591380Y-143346190D01*
X195734238Y-143250952D01*
X195829476Y-143155714D01*
X195877095Y-143060476D01*
%TO.C,C44*%
X225142857Y-156857142D02*
X225190476Y-156904761D01*
X225333333Y-156952380D01*
X225428571Y-156952380D01*
X225571428Y-156904761D01*
X225666666Y-156809523D01*
X225714285Y-156714285D01*
X225761904Y-156523809D01*
X225761904Y-156380952D01*
X225714285Y-156190476D01*
X225666666Y-156095238D01*
X225571428Y-156000000D01*
X225428571Y-155952380D01*
X225333333Y-155952380D01*
X225190476Y-156000000D01*
X225142857Y-156047619D01*
X224285714Y-156285714D02*
X224285714Y-156952380D01*
X224523809Y-155904761D02*
X224761904Y-156619047D01*
X224142857Y-156619047D01*
X223333333Y-156285714D02*
X223333333Y-156952380D01*
X223571428Y-155904761D02*
X223809523Y-156619047D01*
X223190476Y-156619047D01*
%TO.C,C23*%
X214257142Y-147857142D02*
X214304761Y-147809523D01*
X214352380Y-147666666D01*
X214352380Y-147571428D01*
X214304761Y-147428571D01*
X214209523Y-147333333D01*
X214114285Y-147285714D01*
X213923809Y-147238095D01*
X213780952Y-147238095D01*
X213590476Y-147285714D01*
X213495238Y-147333333D01*
X213400000Y-147428571D01*
X213352380Y-147571428D01*
X213352380Y-147666666D01*
X213400000Y-147809523D01*
X213447619Y-147857142D01*
X213447619Y-148238095D02*
X213400000Y-148285714D01*
X213352380Y-148380952D01*
X213352380Y-148619047D01*
X213400000Y-148714285D01*
X213447619Y-148761904D01*
X213542857Y-148809523D01*
X213638095Y-148809523D01*
X213780952Y-148761904D01*
X214352380Y-148190476D01*
X214352380Y-148809523D01*
X213352380Y-149142857D02*
X213352380Y-149761904D01*
X213733333Y-149428571D01*
X213733333Y-149571428D01*
X213780952Y-149666666D01*
X213828571Y-149714285D01*
X213923809Y-149761904D01*
X214161904Y-149761904D01*
X214257142Y-149714285D01*
X214304761Y-149666666D01*
X214352380Y-149571428D01*
X214352380Y-149285714D01*
X214304761Y-149190476D01*
X214257142Y-149142857D01*
%TO.C,C30*%
X212142857Y-154957142D02*
X212190476Y-155004761D01*
X212333333Y-155052380D01*
X212428571Y-155052380D01*
X212571428Y-155004761D01*
X212666666Y-154909523D01*
X212714285Y-154814285D01*
X212761904Y-154623809D01*
X212761904Y-154480952D01*
X212714285Y-154290476D01*
X212666666Y-154195238D01*
X212571428Y-154100000D01*
X212428571Y-154052380D01*
X212333333Y-154052380D01*
X212190476Y-154100000D01*
X212142857Y-154147619D01*
X211809523Y-154052380D02*
X211190476Y-154052380D01*
X211523809Y-154433333D01*
X211380952Y-154433333D01*
X211285714Y-154480952D01*
X211238095Y-154528571D01*
X211190476Y-154623809D01*
X211190476Y-154861904D01*
X211238095Y-154957142D01*
X211285714Y-155004761D01*
X211380952Y-155052380D01*
X211666666Y-155052380D01*
X211761904Y-155004761D01*
X211809523Y-154957142D01*
X210571428Y-154052380D02*
X210476190Y-154052380D01*
X210380952Y-154100000D01*
X210333333Y-154147619D01*
X210285714Y-154242857D01*
X210238095Y-154433333D01*
X210238095Y-154671428D01*
X210285714Y-154861904D01*
X210333333Y-154957142D01*
X210380952Y-155004761D01*
X210476190Y-155052380D01*
X210571428Y-155052380D01*
X210666666Y-155004761D01*
X210714285Y-154957142D01*
X210761904Y-154861904D01*
X210809523Y-154671428D01*
X210809523Y-154433333D01*
X210761904Y-154242857D01*
X210714285Y-154147619D01*
X210666666Y-154100000D01*
X210571428Y-154052380D01*
%TO.C,C53*%
X215857142Y-147857142D02*
X215904761Y-147809523D01*
X215952380Y-147666666D01*
X215952380Y-147571428D01*
X215904761Y-147428571D01*
X215809523Y-147333333D01*
X215714285Y-147285714D01*
X215523809Y-147238095D01*
X215380952Y-147238095D01*
X215190476Y-147285714D01*
X215095238Y-147333333D01*
X215000000Y-147428571D01*
X214952380Y-147571428D01*
X214952380Y-147666666D01*
X215000000Y-147809523D01*
X215047619Y-147857142D01*
X214952380Y-148761904D02*
X214952380Y-148285714D01*
X215428571Y-148238095D01*
X215380952Y-148285714D01*
X215333333Y-148380952D01*
X215333333Y-148619047D01*
X215380952Y-148714285D01*
X215428571Y-148761904D01*
X215523809Y-148809523D01*
X215761904Y-148809523D01*
X215857142Y-148761904D01*
X215904761Y-148714285D01*
X215952380Y-148619047D01*
X215952380Y-148380952D01*
X215904761Y-148285714D01*
X215857142Y-148238095D01*
X214952380Y-149142857D02*
X214952380Y-149761904D01*
X215333333Y-149428571D01*
X215333333Y-149571428D01*
X215380952Y-149666666D01*
X215428571Y-149714285D01*
X215523809Y-149761904D01*
X215761904Y-149761904D01*
X215857142Y-149714285D01*
X215904761Y-149666666D01*
X215952380Y-149571428D01*
X215952380Y-149285714D01*
X215904761Y-149190476D01*
X215857142Y-149142857D01*
%TO.C,C43*%
X220157142Y-160757142D02*
X220204761Y-160709523D01*
X220252380Y-160566666D01*
X220252380Y-160471428D01*
X220204761Y-160328571D01*
X220109523Y-160233333D01*
X220014285Y-160185714D01*
X219823809Y-160138095D01*
X219680952Y-160138095D01*
X219490476Y-160185714D01*
X219395238Y-160233333D01*
X219300000Y-160328571D01*
X219252380Y-160471428D01*
X219252380Y-160566666D01*
X219300000Y-160709523D01*
X219347619Y-160757142D01*
X219585714Y-161614285D02*
X220252380Y-161614285D01*
X219204761Y-161376190D02*
X219919047Y-161138095D01*
X219919047Y-161757142D01*
X219252380Y-162042857D02*
X219252380Y-162661904D01*
X219633333Y-162328571D01*
X219633333Y-162471428D01*
X219680952Y-162566666D01*
X219728571Y-162614285D01*
X219823809Y-162661904D01*
X220061904Y-162661904D01*
X220157142Y-162614285D01*
X220204761Y-162566666D01*
X220252380Y-162471428D01*
X220252380Y-162185714D01*
X220204761Y-162090476D01*
X220157142Y-162042857D01*
D11*
%TO.C,C55*%
X208640580Y-147290000D02*
X208359420Y-147290000D01*
X208640580Y-148310000D02*
X208359420Y-148310000D01*
%TO.C,C26*%
X214359420Y-140510000D02*
X214640580Y-140510000D01*
X214359420Y-139490000D02*
X214640580Y-139490000D01*
%TO.C,C48*%
X227790000Y-145640580D02*
X227790000Y-145359420D01*
X228810000Y-145640580D02*
X228810000Y-145359420D01*
%TO.C,R14*%
X253129500Y-143738742D02*
X253129500Y-144213258D01*
X254174500Y-143738742D02*
X254174500Y-144213258D01*
%TO.C,C25*%
X212860000Y-145640580D02*
X212860000Y-145359420D01*
X211840000Y-145640580D02*
X211840000Y-145359420D01*
%TO.C,C56*%
X208640580Y-150590000D02*
X208359420Y-150590000D01*
X208640580Y-151610000D02*
X208359420Y-151610000D01*
%TO.C,C40*%
X214160000Y-164359420D02*
X214160000Y-164640580D01*
X213140000Y-164359420D02*
X213140000Y-164640580D01*
%TO.C,C197*%
X219683000Y-222799748D02*
X219683000Y-223322252D01*
X218213000Y-222799748D02*
X218213000Y-223322252D01*
%TO.C,C49*%
X227210000Y-145640580D02*
X227210000Y-145359420D01*
X226190000Y-145640580D02*
X226190000Y-145359420D01*
%TO.C,C20*%
X227359420Y-157490000D02*
X227640580Y-157490000D01*
X227359420Y-158510000D02*
X227640580Y-158510000D01*
%TO.C,C198*%
X219683000Y-226355748D02*
X219683000Y-226878252D01*
X218213000Y-226355748D02*
X218213000Y-226878252D01*
%TO.C,C57*%
X208640580Y-153310000D02*
X208359420Y-153310000D01*
X208640580Y-152290000D02*
X208359420Y-152290000D01*
%TO.C,R18*%
X198642500Y-148555742D02*
X198642500Y-149030258D01*
X197597500Y-148555742D02*
X197597500Y-149030258D01*
D12*
%TO.C,J2*%
X76650000Y-147800000D02*
X96570000Y-147800000D01*
X114550000Y-139050000D02*
X96700000Y-139050000D01*
X96700000Y-215950000D02*
X114550000Y-215950000D01*
X98700000Y-215950000D02*
X98700000Y-139050000D01*
X96570000Y-207200000D02*
X76650000Y-207200000D01*
X114550000Y-215950000D02*
X114550000Y-139050000D01*
X76650000Y-207200000D02*
X76650000Y-147800000D01*
X96700000Y-139050000D02*
X96700000Y-215950000D01*
D13*
X115454000Y-199500000D02*
G75*
G03*
X115454000Y-199500000I-200000J0D01*
G01*
D11*
%TO.C,C19*%
X217790000Y-164359420D02*
X217790000Y-164640580D01*
X218810000Y-164359420D02*
X218810000Y-164640580D01*
%TO.C,C28*%
X202313000Y-144258420D02*
X202313000Y-144539580D01*
X201293000Y-144258420D02*
X201293000Y-144539580D01*
%TO.C,L4*%
X202402221Y-142623000D02*
X202727779Y-142623000D01*
X202402221Y-141603000D02*
X202727779Y-141603000D01*
%TO.C,R12*%
X195533500Y-148555742D02*
X195533500Y-149030258D01*
X196578500Y-148555742D02*
X196578500Y-149030258D01*
%TO.C,C42*%
X217260000Y-164359420D02*
X217260000Y-164640580D01*
X216240000Y-164359420D02*
X216240000Y-164640580D01*
%TO.C,L6*%
X233475279Y-167490000D02*
X233149721Y-167490000D01*
X233475279Y-168510000D02*
X233149721Y-168510000D01*
%TO.C,C36*%
X205992000Y-137854580D02*
X205992000Y-137573420D01*
X207012000Y-137854580D02*
X207012000Y-137573420D01*
%TO.C,C24*%
X210115580Y-139490000D02*
X209834420Y-139490000D01*
X210115580Y-140510000D02*
X209834420Y-140510000D01*
%TO.C,U9*%
X220944000Y-137414000D02*
X220944000Y-136764000D01*
X224064000Y-137414000D02*
X224064000Y-139089000D01*
X220944000Y-137414000D02*
X220944000Y-138064000D01*
X224064000Y-137414000D02*
X224064000Y-136764000D01*
%TO.C,C32*%
X208640580Y-156710000D02*
X208359420Y-156710000D01*
X208640580Y-155690000D02*
X208359420Y-155690000D01*
%TO.C,C35*%
X205488000Y-137854580D02*
X205488000Y-137573420D01*
X204468000Y-137854580D02*
X204468000Y-137573420D01*
%TO.C,C27*%
X208640580Y-145740000D02*
X208359420Y-145740000D01*
X208640580Y-146760000D02*
X208359420Y-146760000D01*
%TO.C,C39*%
X211590000Y-164359420D02*
X211590000Y-164640580D01*
X212610000Y-164359420D02*
X212610000Y-164640580D01*
%TO.C,C29*%
X227640580Y-160740000D02*
X227359420Y-160740000D01*
X227640580Y-161760000D02*
X227359420Y-161760000D01*
%TO.C,C21*%
X227359420Y-150890000D02*
X227640580Y-150890000D01*
X227359420Y-149870000D02*
X227640580Y-149870000D01*
%TO.C,R17*%
X198642500Y-145455742D02*
X198642500Y-145930258D01*
X197597500Y-145455742D02*
X197597500Y-145930258D01*
%TO.C,C46*%
X227359420Y-151394000D02*
X227640580Y-151394000D01*
X227359420Y-152414000D02*
X227640580Y-152414000D01*
%TO.C,C18*%
X215708000Y-164359420D02*
X215708000Y-164640580D01*
X214688000Y-164359420D02*
X214688000Y-164640580D01*
%TO.C,C47*%
X227359420Y-149360000D02*
X227640580Y-149360000D01*
X227359420Y-148340000D02*
X227640580Y-148340000D01*
%TO.C,C31*%
X225260000Y-164640580D02*
X225260000Y-164359420D01*
X224240000Y-164640580D02*
X224240000Y-164359420D01*
%TO.C,C33*%
X203837000Y-144258420D02*
X203837000Y-144539580D01*
X202817000Y-144258420D02*
X202817000Y-144539580D01*
%TO.C,R13*%
X253129500Y-147261258D02*
X253129500Y-146786742D01*
X254174500Y-147261258D02*
X254174500Y-146786742D01*
%TO.C,C58*%
X208640580Y-158410000D02*
X208359420Y-158410000D01*
X208640580Y-157390000D02*
X208359420Y-157390000D01*
%TO.C,R16*%
X237407742Y-142725500D02*
X237882258Y-142725500D01*
X237407742Y-141680500D02*
X237882258Y-141680500D01*
%TO.C,L5*%
X205577221Y-140510000D02*
X205902779Y-140510000D01*
X205577221Y-139490000D02*
X205902779Y-139490000D01*
%TO.C,C59*%
X208640580Y-161240000D02*
X208359420Y-161240000D01*
X208640580Y-162260000D02*
X208359420Y-162260000D01*
%TO.C,C37*%
X208640580Y-164340000D02*
X208359420Y-164340000D01*
X208640580Y-165360000D02*
X208359420Y-165360000D01*
%TO.C,C54*%
X211310000Y-145640580D02*
X211310000Y-145359420D01*
X210290000Y-145640580D02*
X210290000Y-145359420D01*
%TO.C,C41*%
X233022500Y-165840580D02*
X233022500Y-165559420D01*
X232002500Y-165840580D02*
X232002500Y-165559420D01*
%TO.C,C22*%
X227640580Y-153938000D02*
X227359420Y-153938000D01*
X227640580Y-152918000D02*
X227359420Y-152918000D01*
%TO.C,C38*%
X233602500Y-165840580D02*
X233602500Y-165559420D01*
X234622500Y-165840580D02*
X234622500Y-165559420D01*
%TO.C,L11*%
X219296000Y-210812748D02*
X219296000Y-211335252D01*
X217076000Y-210812748D02*
X217076000Y-211335252D01*
%TO.C,C52*%
X216490000Y-145640580D02*
X216490000Y-145359420D01*
X217510000Y-145640580D02*
X217510000Y-145359420D01*
%TO.C,C51*%
X220760000Y-145640580D02*
X220760000Y-145359420D01*
X219740000Y-145640580D02*
X219740000Y-145359420D01*
%TO.C,C34*%
X208640580Y-162790000D02*
X208359420Y-162790000D01*
X208640580Y-163810000D02*
X208359420Y-163810000D01*
%TO.C,C45*%
X227359420Y-155462000D02*
X227640580Y-155462000D01*
X227359420Y-154442000D02*
X227640580Y-154442000D01*
%TO.C,C50*%
X223240000Y-145640580D02*
X223240000Y-145359420D01*
X224260000Y-145640580D02*
X224260000Y-145359420D01*
%TO.C,R19*%
X219381500Y-137176742D02*
X219381500Y-137651258D01*
X220426500Y-137176742D02*
X220426500Y-137651258D01*
%TO.C,C122*%
X218998748Y-207715000D02*
X220421252Y-207715000D01*
X218998748Y-205895000D02*
X220421252Y-205895000D01*
%TO.C,C63*%
X225614000Y-137554580D02*
X225614000Y-137273420D01*
X224594000Y-137554580D02*
X224594000Y-137273420D01*
%TO.C,R11*%
X195533500Y-145455742D02*
X195533500Y-145930258D01*
X196578500Y-145455742D02*
X196578500Y-145930258D01*
%TO.C,C44*%
X227359420Y-155966000D02*
X227640580Y-155966000D01*
X227359420Y-156986000D02*
X227640580Y-156986000D01*
%TO.C,C23*%
X214410000Y-145640580D02*
X214410000Y-145359420D01*
X213390000Y-145640580D02*
X213390000Y-145359420D01*
%TO.C,C30*%
X208640580Y-155010000D02*
X208359420Y-155010000D01*
X208640580Y-153990000D02*
X208359420Y-153990000D01*
%TO.C,C53*%
X214940000Y-145640580D02*
X214940000Y-145359420D01*
X215960000Y-145640580D02*
X215960000Y-145359420D01*
%TO.C,C43*%
X220360000Y-164359420D02*
X220360000Y-164640580D01*
X219340000Y-164359420D02*
X219340000Y-164640580D01*
%TD*%
M02*
