M48
; DRILL file {KiCad (6.0.9)} date Thu May 11 15:11:44 2023
; FORMAT={-:-/ absolute / metric / decimal}
; #@! TF.CreationDate,2023-05-11T15:11:44+03:00
; #@! TF.GenerationSoftware,Kicad,Pcbnew,(6.0.9)
; #@! TF.FileFunction,MixedPlating,1,6
FMAT,2
METRIC
; #@! TA.AperFunction,Plated,PTH,ViaDrill
T1C0.200
; #@! TA.AperFunction,Plated,PTH,ComponentDrill
T2C0.203
; #@! TA.AperFunction,Plated,PTH,ViaDrill
T3C0.400
; #@! TA.AperFunction,Plated,PTH,ComponentDrill
T4C0.600
; #@! TA.AperFunction,Plated,PTH,ComponentDrill
T5C0.762
; #@! TA.AperFunction,Plated,PTH,ComponentDrill
T6C1.000
; #@! TA.AperFunction,Plated,PTH,ComponentDrill
T7C1.020
; #@! TA.AperFunction,Plated,PTH,ComponentDrill
T8C1.200
; #@! TA.AperFunction,Plated,PTH,ComponentDrill
T9C1.750
; #@! TA.AperFunction,Plated,PTH,ComponentDrill
T10C4.500
; #@! TA.AperFunction,NonPlated,NPTH,ComponentDrill
T11C2.850
; #@! TA.AperFunction,NonPlated,NPTH,ComponentDrill
T12C3.000
; #@! TA.AperFunction,NonPlated,NPTH,ComponentDrill
T13C4.500
%
G90
G05
T1
X117.602Y-213.614
X121.666Y-213.538
X123.19Y-213.614
X127.254Y-213.538
X128.778Y-213.614
X132.842Y-213.538
X134.366Y-213.614
X138.43Y-213.538
X138.862Y-148.466
X139.116Y-157.102
X139.7Y-224.282
X139.954Y-213.614
X143.256Y-226.06
X144.018Y-213.538
X145.288Y-223.012
X145.364Y-227.076
X145.542Y-213.614
X148.26Y-135.004
X149.606Y-213.538
X151.13Y-213.614
X155.194Y-213.538
X168.834Y-171.072
X174.93Y-163.706
X177.47Y-162.436
X182.804Y-157.356
X183.82Y-156.34
X196.056Y-143.893
X196.056Y-150.593
X197.536Y-167.262
X198.12Y-143.893
X198.12Y-150.593
X198.933Y-157.102
X199.695Y-147.831
X200.076Y-157.102
X200.457Y-145.672
X200.787Y-142.113
X201.6Y-164.75
X201.803Y-146.177
X202.0Y-164.1
X202.498Y-163.552
X202.5Y-162.0
X202.511Y-162.789
X203.327Y-146.177
X203.66Y-154.661
X203.9Y-147.2
X203.962Y-139.954
X204.724Y-142.113
X204.978Y-136.017
X205.359Y-142.113
X206.426Y-160.785
X206.5Y-146.25
X206.5Y-147.0
X206.5Y-151.1
X206.5Y-153.4
X206.5Y-154.5
X206.5Y-156.4
X206.5Y-157.5
X206.5Y-161.75
X206.5Y-162.5
X206.502Y-136.017
X206.68Y-164.722
X207.696Y-169.421
X208.0Y-140.0
X208.0Y-166.5
X208.733Y-166.488
X209.95Y-143.5
X210.75Y-141.0
X210.9Y-143.65
X211.256Y-181.99
X212.0Y-143.45
X212.25Y-166.5
X213.284Y-181.994
X213.299Y-141.0
X213.45Y-143.5
X214.0Y-166.5
X214.3Y-143.5
X215.0Y-166.5
X215.25Y-143.5
X216.332Y-169.04
X216.4Y-140.0
X216.5Y-166.5
X216.6Y-143.5
X217.5Y-166.5
X219.75Y-166.5
X219.904Y-135.414
X220.25Y-143.5
X222.555Y-166.373
X223.19Y-166.373
X223.75Y-143.5
X223.825Y-166.373
X224.2Y-169.0
X224.75Y-166.5
X224.968Y-178.946
X225.0Y-169.0
X225.104Y-135.314
X225.104Y-139.314
X227.35Y-143.5
X228.778Y-162.182
X228.778Y-162.817
X228.778Y-163.452
X229.5Y-144.25
X229.5Y-147.75
X229.5Y-150.25
X229.5Y-151.25
X229.5Y-152.5
X229.5Y-154.5
X229.5Y-157.0
X229.5Y-158.0
X229.5Y-161.25
X231.826Y-172.088
X231.9Y-160.9
X231.9Y-161.674
X239.2Y-141.45
X245.922Y-174.858
X254.65Y-144.8
X254.65Y-146.2
X270.688Y-183.518
X272.72Y-182.756
X273.736Y-186.566
X276.022Y-186.058
X296.088Y-211.331
X300.152Y-211.255
X303.708Y-211.331
X307.772Y-211.255
X311.328Y-211.331
X315.392Y-211.255
X318.948Y-211.331
X323.012Y-211.255
T2
X214.7Y-151.7
X214.7Y-152.8
X214.7Y-153.9
X214.7Y-155.0
X214.7Y-156.1
X214.7Y-157.2
X214.7Y-158.3
X215.8Y-151.7
X215.8Y-152.8
X215.8Y-153.9
X215.8Y-155.0
X215.8Y-156.1
X215.8Y-157.2
X215.8Y-158.3
X216.9Y-151.7
X216.9Y-152.8
X216.9Y-153.9
X216.9Y-155.0
X216.9Y-156.1
X216.9Y-157.2
X216.9Y-158.3
X218.0Y-151.7
X218.0Y-152.8
X218.0Y-153.9
X218.0Y-155.0
X218.0Y-156.1
X218.0Y-157.2
X218.0Y-158.3
X219.1Y-151.7
X219.1Y-152.8
X219.1Y-153.9
X219.1Y-155.0
X219.1Y-156.1
X219.1Y-157.2
X219.1Y-158.3
X220.2Y-151.7
X220.2Y-152.8
X220.2Y-153.9
X220.2Y-155.0
X220.2Y-156.1
X220.2Y-157.2
X220.2Y-158.3
X221.3Y-151.7
X221.3Y-152.8
X221.3Y-153.9
X221.3Y-155.0
X221.3Y-156.1
X221.3Y-157.2
X221.3Y-158.3
T3
X101.6Y-115.758
X101.6Y-117.028
X101.6Y-118.298
X101.6Y-119.568
X101.6Y-120.838
X101.6Y-122.108
X101.6Y-123.378
X101.6Y-124.648
X101.6Y-125.918
X101.6Y-127.188
X102.87Y-125.918
X102.87Y-127.188
X104.14Y-91.628
X104.14Y-92.898
X104.14Y-94.168
X104.14Y-95.438
X104.14Y-96.708
X104.14Y-97.978
X104.14Y-99.248
X104.14Y-100.518
X104.14Y-101.788
X104.14Y-103.058
X104.14Y-104.328
X104.14Y-105.598
X104.14Y-107.884
X104.14Y-109.154
X104.14Y-110.424
X104.14Y-111.694
X104.14Y-112.964
X104.14Y-125.918
X104.14Y-127.188
X105.41Y-91.628
X105.41Y-92.898
X105.41Y-94.168
X105.41Y-95.438
X105.41Y-96.708
X105.41Y-97.978
X105.41Y-99.248
X105.41Y-100.518
X105.41Y-101.788
X105.41Y-103.058
X105.41Y-104.328
X105.41Y-105.598
X105.41Y-125.918
X105.41Y-127.188
X106.68Y-91.628
X106.68Y-92.898
X106.68Y-125.918
X106.68Y-127.188
X107.5Y-143.25
X107.95Y-91.628
X107.95Y-92.898
X107.95Y-107.884
X107.95Y-109.154
X107.95Y-110.424
X107.95Y-111.694
X107.95Y-112.964
X107.95Y-125.918
X107.95Y-127.188
X109.22Y-91.628
X109.22Y-92.898
X109.22Y-125.918
X109.22Y-127.188
X110.49Y-91.628
X110.49Y-92.898
X110.49Y-125.918
X110.49Y-127.188
X111.5Y-226.0
X111.5Y-227.25
X111.5Y-228.5
X111.76Y-81.722
X111.76Y-82.992
X111.76Y-90.358
X111.76Y-91.628
X111.76Y-92.898
X111.76Y-125.918
X111.76Y-127.188
X112.522Y-110.805
X112.573Y-218.189
X112.75Y-226.0
X112.75Y-227.25
X112.75Y-228.5
X113.03Y-81.722
X113.03Y-82.992
X113.03Y-90.358
X113.03Y-91.628
X113.03Y-92.898
X113.03Y-125.918
X113.03Y-127.188
X114.0Y-226.0
X114.0Y-227.25
X114.0Y-228.5
X114.3Y-81.722
X114.3Y-82.992
X114.3Y-90.358
X114.3Y-91.628
X114.3Y-92.898
X114.3Y-125.918
X114.3Y-127.188
X114.3Y-128.458
X114.3Y-129.728
X114.3Y-130.998
X114.3Y-132.268
X114.3Y-133.538
X114.3Y-134.808
X114.3Y-136.078
X114.3Y-137.348
X114.859Y-218.189
X115.57Y-81.722
X115.57Y-82.992
X115.57Y-90.358
X115.57Y-91.628
X115.57Y-92.898
X115.57Y-115.758
X115.57Y-117.028
X115.57Y-118.298
X115.57Y-119.568
X115.57Y-120.838
X115.57Y-122.108
X115.57Y-123.378
X115.57Y-124.648
X115.57Y-125.918
X115.57Y-127.188
X115.57Y-128.458
X115.57Y-129.728
X115.57Y-130.998
X115.57Y-132.268
X115.57Y-133.538
X115.57Y-134.808
X115.57Y-136.078
X115.57Y-137.348
X116.5Y-219.0
X116.5Y-220.0
X116.84Y-115.758
X116.84Y-117.028
X118.0Y-219.0
X118.0Y-220.0
X118.364Y-94.422
X118.364Y-95.946
X118.364Y-99.248
X118.364Y-101.026
X118.364Y-104.582
X118.618Y-149.86
X118.618Y-158.496
X118.618Y-167.132
X118.872Y-106.995
X118.872Y-108.265
X118.872Y-109.535
X118.872Y-110.805
X118.872Y-112.075
X119.304Y-184.788
X119.558Y-173.612
X119.558Y-180.216
X119.558Y-186.82
X119.558Y-193.424
X119.634Y-94.422
X119.634Y-95.946
X119.634Y-99.248
X119.634Y-101.026
X119.634Y-104.582
X120.142Y-106.995
X120.142Y-112.075
X120.904Y-94.422
X120.904Y-95.946
X120.904Y-99.248
X120.904Y-101.026
X120.904Y-104.582
X121.412Y-106.995
X121.412Y-112.075
X122.174Y-94.422
X122.174Y-95.946
X122.174Y-99.248
X122.174Y-101.026
X122.174Y-104.582
X122.682Y-106.995
X122.682Y-112.075
X123.952Y-115.25
X123.952Y-116.52
X124.46Y-81.722
X124.46Y-82.992
X124.46Y-90.358
X124.46Y-91.628
X124.968Y-112.202
X125.222Y-115.25
X125.222Y-116.52
X125.73Y-81.722
X125.73Y-82.992
X125.73Y-90.358
X125.73Y-91.628
X125.984Y-118.298
X125.984Y-119.568
X125.984Y-120.838
X125.984Y-122.108
X125.984Y-123.378
X125.984Y-124.648
X125.984Y-125.918
X125.984Y-127.188
X125.984Y-128.458
X125.984Y-129.728
X125.984Y-130.998
X125.984Y-132.268
X125.984Y-133.538
X125.984Y-134.808
X125.984Y-136.078
X125.984Y-137.348
X126.238Y-112.202
X126.746Y-93.406
X126.746Y-94.676
X126.746Y-95.946
X126.746Y-97.216
X126.746Y-98.486
X126.746Y-99.756
X126.746Y-101.026
X127.0Y-81.722
X127.0Y-82.992
X127.0Y-90.358
X127.0Y-91.628
X127.0Y-106.741
X127.254Y-118.298
X127.254Y-119.568
X127.254Y-120.838
X127.254Y-122.108
X127.254Y-123.378
X127.254Y-124.648
X127.254Y-125.918
X127.254Y-127.188
X127.254Y-128.458
X127.254Y-129.728
X127.254Y-130.998
X127.254Y-132.268
X127.254Y-133.538
X127.254Y-134.808
X127.254Y-136.078
X127.254Y-137.348
X127.508Y-112.202
X128.016Y-93.406
X128.778Y-107.122
X128.778Y-108.392
X128.778Y-109.662
X128.778Y-110.932
X128.778Y-112.202
X129.286Y-93.406
X129.464Y-171.326
X129.464Y-173.866
X129.464Y-177.93
X129.464Y-180.47
X129.464Y-184.534
X129.464Y-187.074
X129.464Y-191.138
X129.464Y-193.678
X129.464Y-201.298
X130.302Y-104.328
X130.556Y-93.406
X131.572Y-106.614
X131.572Y-107.884
X131.826Y-93.406
X132.08Y-136.906
X132.461Y-118.044
X132.537Y-122.359
X132.842Y-106.614
X132.842Y-107.884
X133.096Y-93.406
X133.35Y-82.484
X133.35Y-85.786
X133.35Y-87.564
X133.35Y-90.866
X134.061Y-118.295
X134.112Y-106.614
X134.112Y-107.884
X134.112Y-112.964
X134.151Y-114.322
X134.366Y-93.406
X134.62Y-82.484
X134.62Y-85.786
X134.62Y-87.564
X134.62Y-90.866
X135.128Y-145.288
X135.128Y-153.924
X135.128Y-162.56
X135.382Y-106.614
X135.382Y-107.884
X135.636Y-93.406
X135.636Y-94.676
X135.636Y-95.946
X135.636Y-97.216
X135.636Y-98.486
X135.636Y-99.756
X135.636Y-101.026
X135.636Y-114.488
X135.636Y-115.758
X135.636Y-117.028
X135.636Y-118.298
X135.89Y-82.484
X135.89Y-85.786
X135.89Y-87.564
X135.89Y-90.866
X136.322Y-199.774
X136.779Y-114.488
X136.779Y-115.758
X136.779Y-117.028
X136.779Y-118.298
X137.16Y-82.484
X137.16Y-85.786
X137.16Y-87.564
X137.16Y-90.866
X137.16Y-133.35
X137.16Y-149.352
X137.16Y-157.988
X137.16Y-166.624
X137.5Y-126.5
X138.789Y-112.097
X139.065Y-107.757
X139.395Y-121.724
X139.446Y-137.16
X139.497Y-143.767
X139.497Y-152.403
X139.497Y-160.023
X139.5Y-126.5
X139.7Y-93.66
X139.7Y-94.93
X139.954Y-135.89
X140.538Y-121.724
X140.97Y-93.66
X140.97Y-94.93
X141.478Y-149.86
X141.478Y-158.496
X141.478Y-163.576
X141.5Y-126.5
X141.681Y-111.313
X141.732Y-135.89
X141.783Y-191.392
X141.91Y-184.788
X142.24Y-93.66
X142.24Y-94.93
X142.418Y-173.612
X142.418Y-180.216
X142.418Y-186.82
X142.418Y-193.424
X143.5Y-126.5
X143.51Y-93.66
X143.51Y-94.93
X143.71Y-198.272
X144.018Y-110.17
X144.78Y-93.66
X144.78Y-94.93
X145.085Y-132.083
X145.085Y-134.115
X145.5Y-126.5
X145.923Y-114.488
X145.923Y-115.758
X145.923Y-117.028
X145.923Y-118.298
X145.996Y-198.272
X146.05Y-93.66
X146.05Y-94.93
X146.05Y-108.9
X146.304Y-160.274
X147.066Y-114.488
X147.066Y-115.758
X147.066Y-117.028
X147.066Y-118.298
X147.32Y-93.66
X147.32Y-94.93
X147.752Y-119.692
X147.752Y-127.511
X147.828Y-106.106
X147.828Y-107.376
X148.59Y-93.66
X148.59Y-94.93
X149.098Y-106.106
X149.098Y-107.376
X149.86Y-93.66
X149.86Y-94.93
X150.292Y-199.774
X150.368Y-106.106
X150.368Y-107.376
X151.13Y-80.96
X151.13Y-82.23
X151.13Y-83.5
X151.13Y-84.77
X151.13Y-86.04
X151.13Y-87.31
X151.13Y-88.58
X151.13Y-89.85
X151.13Y-91.12
X151.13Y-92.39
X151.13Y-93.66
X151.13Y-94.93
X151.638Y-106.106
X151.638Y-107.376
X152.324Y-171.326
X152.324Y-173.866
X152.324Y-177.93
X152.324Y-180.47
X152.324Y-184.534
X152.324Y-187.074
X152.324Y-191.138
X152.324Y-193.678
X152.4Y-80.96
X152.4Y-82.23
X152.4Y-83.5
X152.4Y-84.77
X152.4Y-86.04
X152.4Y-87.31
X152.4Y-88.58
X152.4Y-89.85
X152.4Y-91.12
X152.4Y-92.39
X152.4Y-93.66
X152.4Y-94.93
X152.4Y-115.316
X152.908Y-106.106
X152.908Y-107.376
X152.908Y-126.238
X153.67Y-93.66
X153.67Y-94.93
X154.178Y-106.106
X154.178Y-107.376
X154.356Y-201.298
X154.94Y-93.66
X154.94Y-94.93
X155.448Y-106.106
X155.448Y-107.376
X156.21Y-93.66
X156.21Y-94.93
X156.464Y-116.586
X156.464Y-118.364
X156.718Y-106.106
X156.718Y-107.376
X157.48Y-93.66
X157.48Y-94.93
X157.48Y-119.888
X157.988Y-106.106
X157.988Y-107.376
X157.988Y-145.288
X157.988Y-153.924
X158.242Y-161.544
X158.496Y-122.428
X158.75Y-93.66
X158.75Y-94.93
X159.182Y-125.225
X159.182Y-127.384
X159.258Y-106.106
X159.258Y-107.376
X160.02Y-149.352
X160.02Y-157.988
X160.274Y-96.2
X160.274Y-97.47
X160.274Y-104.074
X160.274Y-105.344
X161.544Y-96.2
X161.544Y-97.47
X161.544Y-104.074
X161.544Y-105.344
X161.62Y-214.803
X161.62Y-216.327
X162.382Y-213.025
X162.636Y-204.897
X162.814Y-96.2
X162.814Y-97.47
X162.814Y-104.074
X162.814Y-105.344
X164.084Y-96.2
X164.084Y-97.47
X164.084Y-104.074
X164.084Y-105.344
X164.16Y-204.897
X166.954Y-206.167
X166.954Y-207.691
X167.132Y-115.214
X167.132Y-116.484
X167.132Y-117.754
X167.132Y-119.024
X167.208Y-215.057
X168.224Y-212.009
X168.732Y-204.389
X170.764Y-207.437
X171.45Y-102.645
X171.45Y-105.185
X171.45Y-107.725
X171.45Y-110.265
X172.21Y-116.394
X172.542Y-212.263
X172.542Y-213.533
X173.482Y-102.645
X173.482Y-110.265
X173.482Y-117.348
X174.295Y-204.854
X176.022Y-119.888
X176.2Y-204.854
X176.844Y-105.713
X178.054Y-119.888
X179.13Y-88.441
X179.13Y-90.473
X179.654Y-206.167
X179.654Y-207.691
X179.908Y-215.057
X180.594Y-119.888
X180.924Y-212.009
X181.356Y-125.222
X181.356Y-126.492
X181.432Y-204.389
X181.864Y-102.645
X181.864Y-105.185
X181.864Y-107.725
X181.864Y-110.265
X182.626Y-116.332
X182.626Y-125.222
X182.626Y-126.492
X183.464Y-207.437
X183.896Y-102.645
X183.896Y-110.265
X183.896Y-123.952
X183.896Y-125.222
X183.896Y-126.492
X185.242Y-212.263
X185.242Y-213.533
X186.995Y-204.854
X187.344Y-105.806
X188.9Y-179.708
X188.9Y-181.232
X188.9Y-182.756
X188.9Y-204.854
X189.63Y-88.534
X189.63Y-90.566
X192.354Y-206.167
X192.354Y-207.691
X192.608Y-215.057
X193.624Y-212.009
X194.132Y-204.389
X196.164Y-207.437
X197.942Y-212.263
X197.942Y-213.533
X199.695Y-204.854
X201.6Y-204.854
X203.6Y-130.3
X205.054Y-206.167
X205.054Y-207.691
X205.308Y-215.057
X206.324Y-212.009
X206.832Y-204.389
X207.5Y-134.0
X207.696Y-177.168
X207.88Y-87.376
X207.88Y-91.44
X207.88Y-98.552
X207.88Y-102.616
X208.864Y-207.437
X209.5Y-126.5
X209.601Y-91.57
X209.601Y-102.619
X209.982Y-184.026
X210.49Y-178.184
X210.642Y-212.263
X210.642Y-213.533
X210.693Y-138.684
X211.506Y-180.978
X212.014Y-177.422
X212.395Y-204.854
X213.03Y-179.962
X214.2Y-138.6
X214.3Y-204.854
X215.5Y-126.5
X215.754Y-88.138
X215.754Y-92.202
X215.754Y-99.314
X215.754Y-103.378
X216.0Y-206.25
X216.0Y-207.5
X216.0Y-208.75
X216.0Y-210.0
X217.2Y-134.1
X219.056Y-88.392
X219.056Y-99.568
X221.1Y-130.2
X221.596Y-92.456
X221.596Y-103.632
X223.444Y-83.188
X223.444Y-94.618
X224.136Y-89.408
X224.136Y-100.584
X225.66Y-92.456
X225.66Y-103.632
X227.762Y-211.966
X229.032Y-205.362
X229.032Y-208.918
X229.032Y-213.49
X229.032Y-217.046
X229.724Y-88.646
X229.724Y-90.424
X229.724Y-92.202
X229.724Y-99.822
X229.724Y-101.6
X229.724Y-103.378
X230.048Y-203.838
X230.81Y-100.714
X231.0Y-167.7
X231.064Y-220.348
X232.08Y-199.774
X232.08Y-207.14
X232.08Y-215.268
X232.334Y-105.032
X233.096Y-219.205
X233.096Y-221.237
X234.296Y-101.346
X235.255Y-198.123
X235.636Y-86.617
X235.966Y-168.148
X236.474Y-163.83
X236.652Y-95.634
X236.99Y-93.804
X237.922Y-211.966
X238.768Y-90.757
X239.192Y-205.362
X239.192Y-208.918
X239.192Y-213.49
X239.192Y-217.046
X239.776Y-160.658
X240.208Y-203.838
X240.25Y-154.3
X240.546Y-93.804
X241.224Y-220.348
X241.408Y-100.076
X242.17Y-104.14
X242.24Y-199.774
X242.24Y-207.14
X242.24Y-215.268
X242.932Y-100.076
X243.129Y-219.205
X243.256Y-221.237
X243.848Y-84.914
X244.018Y-86.744
X244.272Y-199.774
X244.356Y-89.995
X244.356Y-91.772
X244.356Y-93.55
X245.218Y-99.06
X245.618Y-158.372
X246.05Y-120.399
X246.126Y-149.484
X246.126Y-153.284
X246.558Y-131.448
X246.558Y-133.988
X246.558Y-136.528
X246.558Y-139.068
X246.888Y-168.656
X246.888Y-170.18
X246.888Y-171.704
X247.396Y-157.48
X248.082Y-120.399
X248.082Y-211.966
X248.666Y-156.464
X248.971Y-102.238
X249.352Y-205.362
X249.352Y-208.918
X249.352Y-213.49
X249.352Y-217.046
X249.682Y-176.022
X249.733Y-104.651
X250.19Y-155.448
X250.368Y-203.838
X250.444Y-165.1
X251.384Y-220.602
X251.46Y-175.006
X251.714Y-165.1
X252.4Y-199.901
X252.4Y-207.14
X252.4Y-215.268
X253.222Y-170.158
X253.416Y-219.205
X253.416Y-221.11
X254.432Y-199.901
X254.686Y-166.358
X255.448Y-88.014
X255.448Y-90.808
X255.448Y-103.0
X255.448Y-105.54
X255.524Y-163.322
X256.54Y-175.006
X257.048Y-162.306
X257.556Y-165.1
X257.988Y-86.236
X257.988Y-92.332
X257.988Y-101.222
X257.988Y-107.318
X258.064Y-170.18
X258.242Y-211.966
X258.572Y-175.768
X259.512Y-205.362
X259.512Y-208.918
X259.512Y-213.49
X259.512Y-217.046
X260.02Y-86.236
X260.02Y-92.332
X260.02Y-101.222
X260.02Y-107.318
X260.528Y-203.838
X261.112Y-168.91
X261.112Y-171.45
X261.29Y-86.49
X261.29Y-101.476
X261.544Y-220.602
X262.56Y-199.901
X262.56Y-207.14
X262.56Y-215.268
X263.576Y-219.205
X263.576Y-221.11
X264.592Y-199.901
X266.7Y-169.215
X267.424Y-165.862
X267.424Y-167.386
X267.716Y-174.549
X268.224Y-168.402
X268.402Y-85.22
X268.402Y-100.206
X268.91Y-137.163
X268.91Y-138.56
X269.164Y-89.284
X269.164Y-104.27
X269.926Y-85.22
X269.926Y-100.206
X269.926Y-205.362
X269.926Y-208.918
X269.926Y-212.22
X270.688Y-203.838
X271.704Y-210.95
X271.831Y-222.126
X272.212Y-84.204
X272.212Y-99.19
X272.72Y-149.99
X272.72Y-200.028
X272.72Y-207.14
X273.101Y-220.856
X273.736Y-210.95
X274.117Y-149.99
X274.295Y-215.017
X274.752Y-200.028
X275.768Y-87.506
X275.768Y-89.538
X275.768Y-102.492
X275.768Y-104.524
X275.768Y-212.474
X277.292Y-97.92
X279.324Y-97.92
X280.086Y-205.362
X280.086Y-208.918
X280.086Y-212.22
X280.848Y-203.838
X281.864Y-210.95
X281.991Y-222.126
X282.88Y-200.282
X282.88Y-207.14
X283.261Y-220.856
X283.464Y-89.154
X283.896Y-210.95
X284.455Y-215.017
X284.912Y-200.282
X285.496Y-89.154
X285.928Y-212.474
X286.258Y-99.568
X286.258Y-101.346
X287.706Y-180.47
X287.706Y-190.122
X291.262Y-185.296
X291.262Y-194.948
X293.04Y-182.248
X293.04Y-191.9
X294.818Y-185.296
X294.818Y-194.948
X296.342Y-180.47
X296.342Y-190.122
X297.688Y-128.712
X299.75Y-219.25
X300.914Y-133.226
X300.914Y-135.258
X301.0Y-228.75
X301.244Y-202.184
X302.25Y-219.25
X302.26Y-130.236
X302.946Y-192.154
X303.2Y-170.945
X303.2Y-172.977
X303.5Y-228.75
X303.708Y-143.64
X303.708Y-156.261
X304.666Y-188.598
X304.75Y-219.25
X305.054Y-128.458
X305.232Y-156.261
X305.486Y-148.133
X305.74Y-193.424
X306.0Y-228.75
X306.248Y-144.832
X306.248Y-146.356
X306.375Y-131.321
X306.756Y-181.994
X306.756Y-184.788
X306.832Y-128.458
X306.864Y-173.242
X307.25Y-219.25
X308.388Y-174.004
X308.5Y-228.75
X309.296Y-196.98
X310.134Y-142.161
X310.166Y-170.956
X310.947Y-148.961
X311.944Y-174.004
X312.725Y-148.707
X312.979Y-153.787
X313.36Y-155.451
X313.36Y-157.483
X313.69Y-140.637
X313.741Y-151.501
X314.884Y-181.994
X314.884Y-188.598
X314.884Y-191.392
X315.265Y-151.501
X315.722Y-94.168
X315.722Y-95.184
X315.773Y-145.151
X316.008Y-169.94
X316.008Y-171.972
X316.974Y-185.042
X316.992Y-152.146
X317.297Y-145.151
X317.5Y-219.25
X318.77Y-228.6
X318.948Y-200.282
X319.583Y-148.961
X320.0Y-219.25
X322.5Y-219.25
X322.5Y-221.75
X322.834Y-142.174
X324.612Y-149.032
X326.39Y-140.65
X326.39Y-148.778
X326.644Y-153.858
X327.076Y-155.578
X327.076Y-157.61
X327.406Y-151.572
X328.93Y-151.572
X329.438Y-145.222
X330.708Y-152.654
X330.962Y-145.222
X333.248Y-149.032
T4
X327.625Y-170.0
X328.614Y-167.614
X328.614Y-172.386
X331.0Y-166.625
X331.0Y-173.375
X333.386Y-167.614
X333.386Y-172.386
X334.375Y-170.0
T5
X221.234Y-209.599
X221.234Y-212.139
X221.234Y-214.679
X221.234Y-219.759
X221.234Y-222.299
X221.234Y-224.839
X221.234Y-227.379
T6
X173.542Y-95.553
X173.542Y-98.093
X173.542Y-100.633
X184.042Y-95.646
X184.042Y-98.186
X184.042Y-100.726
X236.375Y-144.235
X236.375Y-146.775
X236.398Y-128.903
X236.398Y-131.443
X236.398Y-133.983
X236.398Y-136.523
X236.398Y-139.063
X238.915Y-144.235
X238.915Y-146.775
X241.455Y-144.235
X241.455Y-146.775
X243.995Y-144.235
X243.995Y-146.775
X246.535Y-144.235
X246.535Y-146.775
X249.075Y-144.235
X249.075Y-146.775
X251.615Y-144.235
X251.615Y-146.775
X311.859Y-139.188
X319.479Y-139.188
X324.559Y-139.188
X332.179Y-139.188
T7
X168.68Y-217.597
X168.68Y-220.597
X171.68Y-217.597
X171.68Y-220.597
X181.38Y-217.597
X181.38Y-220.597
X184.38Y-217.597
X184.38Y-220.597
X194.08Y-217.597
X194.08Y-220.597
X197.08Y-217.597
X197.08Y-220.597
X206.78Y-217.597
X206.78Y-220.597
X209.78Y-217.597
X209.78Y-220.597
X297.76Y-89.387
X297.76Y-92.387
X300.76Y-89.387
X300.76Y-92.387
X303.76Y-89.387
X303.76Y-92.387
X306.76Y-89.387
X306.76Y-92.387
T8
X319.479Y-121.407
X319.479Y-129.028
X332.179Y-121.407
X332.179Y-129.028
T9
X104.5Y-155.5
X104.5Y-159.5
X104.5Y-163.5
X104.5Y-167.5
X104.5Y-171.5
X104.5Y-175.5
X104.5Y-179.5
X104.5Y-183.5
X104.5Y-187.5
X104.5Y-191.5
X104.5Y-195.5
X104.5Y-199.5
X108.5Y-157.5
X108.5Y-161.5
X108.5Y-165.5
X108.5Y-169.5
X108.5Y-173.5
X108.5Y-177.5
X108.5Y-181.5
X108.5Y-185.5
X108.5Y-189.5
X108.5Y-193.5
X108.5Y-197.5
X112.5Y-155.5
X112.5Y-159.5
X112.5Y-163.5
X112.5Y-167.5
X112.5Y-171.5
X112.5Y-175.5
X112.5Y-179.5
X112.5Y-183.5
X112.5Y-187.5
X112.5Y-191.5
X112.5Y-195.5
X112.5Y-199.5
T10
X331.0Y-170.0
T11
X108.0Y-149.0
X108.0Y-206.0
T12
X170.18Y-224.917
X182.88Y-224.917
X195.58Y-224.917
X208.28Y-224.917
X299.92Y-85.067
X304.62Y-85.067
T13
X105.0Y-85.0
X105.0Y-225.0
X331.0Y-85.0
X331.0Y-225.0
T0
M30
